SplineFontDB: 3.2
FontName: Vazirmatn-UI-Regular
FullName: Vazirmatn UI Regular
FamilyName: Vazirmatn UI
Weight: Book
Copyright: Copyright 2015 The Vazirmatn Project Authors (https://github.com/rastikerdar/vazirmatn)
Version: 33.003
ItalicAngle: 0
UnderlinePosition: -780
UnderlineWidth: 100
Ascent: 1638
Descent: 410
InvalidEm: 0
sfntRevision: 0x002100c5
LayerCount: 2
Layer: 0 1 "Back" 1
Layer: 1 1 "Fore" 0
XUID: [1021 361 -1614679662 10714730]
StyleMap: 0x0040
FSType: 0
OS2Version: 4
OS2_WeightWidthSlopeOnly: 0
OS2_UseTypoMetrics: 1
CreationTime: 1431850356
ModificationTime: 1724682690
PfmFamily: 81
TTFWeight: 400
TTFWidth: 5
LineGap: 0
VLineGap: 0
Panose: 0 0 0 0 0 0 0 0 0 0
OS2TypoAscent: 1950
OS2TypoAOffset: 0
OS2TypoDescent: -970
OS2TypoDOffset: 0
OS2TypoLinegap: 0
OS2WinAscent: 1950
OS2WinAOffset: 0
OS2WinDescent: 970
OS2WinDOffset: 0
HheadAscent: 2100
HheadAOffset: 0
HheadDescent: -1100
HheadDOffset: 0
OS2SubXSize: 1331
OS2SubYSize: 1433
OS2SubXOff: 0
OS2SubYOff: 286
OS2SupXSize: 1331
OS2SupYSize: 1433
OS2SupXOff: 0
OS2SupYOff: 983
OS2StrikeYSize: 102
OS2StrikeYPos: 530
OS2CapHeight: 1638
OS2XHeight: 1082
OS2Vendor: '    '
OS2CodePages: 00000041.20080000
OS2UnicodeRanges: 80002003.80000000.00000008.00000000
Lookup: 1 0 0 "'c2sc' Capitals to Small Capitals lookup 0" { "'c2sc' Capitals to Small Capitals lookup 0 subtable"  } ['c2sc' ('DFLT' <'dflt' > 'cyrl' <'dflt' > 'grek' <'dflt' > 'latn' <'AZE ' 'CRT ' 'FRA ' 'MOL ' 'NAV ' 'ROM ' 'TRK ' 'dflt' > ) ]
Lookup: 1 0 0 "'smcp' Lowercase to Small Capitals lookup 1" { "'smcp' Lowercase to Small Capitals lookup 1 subtable"  } ['smcp' ('DFLT' <'dflt' > 'cyrl' <'dflt' > 'grek' <'dflt' > 'latn' <'AZE ' 'CRT ' 'FRA ' 'MOL ' 'NAV ' 'ROM ' 'TRK ' 'dflt' > ) ]
Lookup: 1 0 0 "'unic' Unicase lookup 2" { "'unic' Unicase lookup 2 subtable"  } ['unic' ('DFLT' <'dflt' > 'cyrl' <'dflt' > 'grek' <'dflt' > 'latn' <'AZE ' 'CRT ' 'FRA ' 'MOL ' 'NAV ' 'ROM ' 'TRK ' 'dflt' > ) ]

StartChar: A
Encoding: 65 65 2
Width: 1336
VWidth: 1798
GlyphClass: 2
Flags: W
AnchorPoint: "Anchor-1" 686 -250 basechar 0
AnchorPoint: "Anchor-0" 672 1351 basechar 0
LayerCount: 2
Fore
SplineSet
1112 -250 m 1,0,-1
 973 131 l 1,1,-1
 364 131 l 1,2,-1
 226 -250 l 1,3,-1
 29 -250 l 1,4,-1
 584 1206 l 1,5,-1
 753 1206 l 1,6,-1
 1310 -250 l 1,7,-1
 1112 -250 l 1,0,-1
422 289 m 1,8,-1
 916 289 l 1,9,-1
 669 968 l 1,10,-1
 422 289 l 1,8,-1
EndSplineSet
Substitution2: "'unic' Unicase lookup 2 subtable" A.unic
Substitution2: "'c2sc' Capitals to Small Capitals lookup 0 subtable" A.smcp
Position2: "'cpsp' Capital Spacing lookup 0 subtable" dx=36 dy=0 dh=72 dv=0
EndChar

StartChar: A.smcp
Encoding: 65537 -1 3
Width: 1158
GlyphClass: 2
Flags: W
AnchorPoint: "Anchor-1" 592 0 basechar 0
AnchorPoint: "Anchor-0" 581 1320 basechar 0
LayerCount: 2
Fore
SplineSet
949 0 m 1,0,-1
 840 279 l 1,1,-1
 320 279 l 1,2,-1
 209 0 l 1,3,-1
 20 0 l 1,4,-1
 499 1165 l 1,5,-1
 664 1165 l 1,6,-1
 1137 0 l 1,7,-1
 949 0 l 1,0,-1
380 431 m 1,8,-1
 780 431 l 1,9,-1
 581 939 l 1,10,-1
 380 431 l 1,8,-1
EndSplineSet
EndChar

StartChar: A.unic
Encoding: 65538 -1 4
Width: 1394
GlyphClass: 2
Flags: W
AnchorPoint: "Anchor-1" 682 0 basechar 0
AnchorPoint: "Anchor-0" 701 1632 basechar 0
LayerCount: 2
Fore
SplineSet
1074 0 m 1,0,1
 1063 25 1063 25 1056 65 c 128,-1,2
 1049 105 1049 105 1046 145 c 1,3,4
 976 80 976 80 859.5 30 c 128,-1,5
 743 -20 743 -20 588 -20 c 0,6,7
 448 -20 448 -20 341.5 33 c 128,-1,8
 235 86 235 86 175.5 179.5 c 128,-1,9
 116 273 116 273 116 396 c 0,10,11
 116 631 116 631 280 735.5 c 128,-1,12
 444 840 444 840 781 840 c 2,13,-1
 1045 840 l 1,14,-1
 1045 988 l 2,15,16
 1045 1135 1045 1135 957.5 1223.5 c 128,-1,17
 870 1312 870 1312 694 1312 c 0,18,19
 536 1312 536 1312 438 1245 c 128,-1,20
 340 1178 340 1178 340 1038 c 1,21,-1
 152 1038 l 1,22,23
 152 1167 152 1167 217.5 1266 c 128,-1,24
 283 1365 283 1365 406.5 1420.5 c 128,-1,25
 530 1476 530 1476 702 1476 c 0,26,27
 859 1476 859 1476 979 1422 c 128,-1,28
 1099 1368 1099 1368 1167 1259 c 128,-1,29
 1235 1150 1235 1150 1235 986 c 2,30,-1
 1235 240 l 2,31,32
 1235 185 1235 185 1244.5 122.5 c 128,-1,33
 1254 60 1254 60 1273 16 c 1,34,-1
 1273 0 l 1,35,-1
 1074 0 l 1,0,1
615 144 m 0,36,37
 722 144 722 144 809.5 171 c 128,-1,38
 897 198 897 198 957.5 239 c 128,-1,39
 1018 280 1018 280 1045 325 c 1,40,-1
 1045 683 l 1,41,-1
 811 683 l 2,42,43
 545 683 545 683 426 620.5 c 128,-1,44
 307 558 307 558 307 410 c 0,45,46
 307 295 307 295 385 219.5 c 128,-1,47
 463 144 463 144 615 144 c 0,36,37
EndSplineSet
EndChar

StartChar: AE
Encoding: 198 198 5
Width: 1914
VWidth: 1798
GlyphClass: 2
Flags: W
AnchorPoint: "Anchor-0" 939 1362 basechar 0
LayerCount: 2
Fore
SplineSet
1880 -98 m 1,0,-1
 1880 -250 l 1,1,-1
 996 -250 l 1,2,-1
 981 103 l 1,3,-1
 417 103 l 1,4,-1
 212 -250 l 1,5,-1
 -15 -250 l 1,6,-1
 866 1206 l 1,7,-1
 1818 1206 l 1,8,-1
 1818 1054 l 1,9,-1
 1127 1054 l 1,10,-1
 1147 584 l 1,11,-1
 1737 584 l 1,12,-1
 1737 432 l 1,13,-1
 1153 432 l 1,14,-1
 1176 -98 l 1,15,-1
 1880 -98 l 1,0,-1
518 278 m 1,16,-1
 974 278 l 1,17,-1
 943 1011 l 1,18,-1
 518 278 l 1,16,-1
EndSplineSet
Substitution2: "'c2sc' Capitals to Small Capitals lookup 0 subtable" AE.smcp
Position2: "'cpsp' Capital Spacing lookup 0 subtable" dx=36 dy=0 dh=72 dv=0
EndChar

StartChar: AE.smcp
Encoding: 65539 -1 6
Width: 1594
GlyphClass: 2
Flags: W
AnchorPoint: "Anchor-1" 896 0 basechar 0
AnchorPoint: "Anchor-0" 896 1290 basechar 0
LayerCount: 2
Fore
SplineSet
1522 150 m 1,0,-1
 1522 0 l 1,1,-1
 792 0 l 1,2,-1
 781 302 l 1,3,-1
 371 302 l 1,4,-1
 208 0 l 1,5,-1
 9 0 l 1,6,-1
 672 1165 l 1,7,-1
 1481 1165 l 1,8,-1
 1481 1015 l 1,9,-1
 941 1015 l 1,10,-1
 953 683 l 1,11,-1
 1417 683 l 1,12,-1
 1417 534 l 1,13,-1
 958 534 l 1,14,-1
 971 150 l 1,15,-1
 1522 150 l 1,0,-1
453 452 m 1,16,-1
 776 452 l 1,17,-1
 756 1013 l 1,18,-1
 453 452 l 1,16,-1
EndSplineSet
EndChar

StartChar: Aogonek
Encoding: 260 260 27
Width: 1336
VWidth: 1798
GlyphClass: 2
Flags: W
AnchorPoint: "Anchor-1" 686 -250 basechar 0
AnchorPoint: "Anchor-0" 672 1351 basechar 0
LayerCount: 2
Fore
SplineSet
29 -250 m 1,0,-1
 584 1206 l 1,1,-1
 753 1206 l 1,2,-1
 1310 -250 l 1,3,-1
 1272 -250 l 1,4,5
 1208 -298 1208 -298 1154.5 -352.5 c 128,-1,6
 1101 -407 1101 -407 1101 -472 c 0,7,8
 1101 -505 1101 -505 1118.5 -525 c 128,-1,9
 1136 -545 1136 -545 1179 -545 c 0,10,11
 1212 -545 1212 -545 1238 -535.5 c 128,-1,12
 1264 -526 1264 -526 1279 -518 c 1,13,-1
 1293 -640 l 1,14,15
 1268 -655 1268 -655 1229.5 -669.5 c 128,-1,16
 1191 -684 1191 -684 1132 -684 c 0,17,18
 1051 -684 1051 -684 995.5 -635.5 c 128,-1,19
 940 -587 940 -587 940 -493 c 0,20,21
 940 -427 940 -427 980 -362.5 c 128,-1,22
 1020 -298 1020 -298 1109 -241 c 1,23,-1
 973 131 l 1,24,-1
 364 131 l 1,25,-1
 226 -250 l 1,26,-1
 29 -250 l 1,0,-1
422 289 m 1,27,-1
 916 289 l 1,28,-1
 669 968 l 1,29,-1
 422 289 l 1,27,-1
EndSplineSet
Substitution2: "'locl' Localized Forms in Latin lookup 8 subtable" Aogonek.NAV
Substitution2: "'unic' Unicase lookup 2 subtable" Aogonek.unic
Substitution2: "'c2sc' Capitals to Small Capitals lookup 0 subtable" Aogonek.smcp
Position2: "'cpsp' Capital Spacing lookup 0 subtable" dx=36 dy=0 dh=72 dv=0
EndChar

StartChar: Aogonek.smcp
Encoding: 65554 -1 29
Width: 1158
GlyphClass: 2
Flags: W
AnchorPoint: "Anchor-1" 592 0 basechar 0
AnchorPoint: "Anchor-0" 581 1320 basechar 0
LayerCount: 2
Fore
SplineSet
20 0 m 1,0,-1
 499 1165 l 1,1,-1
 664 1165 l 1,2,-1
 1137 0 l 1,3,-1
 1098 0 l 1,4,5
 1034 -48 1034 -48 980.5 -102.5 c 128,-1,6
 927 -157 927 -157 927 -222 c 0,7,8
 927 -255 927 -255 944.5 -275 c 128,-1,9
 962 -295 962 -295 1005 -295 c 0,10,11
 1038 -295 1038 -295 1064 -285.5 c 128,-1,12
 1090 -276 1090 -276 1105 -268 c 1,13,-1
 1119 -390 l 1,14,15
 1094 -405 1094 -405 1055.5 -419.5 c 128,-1,16
 1017 -434 1017 -434 958 -434 c 0,17,18
 877 -434 877 -434 821.5 -385.5 c 128,-1,19
 766 -337 766 -337 766 -243 c 0,20,21
 766 -176 766 -176 808 -109.5 c 128,-1,22
 850 -43 850 -43 943 14 c 1,23,-1
 840 279 l 1,24,-1
 320 279 l 1,25,-1
 209 0 l 1,26,-1
 20 0 l 1,0,-1
380 431 m 1,27,-1
 780 431 l 1,28,-1
 581 939 l 1,29,-1
 380 431 l 1,27,-1
EndSplineSet
Substitution2: "'locl' Localized Forms in Latin lookup 8 subtable" Aogonek.smcp.NAV
EndChar

StartChar: B
Encoding: 66 66 41
Width: 1276
VWidth: 1798
GlyphClass: 2
Flags: W
AnchorPoint: "Anchor-1" 613 -240 basechar 0
AnchorPoint: "Anchor-0" 606 1362 basechar 0
LayerCount: 2
Fore
SplineSet
679 -250 m 2,0,-1
 169 -250 l 1,1,-1
 169 1206 l 1,2,-1
 646 1206 l 2,3,4
 870 1206 870 1206 995.5 1113.5 c 128,-1,5
 1121 1021 1121 1021 1121 818 c 0,6,7
 1121 717 1121 717 1063.5 638.5 c 128,-1,8
 1006 560 1006 560 906 517 c 1,9,10
 1029 483 1029 483 1094.5 388 c 128,-1,11
 1160 293 1160 293 1160 170 c 0,12,13
 1160 -34 1160 -34 1028.5 -142 c 128,-1,14
 897 -250 897 -250 679 -250 c 2,0,-1
646 1048 m 2,15,-1
 362 1048 l 1,16,-1
 362 586 l 1,17,-1
 652 586 l 2,18,19
 777 586 777 586 852.5 648 c 128,-1,20
 928 710 928 710 928 820 c 0,21,22
 928 940 928 940 858.5 994 c 128,-1,23
 789 1048 789 1048 646 1048 c 2,15,-1
968 168 m 0,24,25
 968 290 968 290 901.5 360.5 c 128,-1,26
 835 431 835 431 688 431 c 2,27,-1
 362 431 l 1,28,-1
 362 -93 l 1,29,-1
 679 -93 l 2,30,31
 816 -93 816 -93 892 -22.5 c 128,-1,32
 968 48 968 48 968 168 c 0,24,25
EndSplineSet
Substitution2: "'c2sc' Capitals to Small Capitals lookup 0 subtable" B.smcp
Position2: "'cpsp' Capital Spacing lookup 0 subtable" dx=36 dy=0 dh=72 dv=0
EndChar

StartChar: B.smcp
Encoding: 65563 -1 42
Width: 1105
GlyphClass: 2
Flags: W
AnchorPoint: "Anchor-1" 536 10 basechar 0
AnchorPoint: "Anchor-0" 529 1320 basechar 0
LayerCount: 2
Fore
SplineSet
585 0 m 2,0,-1
 139 0 l 1,1,-1
 139 1165 l 1,2,-1
 545 1165 l 2,3,4
 742 1165 742 1165 858.5 1088 c 128,-1,5
 975 1011 975 1011 975 847 c 0,6,7
 975 767 975 767 928 704 c 128,-1,8
 881 641 881 641 793 608 c 1,9,10
 899 582 899 582 953.5 504.5 c 128,-1,11
 1008 427 1008 427 1008 334 c 0,12,13
 1008 168 1008 168 893.5 84 c 128,-1,14
 779 0 779 0 585 0 c 2,0,-1
545 1012 m 2,15,-1
 324 1012 l 1,16,-1
 324 671 l 1,17,-1
 558 671 l 2,18,19
 665 671 665 671 727.5 714 c 128,-1,20
 790 757 790 757 790 839 c 0,21,22
 790 929 790 929 727 970.5 c 128,-1,23
 664 1012 664 1012 545 1012 c 2,15,-1
822 335 m 0,24,25
 822 423 822 423 768 477 c 128,-1,26
 714 531 714 531 594 531 c 2,27,-1
 324 531 l 1,28,-1
 324 152 l 1,29,-1
 585 152 l 2,30,31
 700 152 700 152 761 201 c 128,-1,32
 822 250 822 250 822 335 c 0,24,25
EndSplineSet
EndChar

StartChar: C
Encoding: 67 67 43
Width: 1333
VWidth: 1798
GlyphClass: 2
Flags: W
AnchorPoint: "Anchor-1" 680 -260 basechar 0
AnchorPoint: "Anchor-0" 680 1383 basechar 0
LayerCount: 2
Fore
SplineSet
1048 213 m 1,0,-1
 1240 213 l 1,1,2
 1225 75 1225 75 1161 -34 c 128,-1,3
 1097 -143 1097 -143 980 -206.5 c 128,-1,4
 863 -270 863 -270 688 -270 c 0,5,6
 517 -270 517 -270 389.5 -186.5 c 128,-1,7
 262 -103 262 -103 191 49 c 128,-1,8
 120 201 120 201 120 405 c 2,9,-1
 120 550 l 2,10,11
 120 754 120 754 191 906 c 128,-1,12
 262 1058 262 1058 393.5 1142 c 128,-1,13
 525 1226 525 1226 705 1226 c 0,14,15
 870 1226 870 1226 984 1164 c 128,-1,16
 1098 1102 1098 1102 1161.5 992.5 c 128,-1,17
 1225 883 1225 883 1240 739 c 1,18,-1
 1048 739 l 1,19,20
 1026 891 1026 891 950 979.5 c 128,-1,21
 874 1068 874 1068 705 1068 c 0,22,23
 512 1068 512 1068 412 926 c 128,-1,24
 312 784 312 784 312 552 c 2,25,-1
 312 405 l 2,26,27
 312 262 312 262 352 144.5 c 128,-1,28
 392 27 392 27 475.5 -43 c 128,-1,29
 559 -113 559 -113 688 -113 c 0,30,31
 811 -113 811 -113 884 -74 c 128,-1,32
 957 -35 957 -35 994.5 38 c 128,-1,33
 1032 111 1032 111 1048 213 c 1,0,-1
EndSplineSet
Substitution2: "'c2sc' Capitals to Small Capitals lookup 0 subtable" C.smcp
Position2: "'cpsp' Capital Spacing lookup 0 subtable" dx=36 dy=0 dh=72 dv=0
EndChar

StartChar: C.smcp
Encoding: 65564 -1 44
Width: 1148
GlyphClass: 2
Flags: W
AnchorPoint: "Anchor-1" 586 -4 basechar 0
AnchorPoint: "Anchor-0" 587 1320 basechar 0
LayerCount: 2
Fore
SplineSet
887 377 m 1,0,-1
 1073 377 l 1,1,2
 1054 207 1054 207 936 95.5 c 128,-1,3
 818 -16 818 -16 592 -16 c 0,4,5
 442 -16 442 -16 330.5 51.5 c 128,-1,6
 219 119 219 119 158 242 c 128,-1,7
 97 365 97 365 97 531 c 2,8,-1
 97 633 l 2,9,10
 97 800 97 800 158.5 923 c 128,-1,11
 220 1046 220 1046 333.5 1113.5 c 128,-1,12
 447 1181 447 1181 602 1181 c 0,13,14
 820 1181 820 1181 937 1070 c 128,-1,15
 1054 959 1054 959 1073 783 c 1,16,-1
 887 783 l 1,17,18
 871 899 871 899 808 964 c 128,-1,19
 745 1029 745 1029 602 1029 c 0,20,21
 445 1029 445 1029 363 924.5 c 128,-1,22
 281 820 281 820 281 634 c 2,23,-1
 281 531 l 2,24,25
 281 355 281 355 356.5 245 c 128,-1,26
 432 135 432 135 592 135 c 0,27,28
 741 135 741 135 805 198 c 128,-1,29
 869 261 869 261 887 377 c 1,0,-1
EndSplineSet
EndChar

StartChar: D
Encoding: 68 68 54
Width: 1344
VWidth: 1798
GlyphClass: 2
Flags: W
AnchorPoint: "Anchor-1" 613 -240 basechar 0
AnchorPoint: "Anchor-0" 609 1362 basechar 0
LayerCount: 2
Fore
SplineSet
563 -250 m 2,0,-1
 169 -250 l 1,1,-1
 169 1206 l 1,2,-1
 581 1206 l 2,3,4
 772 1206 772 1206 916.5 1122.5 c 128,-1,5
 1061 1039 1061 1039 1142 885.5 c 128,-1,6
 1223 732 1223 732 1223 521 c 2,7,-1
 1223 434 l 2,8,9
 1223 223 1223 223 1142 70 c 128,-1,10
 1061 -83 1061 -83 913 -166.5 c 128,-1,11
 765 -250 765 -250 563 -250 c 2,0,-1
581 1048 m 2,12,-1
 362 1048 l 1,13,-1
 362 -93 l 1,14,-1
 563 -93 l 2,15,16
 796 -93 796 -93 914 51 c 128,-1,17
 1032 195 1032 195 1032 434 c 2,18,-1
 1032 523 l 2,19,20
 1032 774 1032 774 914 911 c 128,-1,21
 796 1048 796 1048 581 1048 c 2,12,-1
EndSplineSet
Substitution2: "'c2sc' Capitals to Small Capitals lookup 0 subtable" D.smcp
Position2: "'cpsp' Capital Spacing lookup 0 subtable" dx=36 dy=0 dh=72 dv=0
EndChar

StartChar: D.smcp
Encoding: 65569 -1 55
Width: 1152
GlyphClass: 2
Flags: W
AnchorPoint: "Anchor-1" 500 10 basechar 0
AnchorPoint: "Anchor-0" 500 1320 basechar 0
LayerCount: 2
Fore
SplineSet
487 0 m 2,0,-1
 139 0 l 1,1,-1
 139 1165 l 1,2,-1
 499 1165 l 2,3,4
 665 1165 665 1165 790 1097 c 128,-1,5
 915 1029 915 1029 985.5 905.5 c 128,-1,6
 1056 782 1056 782 1056 614 c 2,7,-1
 1056 550 l 2,8,9
 1056 383 1056 383 985.5 259 c 128,-1,10
 915 135 915 135 787.5 67.5 c 128,-1,11
 660 0 660 0 487 0 c 2,0,-1
499 1012 m 2,12,-1
 324 1012 l 1,13,-1
 324 152 l 1,14,-1
 487 152 l 2,15,16
 681 152 681 152 776 259 c 128,-1,17
 871 366 871 366 871 550 c 2,18,-1
 871 616 l 2,19,20
 871 807 871 807 776 909.5 c 128,-1,21
 681 1012 681 1012 499 1012 c 2,12,-1
EndSplineSet
EndChar

StartChar: Dcroat
Encoding: 272 272 58
Width: 1374
VWidth: 1798
GlyphClass: 2
Flags: W
AnchorPoint: "Anchor-1" 613 -240 basechar 0
AnchorPoint: "Anchor-0" 609 1362 basechar 0
LayerCount: 2
Fore
SplineSet
593 -250 m 2,0,-1
 199 -250 l 1,1,-1
 199 415 l 1,2,-1
 37 415 l 1,3,-1
 37 567 l 1,4,-1
 199 567 l 1,5,-1
 199 1206 l 1,6,-1
 611 1206 l 2,7,8
 802 1206 802 1206 946.5 1122.5 c 128,-1,9
 1091 1039 1091 1039 1172 885.5 c 128,-1,10
 1253 732 1253 732 1253 521 c 2,11,-1
 1253 434 l 2,12,13
 1253 223 1253 223 1172 70 c 128,-1,14
 1091 -83 1091 -83 943 -166.5 c 128,-1,15
 795 -250 795 -250 593 -250 c 2,0,-1
674 567 m 1,16,-1
 674 415 l 1,17,-1
 392 415 l 1,18,-1
 392 -93 l 1,19,-1
 593 -93 l 2,20,21
 826 -93 826 -93 944 51 c 128,-1,22
 1062 195 1062 195 1062 434 c 2,23,-1
 1062 523 l 2,24,25
 1062 774 1062 774 944 911 c 128,-1,26
 826 1048 826 1048 611 1048 c 2,27,-1
 392 1048 l 1,28,-1
 392 567 l 1,29,-1
 674 567 l 1,16,-1
EndSplineSet
Substitution2: "'c2sc' Capitals to Small Capitals lookup 0 subtable" Dcroat.smcp
Position2: "'cpsp' Capital Spacing lookup 0 subtable" dx=36 dy=0 dh=72 dv=0
EndChar

StartChar: Delta
Encoding: 8710 8710 60
Width: 1444
GlyphClass: 2
Flags: W
LayerCount: 2
Fore
SplineSet
32 0 m 1,0,-1
 646 1456 l 1,1,-1
 816 1456 l 1,2,-1
 1396 0 l 1,3,-1
 32 0 l 1,0,-1
294 157 m 1,4,-1
 1138 157 l 1,5,-1
 729 1220 l 1,6,-1
 294 157 l 1,4,-1
EndSplineSet
Substitution2: "'c2sc' Capitals to Small Capitals lookup 0 subtable" Delta.smcp
Position2: "'cpsp' Capital Spacing lookup 0 subtable" dx=36 dy=0 dh=72 dv=0
EndChar

StartChar: Delta.smcp
Encoding: 65572 -1 61
Width: 1128
GlyphClass: 2
Flags: W
LayerCount: 2
Fore
SplineSet
20 0 m 1,0,-1
 477 1165 l 1,1,-1
 651 1165 l 1,2,-1
 1108 0 l 1,3,-1
 20 0 l 1,0,-1
590 874 m 1,4,-1
 564 967 l 1,5,-1
 538 873 l 1,6,-1
 275 152 l 1,7,-1
 854 152 l 1,8,-1
 590 874 l 1,4,-1
EndSplineSet
EndChar

StartChar: E
Encoding: 69 69 62
Width: 1164
VWidth: 1798
GlyphClass: 2
Flags: W
AnchorPoint: "Anchor-1" 619 -240 basechar 0
AnchorPoint: "Anchor-0" 619 1362 basechar 0
LayerCount: 2
Fore
SplineSet
1094 -93 m 1,0,-1
 1094 -250 l 1,1,-1
 169 -250 l 1,2,-1
 169 1206 l 1,3,-1
 1084 1206 l 1,4,-1
 1084 1048 l 1,5,-1
 362 1048 l 1,6,-1
 362 580 l 1,7,-1
 992 580 l 1,8,-1
 992 423 l 1,9,-1
 362 423 l 1,10,-1
 362 -93 l 1,11,-1
 1094 -93 l 1,0,-1
EndSplineSet
Substitution2: "'unic' Unicase lookup 2 subtable" E.unic
Substitution2: "'c2sc' Capitals to Small Capitals lookup 0 subtable" E.smcp
Position2: "'cpsp' Capital Spacing lookup 0 subtable" dx=36 dy=0 dh=72 dv=0
EndChar

StartChar: E.smcp
Encoding: 65573 -1 63
Width: 998
GlyphClass: 2
Flags: W
AnchorPoint: "Anchor-1" 537 8 basechar 0
AnchorPoint: "Anchor-0" 537 1320 basechar 0
LayerCount: 2
Fore
SplineSet
943 152 m 1,0,-1
 943 0 l 1,1,-1
 139 0 l 1,2,-1
 139 1165 l 1,3,-1
 937 1165 l 1,4,-1
 937 1012 l 1,5,-1
 324 1012 l 1,6,-1
 324 678 l 1,7,-1
 856 678 l 1,8,-1
 856 527 l 1,9,-1
 324 527 l 1,10,-1
 324 152 l 1,11,-1
 943 152 l 1,0,-1
EndSplineSet
EndChar

StartChar: E.unic
Encoding: 65574 -1 64
Width: 1425
GlyphClass: 2
Flags: W
AnchorPoint: "Anchor-1" 743 10 basechar 0
AnchorPoint: "Anchor-0" 735 1643 basechar 0
LayerCount: 2
Fore
SplineSet
747 -22 m 0,0,1
 543 -22 543 -22 403 68 c 128,-1,2
 263 158 263 158 191 316.5 c 128,-1,3
 119 475 119 475 119 681 c 2,4,-1
 119 774 l 2,5,6
 119 982 119 982 199 1140 c 128,-1,7
 279 1298 279 1298 417.5 1386.5 c 128,-1,8
 556 1475 556 1475 729 1474 c 0,9,10
 1018 1473 1018 1473 1165 1302 c 128,-1,11
 1312 1131 1312 1131 1312 813 c 2,12,-1
 1312 677 l 1,13,-1
 311 677 l 1,14,15
 312 528 312 528 359 406 c 128,-1,16
 406 284 406 284 502.5 212 c 128,-1,17
 599 140 599 140 747 140 c 0,18,19
 881 140 881 140 981 195.5 c 128,-1,20
 1081 251 1081 251 1144 313 c 1,21,-1
 1253 205 l 1,22,23
 1170 117 1170 117 1047 47.5 c 128,-1,24
 924 -22 924 -22 747 -22 c 0,0,1
729 1312 m 0,25,26
 601 1312 601 1312 511.5 1249 c 128,-1,27
 422 1186 422 1186 372 1078 c 128,-1,28
 322 970 322 970 313 834 c 1,29,-1
 1120 834 l 1,30,-1
 1120 872 l 2,31,32
 1120 998 1120 998 1080.5 1097.5 c 128,-1,33
 1041 1197 1041 1197 955 1254.5 c 128,-1,34
 869 1312 869 1312 729 1312 c 0,25,26
EndSplineSet
EndChar

StartChar: Eng
Encoding: 330 330 89
Width: 1419
VWidth: 1798
GlyphClass: 2
Flags: W
AnchorPoint: "Anchor-1" 720 -240 basechar 0
AnchorPoint: "Anchor-0" 726 1351 basechar 0
LayerCount: 2
Fore
SplineSet
162 1206 m 1,0,-1
 355 1206 l 1,1,-1
 1072 77 l 1,2,-1
 1072 1206 l 1,3,-1
 1265 1206 l 1,4,-1
 1265 -334 l 2,5,6
 1265 -505 1265 -505 1178 -596 c 128,-1,7
 1091 -687 1091 -687 938 -687 c 0,8,9
 907 -687 907 -687 880 -683.5 c 128,-1,10
 853 -680 853 -680 823 -670 c 1,11,-1
 837 -516 l 1,12,13
 854 -522 854 -522 887 -525.5 c 128,-1,14
 920 -529 920 -529 935 -529 c 0,15,16
 1000 -529 1000 -529 1036 -477 c 128,-1,17
 1072 -425 1072 -425 1072 -334 c 2,18,-1
 1072 -250 l 1,19,-1
 355 879 l 1,20,-1
 355 -250 l 1,21,-1
 162 -250 l 1,22,-1
 162 1206 l 1,0,-1
EndSplineSet
Substitution2: "'c2sc' Capitals to Small Capitals lookup 0 subtable" Eng.smcp
Position2: "'cpsp' Capital Spacing lookup 0 subtable" dx=36 dy=0 dh=72 dv=0
EndChar

StartChar: Eng.smcp
Encoding: 65591 -1 90
Width: 1251
GlyphClass: 2
Flags: W
AnchorPoint: "Anchor-1" 619 4 basechar 0
AnchorPoint: "Anchor-0" 624 1320 basechar 0
LayerCount: 2
Fore
SplineSet
1113 1165 m 1,0,-1
 1113 -89 l 2,1,2
 1113 -258 1113 -258 1028 -347.5 c 128,-1,3
 943 -437 943 -437 791 -437 c 0,4,5
 760 -437 760 -437 734 -433.5 c 128,-1,6
 708 -430 708 -430 679 -420 c 1,7,-1
 693 -263 l 1,8,9
 708 -269 708 -269 742.5 -272 c 128,-1,10
 777 -275 777 -275 791 -275 c 0,11,12
 856 -275 856 -275 892 -228 c 128,-1,13
 928 -181 928 -181 928 -89 c 2,14,-1
 928 0 l 1,15,-1
 324 876 l 1,16,-1
 324 0 l 1,17,-1
 139 0 l 1,18,-1
 139 1165 l 1,19,-1
 324 1165 l 1,20,-1
 928 289 l 1,21,-1
 928 1165 l 1,22,-1
 1113 1165 l 1,0,-1
EndSplineSet
EndChar

StartChar: Eogonek
Encoding: 280 280 91
Width: 1164
VWidth: 1798
GlyphClass: 2
Flags: W
AnchorPoint: "Anchor-1" 619 -240 basechar 0
AnchorPoint: "Anchor-0" 619 1362 basechar 0
LayerCount: 2
Fore
SplineSet
1094 -93 m 1,0,-1
 1094 -250 l 1,1,-1
 1022 -250 l 1,2,3
 958 -298 958 -298 904.5 -352.5 c 128,-1,4
 851 -407 851 -407 851 -472 c 0,5,6
 851 -505 851 -505 868.5 -525 c 128,-1,7
 886 -545 886 -545 929 -545 c 0,8,9
 962 -545 962 -545 988 -535.5 c 128,-1,10
 1014 -526 1014 -526 1029 -518 c 1,11,-1
 1043 -640 l 1,12,13
 1018 -655 1018 -655 979.5 -669.5 c 128,-1,14
 941 -684 941 -684 882 -684 c 0,15,16
 801 -684 801 -684 745.5 -635.5 c 128,-1,17
 690 -587 690 -587 690 -493 c 0,18,19
 690 -430 690 -430 727 -367.5 c 128,-1,20
 764 -305 764 -305 846 -250 c 1,21,-1
 169 -250 l 1,22,-1
 169 1206 l 1,23,-1
 1084 1206 l 1,24,-1
 1084 1048 l 1,25,-1
 362 1048 l 1,26,-1
 362 580 l 1,27,-1
 992 580 l 1,28,-1
 992 423 l 1,29,-1
 362 423 l 1,30,-1
 362 -93 l 1,31,-1
 1094 -93 l 1,0,-1
EndSplineSet
Substitution2: "'locl' Localized Forms in Latin lookup 8 subtable" Eogonek.NAV
Substitution2: "'unic' Unicase lookup 2 subtable" Eogonek.unic
Substitution2: "'c2sc' Capitals to Small Capitals lookup 0 subtable" Eogonek.smcp
Position2: "'cpsp' Capital Spacing lookup 0 subtable" dx=36 dy=0 dh=72 dv=0
EndChar

StartChar: Eogonek.smcp
Encoding: 65593 -1 93
Width: 998
GlyphClass: 2
Flags: W
AnchorPoint: "Anchor-1" 537 8 basechar 0
AnchorPoint: "Anchor-0" 537 1320 basechar 0
LayerCount: 2
Fore
SplineSet
943 152 m 1,0,-1
 943 0 l 1,1,-1
 882 0 l 1,2,3
 818 -48 818 -48 764.5 -102.5 c 128,-1,4
 711 -157 711 -157 711 -222 c 0,5,6
 711 -255 711 -255 728.5 -275 c 128,-1,7
 746 -295 746 -295 789 -295 c 0,8,9
 822 -295 822 -295 848 -285.5 c 128,-1,10
 874 -276 874 -276 889 -268 c 1,11,-1
 903 -390 l 1,12,13
 878 -405 878 -405 839.5 -419.5 c 128,-1,14
 801 -434 801 -434 742 -434 c 0,15,16
 661 -434 661 -434 605.5 -385.5 c 128,-1,17
 550 -337 550 -337 550 -243 c 0,18,19
 550 -180 550 -180 587 -117.5 c 128,-1,20
 624 -55 624 -55 706 0 c 1,21,-1
 139 0 l 1,22,-1
 139 1165 l 1,23,-1
 937 1165 l 1,24,-1
 937 1012 l 1,25,-1
 324 1012 l 1,26,-1
 324 678 l 1,27,-1
 856 678 l 1,28,-1
 856 527 l 1,29,-1
 324 527 l 1,30,-1
 324 152 l 1,31,-1
 943 152 l 1,0,-1
EndSplineSet
Substitution2: "'locl' Localized Forms in Latin lookup 8 subtable" Eogonek.smcp.NAV
EndChar

StartChar: Eth
Encoding: 208 208 96
Width: 1374
VWidth: 1798
GlyphClass: 2
Flags: W
AnchorPoint: "Anchor-1" 613 -240 basechar 0
AnchorPoint: "Anchor-0" 609 1362 basechar 0
LayerCount: 2
Fore
SplineSet
593 -250 m 2,0,-1
 199 -250 l 1,1,-1
 199 415 l 1,2,-1
 37 415 l 1,3,-1
 37 567 l 1,4,-1
 199 567 l 1,5,-1
 199 1206 l 1,6,-1
 611 1206 l 2,7,8
 802 1206 802 1206 946.5 1122.5 c 128,-1,9
 1091 1039 1091 1039 1172 885.5 c 128,-1,10
 1253 732 1253 732 1253 521 c 2,11,-1
 1253 434 l 2,12,13
 1253 223 1253 223 1172 70 c 128,-1,14
 1091 -83 1091 -83 943 -166.5 c 128,-1,15
 795 -250 795 -250 593 -250 c 2,0,-1
674 567 m 1,16,-1
 674 415 l 1,17,-1
 392 415 l 1,18,-1
 392 -93 l 1,19,-1
 593 -93 l 2,20,21
 826 -93 826 -93 944 51 c 128,-1,22
 1062 195 1062 195 1062 434 c 2,23,-1
 1062 523 l 2,24,25
 1062 774 1062 774 944 911 c 128,-1,26
 826 1048 826 1048 611 1048 c 2,27,-1
 392 1048 l 1,28,-1
 392 567 l 1,29,-1
 674 567 l 1,16,-1
EndSplineSet
Substitution2: "'c2sc' Capitals to Small Capitals lookup 0 subtable" Eth.smcp
Position2: "'cpsp' Capital Spacing lookup 0 subtable" dx=36 dy=0 dh=72 dv=0
EndChar

StartChar: Euro
Encoding: 8364 8364 98
Width: 1151
GlyphClass: 2
Flags: W
LayerCount: 2
Fore
SplineSet
815 136 m 0,0,1
 929 136 929 136 1033 170 c 1,2,-1
 1053 10 l 1,3,4
 997 -4 997 -4 936 -12 c 128,-1,5
 875 -20 875 -20 813 -20 c 0,6,7
 657 -20 657 -20 536.5 42.5 c 128,-1,8
 416 105 416 105 346.5 230 c 128,-1,9
 277 355 277 355 273 542 c 1,10,-1
 95 542 l 1,11,-1
 95 666 l 1,12,-1
 273 666 l 1,13,-1
 273 802 l 1,14,-1
 95 802 l 1,15,-1
 95 927 l 1,16,-1
 274 927 l 1,17,18
 283 1201 283 1201 431.5 1338.5 c 128,-1,19
 580 1476 580 1476 812 1476 c 0,20,21
 875 1476 875 1476 933.5 1467.5 c 128,-1,22
 992 1459 992 1459 1053 1445 c 1,23,-1
 1033 1284 l 1,24,25
 984 1300 984 1300 928 1309.5 c 128,-1,26
 872 1319 872 1319 814 1319 c 0,27,28
 660 1319 660 1319 567 1223 c 128,-1,29
 474 1127 474 1127 467 927 c 1,30,-1
 850 927 l 1,31,-1
 850 802 l 1,32,-1
 466 802 l 1,33,-1
 466 666 l 1,34,-1
 850 666 l 1,35,-1
 850 542 l 1,36,-1
 466 542 l 1,37,38
 470 335 470 335 564.5 235.5 c 128,-1,39
 659 136 659 136 815 136 c 0,0,1
EndSplineSet
Substitution2: "'c2sc' Capitals to Small Capitals lookup 0 subtable" Euro.smcp
Position2: "'cpsp' Capital Spacing lookup 0 subtable" dx=36 dy=0 dh=72 dv=0
EndChar

StartChar: Euro.smcp
Encoding: 65597 -1 99
Width: 996
GlyphClass: 2
Flags: W
LayerCount: 2
Fore
SplineSet
698 135 m 0,0,1
 757 135 757 135 802.5 142.5 c 128,-1,2
 848 150 848 150 900 164 c 1,3,-1
 927 15 l 1,4,5
 872 0 872 0 816 -8 c 128,-1,6
 760 -16 760 -16 698 -16 c 0,7,8
 491 -16 491 -16 366.5 91 c 128,-1,9
 242 198 242 198 222 406 c 1,10,-1
 67 406 l 1,11,-1
 67 527 l 1,12,-1
 218 527 l 1,13,-1
 218 636 l 1,14,-1
 67 636 l 1,15,-1
 67 757 l 1,16,-1
 222 757 l 1,17,18
 243 964 243 964 366 1072.5 c 128,-1,19
 489 1181 489 1181 696 1181 c 0,20,21
 759 1181 759 1181 812.5 1172.5 c 128,-1,22
 866 1164 866 1164 927 1150 c 1,23,-1
 906 1002 l 1,24,25
 855 1018 855 1018 805 1023.5 c 128,-1,26
 755 1029 755 1029 696 1029 c 0,27,28
 438 1029 438 1029 407 757 c 1,29,-1
 816 757 l 1,30,-1
 816 636 l 1,31,-1
 403 636 l 1,32,-1
 403 527 l 1,33,-1
 816 527 l 1,34,-1
 816 406 l 1,35,-1
 407 406 l 1,36,37
 438 135 438 135 698 135 c 0,0,1
EndSplineSet
EndChar

StartChar: F
Encoding: 70 70 100
Width: 1132
VWidth: 1798
GlyphClass: 2
Flags: W
AnchorPoint: "Anchor-1" 619 -240 basechar 0
AnchorPoint: "Anchor-0" 619 1362 basechar 0
LayerCount: 2
Fore
SplineSet
972 551 m 1,0,-1
 972 393 l 1,1,-1
 362 393 l 1,2,-1
 362 -250 l 1,3,-1
 169 -250 l 1,4,-1
 169 1206 l 1,5,-1
 1071 1206 l 1,6,-1
 1071 1048 l 1,7,-1
 362 1048 l 1,8,-1
 362 551 l 1,9,-1
 972 551 l 1,0,-1
EndSplineSet
Substitution2: "'c2sc' Capitals to Small Capitals lookup 0 subtable" F.smcp
Position2: "'cpsp' Capital Spacing lookup 0 subtable" dx=36 dy=0 dh=72 dv=0
EndChar

StartChar: F.smcp
Encoding: 65598 -1 101
Width: 972
GlyphClass: 2
Flags: W
AnchorPoint: "Anchor-1" 489 10 basechar 0
AnchorPoint: "Anchor-0" 541 1320 basechar 0
LayerCount: 2
Fore
SplineSet
844 652 m 1,0,-1
 844 500 l 1,1,-1
 324 500 l 1,2,-1
 324 0 l 1,3,-1
 139 0 l 1,4,-1
 139 1165 l 1,5,-1
 923 1165 l 1,6,-1
 923 1012 l 1,7,-1
 324 1012 l 1,8,-1
 324 652 l 1,9,-1
 844 652 l 1,0,-1
EndSplineSet
EndChar

StartChar: G
Encoding: 71 71 102
Width: 1395
VWidth: 1798
GlyphClass: 2
Flags: W
AnchorPoint: "Anchor-1" 730 -259 basechar 0
AnchorPoint: "Anchor-0" 672 1383 basechar 0
LayerCount: 2
Fore
SplineSet
1245 475 m 1,0,-1
 1245 -58 l 1,1,2
 1218 -98 1218 -98 1159 -147.5 c 128,-1,3
 1100 -197 1100 -197 996.5 -233.5 c 128,-1,4
 893 -270 893 -270 730 -270 c 0,5,6
 553 -270 553 -270 415.5 -188 c 128,-1,7
 278 -106 278 -106 200 49 c 128,-1,8
 122 204 122 204 122 422 c 2,9,-1
 122 535 l 2,10,11
 122 861 122 861 274 1043.5 c 128,-1,12
 426 1226 426 1226 708 1226 c 0,13,14
 875 1226 875 1226 987.5 1168.5 c 128,-1,15
 1100 1111 1100 1111 1163.5 1010 c 128,-1,16
 1227 909 1227 909 1245 780 c 1,17,-1
 1052 780 l 1,18,19
 1039 859 1039 859 1000.5 924 c 128,-1,20
 962 989 962 989 891 1028.5 c 128,-1,21
 820 1068 820 1068 708 1068 c 0,22,23
 506 1068 506 1068 411 925 c 128,-1,24
 316 782 316 782 316 537 c 2,25,-1
 316 422 l 2,26,27
 316 170 316 170 430 28.5 c 128,-1,28
 544 -113 544 -113 731 -113 c 0,29,30
 834 -113 834 -113 898 -95.5 c 128,-1,31
 962 -78 962 -78 998 -53.5 c 128,-1,32
 1034 -29 1034 -29 1053 -7 c 1,33,-1
 1053 319 l 1,34,-1
 716 319 l 1,35,-1
 716 475 l 1,36,-1
 1245 475 l 1,0,-1
EndSplineSet
Substitution2: "'c2sc' Capitals to Small Capitals lookup 0 subtable" G.smcp
Position2: "'cpsp' Capital Spacing lookup 0 subtable" dx=36 dy=0 dh=72 dv=0
EndChar

StartChar: G.smcp
Encoding: 65599 -1 103
Width: 1196
GlyphClass: 2
Flags: W
AnchorPoint: "Anchor-1" 591 -4 basechar 0
AnchorPoint: "Anchor-0" 584 1320 basechar 0
LayerCount: 2
Fore
SplineSet
1078 592 m 1,0,-1
 1078 150 l 1,1,2
 1053 118 1053 118 1000.5 79 c 128,-1,3
 948 40 948 40 857.5 12 c 128,-1,4
 767 -16 767 -16 627 -16 c 0,5,6
 473 -16 473 -16 354 50 c 128,-1,7
 235 116 235 116 167.5 240.5 c 128,-1,8
 100 365 100 365 100 541 c 2,9,-1
 100 625 l 2,10,11
 100 888 100 888 233.5 1034.5 c 128,-1,12
 367 1181 367 1181 608 1181 c 0,13,14
 830 1181 830 1181 942.5 1077.5 c 128,-1,15
 1055 974 1055 974 1077 813 c 1,16,-1
 894 813 l 1,17,18
 877 905 877 905 812.5 967 c 128,-1,19
 748 1029 748 1029 610 1029 c 0,20,21
 445 1029 445 1029 365.5 922.5 c 128,-1,22
 286 816 286 816 286 627 c 2,23,-1
 286 541 l 2,24,25
 286 347 286 347 380 241 c 128,-1,26
 474 135 474 135 631 135 c 0,27,28
 755 135 755 135 812 161.5 c 128,-1,29
 869 188 869 188 893 210 c 1,30,-1
 893 448 l 1,31,-1
 612 448 l 1,32,-1
 612 592 l 1,33,-1
 1078 592 l 1,0,-1
EndSplineSet
EndChar

StartChar: Germandbls.smcp
Encoding: 65604 -1 111
Width: 1105
GlyphClass: 2
Flags: W
LayerCount: 2
Fore
SplineSet
399 30 m 1,0,-1
 452 182 l 1,1,2
 483 163 483 163 525 147 c 128,-1,3
 567 131 567 131 622 131 c 0,4,5
 722 131 722 131 777 193.5 c 128,-1,6
 832 256 832 256 832 353 c 0,7,8
 832 451 832 451 764 493 c 128,-1,9
 696 535 696 535 561 535 c 2,10,-1
 477 535 l 1,11,-1
 477 673 l 1,12,-1
 715 968 l 1,13,14
 685 991 685 991 643 1010.5 c 128,-1,15
 601 1030 601 1030 538 1030 c 0,16,17
 455 1030 455 1030 408 991.5 c 128,-1,18
 361 953 361 953 342 890 c 128,-1,19
 323 827 323 827 323 751 c 2,20,-1
 323 0 l 1,21,-1
 139 0 l 1,22,-1
 139 753 l 1,23,-1
 139 753 l 1,24,25
 141 1181 141 1181 538 1181 c 0,26,27
 669 1181 669 1181 765 1127.5 c 128,-1,28
 861 1074 861 1074 940 998 c 1,29,-1
 668 670 l 1,30,31
 830 655 830 655 924 575 c 128,-1,32
 1018 495 1018 495 1018 356 c 0,33,34
 1018 176 1018 176 907 77.5 c 128,-1,35
 796 -21 796 -21 622 -21 c 0,36,37
 566 -21 566 -21 510 -9 c 128,-1,38
 454 3 454 3 399 30 c 1,0,-1
EndSplineSet
EndChar

StartChar: H
Encoding: 72 72 112
Width: 1461
VWidth: 1798
GlyphClass: 2
Flags: W
AnchorPoint: "Anchor-1" 714 -240 basechar 0
AnchorPoint: "Anchor-0" 712 1362 basechar 0
LayerCount: 2
Fore
SplineSet
362 1206 m 1,0,-1
 362 580 l 1,1,-1
 1096 580 l 1,2,-1
 1096 1206 l 1,3,-1
 1288 1206 l 1,4,-1
 1288 -250 l 1,5,-1
 1096 -250 l 1,6,-1
 1096 423 l 1,7,-1
 362 423 l 1,8,-1
 362 -250 l 1,9,-1
 169 -250 l 1,10,-1
 169 1206 l 1,11,-1
 362 1206 l 1,0,-1
EndSplineSet
Substitution2: "'c2sc' Capitals to Small Capitals lookup 0 subtable" H.smcp
Position2: "'cpsp' Capital Spacing lookup 0 subtable" dx=36 dy=0 dh=72 dv=0
EndChar

StartChar: H.smcp
Encoding: 65605 -1 113
Width: 1252
GlyphClass: 2
Flags: W
AnchorPoint: "Anchor-1" 615 10 basechar 0
AnchorPoint: "Anchor-0" 615 1320 basechar 0
LayerCount: 2
Fore
SplineSet
324 1165 m 1,0,-1
 324 651 l 1,1,-1
 928 651 l 1,2,-1
 928 1165 l 1,3,-1
 1113 1165 l 1,4,-1
 1113 0 l 1,5,-1
 928 0 l 1,6,-1
 928 498 l 1,7,-1
 324 498 l 1,8,-1
 324 0 l 1,9,-1
 139 0 l 1,10,-1
 139 1165 l 1,11,-1
 324 1165 l 1,0,-1
EndSplineSet
EndChar

StartChar: Hbar
Encoding: 294 294 114
Width: 1435
VWidth: 1798
GlyphClass: 2
Flags: W
AnchorPoint: "Anchor-1" 724 -240 basechar 0
AnchorPoint: "Anchor-0" 724 1362 basechar 0
LayerCount: 2
Fore
SplineSet
356 1206 m 1,0,-1
 356 917 l 1,1,-1
 1090 917 l 1,2,-1
 1090 1206 l 1,3,-1
 1283 1206 l 1,4,-1
 1283 917 l 1,5,-1
 1417 917 l 1,6,-1
 1417 774 l 1,7,-1
 1283 774 l 1,8,-1
 1283 -250 l 1,9,-1
 1090 -250 l 1,10,-1
 1090 423 l 1,11,-1
 356 423 l 1,12,-1
 356 -250 l 1,13,-1
 164 -250 l 1,14,-1
 164 774 l 1,15,-1
 30 774 l 1,16,-1
 30 917 l 1,17,-1
 164 917 l 1,18,-1
 164 1206 l 1,19,-1
 356 1206 l 1,0,-1
356 580 m 1,20,-1
 1090 580 l 1,21,-1
 1090 774 l 1,22,-1
 356 774 l 1,23,-1
 356 580 l 1,20,-1
EndSplineSet
Substitution2: "'c2sc' Capitals to Small Capitals lookup 0 subtable" Hbar.smcp
Position2: "'cpsp' Capital Spacing lookup 0 subtable" dx=36 dy=0 dh=72 dv=0
EndChar

StartChar: Hbar.smcp
Encoding: 65606 -1 115
Width: 1251
GlyphClass: 2
Flags: W
AnchorPoint: "Anchor-1" 615 10 basechar 0
AnchorPoint: "Anchor-0" 615 1320 basechar 0
LayerCount: 2
Fore
SplineSet
324 1165 m 1,0,-1
 324 999 l 1,1,-1
 928 999 l 1,2,-1
 928 1165 l 1,3,-1
 1113 1165 l 1,4,-1
 1113 999 l 1,5,-1
 1203 999 l 1,6,-1
 1203 847 l 1,7,-1
 1113 847 l 1,8,-1
 1113 0 l 1,9,-1
 928 0 l 1,10,-1
 928 498 l 1,11,-1
 324 498 l 1,12,-1
 324 0 l 1,13,-1
 139 0 l 1,14,-1
 139 847 l 1,15,-1
 48 847 l 1,16,-1
 48 999 l 1,17,-1
 139 999 l 1,18,-1
 139 1165 l 1,19,-1
 324 1165 l 1,0,-1
324 651 m 1,20,-1
 928 651 l 1,21,-1
 928 847 l 1,22,-1
 324 847 l 1,23,-1
 324 651 l 1,20,-1
EndSplineSet
EndChar

StartChar: I
Encoding: 73 73 118
Width: 557
VWidth: 1798
GlyphClass: 2
Flags: W
AnchorPoint: "Anchor-1" 279 -241 basechar 0
AnchorPoint: "Anchor-0" 279 1362 basechar 0
LayerCount: 2
Fore
SplineSet
376 1206 m 1,0,-1
 376 -250 l 1,1,-1
 183 -250 l 1,2,-1
 183 1206 l 1,3,-1
 376 1206 l 1,0,-1
EndSplineSet
Substitution2: "'c2sc' Capitals to Small Capitals lookup 0 subtable" I.smcp
Position2: "'cpsp' Capital Spacing lookup 0 subtable" dx=36 dy=0 dh=72 dv=0
EndChar

StartChar: I.smcp
Encoding: 65608 -1 119
Width: 489
GlyphClass: 2
Flags: W
AnchorPoint: "Anchor-1" 244 4 basechar 0
AnchorPoint: "Anchor-0" 244 1320 basechar 0
LayerCount: 2
Fore
SplineSet
337 1165 m 1,0,-1
 337 0 l 1,1,-1
 152 0 l 1,2,-1
 152 1165 l 1,3,-1
 337 1165 l 1,0,-1
EndSplineSet
EndChar

StartChar: J
Encoding: 74 74 140
Width: 1130
VWidth: 1798
GlyphClass: 2
Flags: W
AnchorPoint: "Anchor-1" 512 -260 basechar 0
AnchorPoint: "Anchor-0" 852 1349 basechar 0
LayerCount: 2
Fore
SplineSet
780 175 m 2,0,-1
 780 1206 l 1,1,-1
 972 1206 l 1,2,-1
 972 175 l 2,3,4
 972 31 972 31 913 -68 c 128,-1,5
 854 -167 854 -167 750.5 -218.5 c 128,-1,6
 647 -270 647 -270 513 -270 c 256,7,8
 379 -270 379 -270 275 -224 c 128,-1,9
 171 -178 171 -178 112 -84 c 128,-1,10
 53 10 53 10 53 153 c 1,11,-1
 246 153 l 1,12,13
 246 15 246 15 320.5 -49 c 128,-1,14
 395 -113 395 -113 513 -113 c 0,15,16
 627 -113 627 -113 703.5 -40 c 128,-1,17
 780 33 780 33 780 175 c 2,0,-1
EndSplineSet
Substitution2: "'c2sc' Capitals to Small Capitals lookup 0 subtable" J.smcp
Position2: "'cpsp' Capital Spacing lookup 0 subtable" dx=36 dy=0 dh=72 dv=0
EndChar

StartChar: J.smcp
Encoding: 65619 -1 141
Width: 975
GlyphClass: 2
Flags: W
AnchorPoint: "Anchor-1" 457 -10 basechar 0
AnchorPoint: "Anchor-0" 734 1320 basechar 0
LayerCount: 2
Fore
SplineSet
659 339 m 2,0,-1
 659 1165 l 1,1,-1
 845 1165 l 1,2,-1
 845 339 l 2,3,4
 845 228 845 228 794.5 148.5 c 128,-1,5
 744 69 744 69 656.5 26.5 c 128,-1,6
 569 -16 569 -16 457 -16 c 0,7,8
 339 -16 339 -16 245.5 21.5 c 128,-1,9
 152 59 152 59 98 136 c 128,-1,10
 44 213 44 213 44 331 c 1,11,-1
 230 331 l 1,12,13
 230 227 230 227 292 181 c 128,-1,14
 354 135 354 135 457 135 c 0,15,16
 547 135 547 135 603 189 c 128,-1,17
 659 243 659 243 659 339 c 2,0,-1
EndSplineSet
EndChar

StartChar: K
Encoding: 75 75 144
Width: 1285
VWidth: 1798
GlyphClass: 2
Flags: W
AnchorPoint: "Anchor-1" 660 -160 basechar 0
AnchorPoint: "Anchor-0" 605 1345 basechar 0
LayerCount: 2
Fore
SplineSet
1055 -250 m 1,0,-1
 540 428 l 1,1,-1
 362 243 l 1,2,-1
 362 -250 l 1,3,-1
 169 -250 l 1,4,-1
 169 1206 l 1,5,-1
 362 1206 l 1,6,-1
 362 488 l 1,7,-1
 520 662 l 1,8,-1
 1009 1206 l 1,9,-1
 1241 1206 l 1,10,-1
 669 563 l 1,11,-1
 1285 -250 l 1,12,-1
 1055 -250 l 1,0,-1
EndSplineSet
Substitution2: "'salt' Stylistic Alternatives lookup 13 subtable" K.alt
Substitution2: "'c2sc' Capitals to Small Capitals lookup 0 subtable" K.smcp
Position2: "'cpsp' Capital Spacing lookup 0 subtable" dx=36 dy=0 dh=72 dv=0
EndChar

StartChar: K.alt
Encoding: 65621 -1 145
Width: 1316
GlyphClass: 2
Flags: W
LayerCount: 2
Fore
SplineSet
1074 0 m 1,0,-1
 547 655 l 1,1,-1
 371 655 l 1,2,-1
 371 0 l 1,3,-1
 178 0 l 1,4,-1
 178 1456 l 1,5,-1
 371 1456 l 1,6,-1
 371 815 l 1,7,-1
 521 815 l 1,8,-1
 1029 1456 l 1,9,-1
 1268 1456 l 1,10,-1
 712 752 l 1,11,-1
 1310 0 l 1,12,-1
 1074 0 l 1,0,-1
EndSplineSet
EndChar

StartChar: K.smcp
Encoding: 65622 -1 146
Width: 1109
GlyphClass: 2
Flags: W
AnchorPoint: "Anchor-1" 532 6 basechar 0
AnchorPoint: "Anchor-0" 518 1320 basechar 0
LayerCount: 2
Fore
SplineSet
886 0 m 1,0,-1
 472 520 l 1,1,-1
 324 377 l 1,2,-1
 324 0 l 1,3,-1
 139 0 l 1,4,-1
 139 1165 l 1,5,-1
 324 1165 l 1,6,-1
 324 611 l 1,7,-1
 454 754 l 1,8,-1
 850 1165 l 1,9,-1
 1078 1165 l 1,10,-1
 599 647 l 1,11,-1
 1111 0 l 1,12,-1
 886 0 l 1,0,-1
EndSplineSet
EndChar

StartChar: L
Encoding: 76 76 149
Width: 1103
VWidth: 1798
GlyphClass: 2
Flags: W
AnchorPoint: "Anchor-1" 620 -240 basechar 0
AnchorPoint: "Anchor-0" 264 1346 basechar 0
LayerCount: 2
Fore
SplineSet
1052 -93 m 1,0,-1
 1052 -250 l 1,1,-1
 169 -250 l 1,2,-1
 169 1206 l 1,3,-1
 362 1206 l 1,4,-1
 362 -93 l 1,5,-1
 1052 -93 l 1,0,-1
EndSplineSet
Substitution2: "'c2sc' Capitals to Small Capitals lookup 0 subtable" L.smcp
Position2: "'cpsp' Capital Spacing lookup 0 subtable" dx=36 dy=0 dh=72 dv=0
EndChar

StartChar: L.smcp
Encoding: 65624 -1 150
Width: 949
GlyphClass: 2
Flags: W
AnchorPoint: "Anchor-1" 527 8 basechar 0
AnchorPoint: "Anchor-0" 233 1320 basechar 0
LayerCount: 2
Fore
SplineSet
907 152 m 1,0,-1
 907 0 l 1,1,-1
 139 0 l 1,2,-1
 139 1165 l 1,3,-1
 324 1165 l 1,4,-1
 324 152 l 1,5,-1
 907 152 l 1,0,-1
EndSplineSet
EndChar

StartChar: Lslash
Encoding: 321 321 161
Width: 1103
VWidth: 1798
GlyphClass: 2
Flags: W
AnchorPoint: "Anchor-1" 618 -240 basechar 0
AnchorPoint: "Anchor-0" 262 1346 basechar 0
LayerCount: 2
Fore
SplineSet
1052 -93 m 1,0,-1
 1052 -250 l 1,1,-1
 169 -250 l 1,2,-1
 169 409 l 1,3,-1
 35 366 l 1,4,-1
 35 491 l 1,5,-1
 169 534 l 1,6,-1
 169 1206 l 1,7,-1
 361 1206 l 1,8,-1
 361 595 l 1,9,-1
 624 678 l 1,10,-1
 624 553 l 1,11,-1
 361 470 l 1,12,-1
 361 -93 l 1,13,-1
 1052 -93 l 1,0,-1
EndSplineSet
Substitution2: "'c2sc' Capitals to Small Capitals lookup 0 subtable" Lslash.smcp
Position2: "'cpsp' Capital Spacing lookup 0 subtable" dx=36 dy=0 dh=72 dv=0
EndChar

StartChar: Lslash.smcp
Encoding: 65631 -1 162
Width: 949
GlyphClass: 2
Flags: W
AnchorPoint: "Anchor-1" 527 8 basechar 0
AnchorPoint: "Anchor-0" 233 1320 basechar 0
LayerCount: 2
Fore
SplineSet
907 152 m 1,0,-1
 907 0 l 1,1,-1
 139 0 l 1,2,-1
 139 515 l 1,3,-1
 1 471 l 1,4,-1
 1 596 l 1,5,-1
 139 640 l 1,6,-1
 139 1165 l 1,7,-1
 324 1165 l 1,8,-1
 324 699 l 1,9,-1
 590 783 l 1,10,-1
 590 658 l 1,11,-1
 324 574 l 1,12,-1
 324 152 l 1,13,-1
 907 152 l 1,0,-1
EndSplineSet
EndChar

StartChar: M
Encoding: 77 77 163
Width: 1788
VWidth: 1798
GlyphClass: 2
Flags: W
AnchorPoint: "Anchor-1" 893 -240 basechar 0
AnchorPoint: "Anchor-0" 890 1351 basechar 0
LayerCount: 2
Fore
SplineSet
169 1206 m 1,0,-1
 417 1206 l 1,1,-1
 894 19 l 1,2,-1
 1370 1206 l 1,3,-1
 1618 1206 l 1,4,-1
 1618 -250 l 1,5,-1
 1426 -250 l 1,6,-1
 1426 318 l 1,7,-1
 1445 927 l 1,8,-1
 966 -250 l 1,9,-1
 820 -250 l 1,10,-1
 342 929 l 1,11,-1
 361 318 l 1,12,-1
 361 -250 l 1,13,-1
 169 -250 l 1,14,-1
 169 1206 l 1,0,-1
EndSplineSet
Substitution2: "'unic' Unicase lookup 2 subtable" M.unic
Substitution2: "'c2sc' Capitals to Small Capitals lookup 0 subtable" M.smcp
Position2: "'cpsp' Capital Spacing lookup 0 subtable" dx=36 dy=0 dh=72 dv=0
EndChar

StartChar: M.smcp
Encoding: 65632 -1 164
Width: 1538
GlyphClass: 2
Flags: W
AnchorPoint: "Anchor-1" 765 10 basechar 0
AnchorPoint: "Anchor-0" 765 1320 basechar 0
LayerCount: 2
Fore
SplineSet
139 1165 m 1,0,-1
 378 1165 l 1,1,-1
 769 254 l 1,2,-1
 1159 1165 l 1,3,-1
 1400 1165 l 1,4,-1
 1400 0 l 1,5,-1
 1215 0 l 1,6,-1
 1215 402 l 1,7,-1
 1234 932 l 1,8,-1
 836 0 l 1,9,-1
 701 0 l 1,10,-1
 304 930 l 1,11,-1
 323 402 l 1,12,-1
 323 0 l 1,13,-1
 139 0 l 1,14,-1
 139 1165 l 1,0,-1
EndSplineSet
EndChar

StartChar: M.unic
Encoding: 65633 -1 165
Width: 2223
GlyphClass: 2
Flags: W
AnchorPoint: "Anchor-1" 1118 10 basechar 0
AnchorPoint: "Anchor-0" 1114 1632 basechar 0
LayerCount: 2
Fore
SplineSet
730 1312 m 0,0,1
 601 1312 601 1312 503 1234.5 c 128,-1,2
 405 1157 405 1157 362 1041 c 1,3,-1
 362 0 l 1,4,-1
 169 0 l 1,5,-1
 169 1456 l 1,6,-1
 352 1456 l 1,7,-1
 360 1271 l 1,8,9
 431 1366 431 1366 541.5 1421 c 128,-1,10
 652 1476 652 1476 785 1476 c 0,11,12
 923 1476 923 1476 1022 1421 c 128,-1,13
 1121 1366 1121 1366 1169 1241 c 1,14,15
 1240 1349 1240 1349 1360 1412.5 c 128,-1,16
 1480 1476 1480 1476 1629 1476 c 0,17,18
 1828 1476 1828 1476 1942.5 1363 c 128,-1,19
 2057 1250 2057 1250 2057 982 c 2,20,-1
 2057 0 l 1,21,-1
 1864 0 l 1,22,-1
 1864 984 l 2,23,24
 1864 1160 1864 1160 1789 1236 c 128,-1,25
 1714 1312 1714 1312 1577 1312 c 0,26,27
 1446 1312 1446 1312 1347.5 1233 c 128,-1,28
 1249 1154 1249 1154 1208 1036 c 1,29,30
 1209 1010 1209 1010 1209 982 c 2,31,-1
 1209 0 l 1,32,-1
 1017 0 l 1,33,-1
 1017 984 l 2,34,35
 1017 1160 1017 1160 942 1236 c 128,-1,36
 867 1312 867 1312 730 1312 c 0,0,1
EndSplineSet
EndChar

StartChar: N
Encoding: 78 78 166
Width: 1461
VWidth: 1798
GlyphClass: 2
Flags: W
AnchorPoint: "Anchor-1" 720 -240 basechar 0
AnchorPoint: "Anchor-0" 726 1351 basechar 0
LayerCount: 2
Fore
SplineSet
1289 1206 m 1,0,-1
 1289 -250 l 1,1,-1
 1095 -250 l 1,2,-1
 362 873 l 1,3,-1
 362 -250 l 1,4,-1
 169 -250 l 1,5,-1
 169 1206 l 1,6,-1
 362 1206 l 1,7,-1
 1098 80 l 1,8,-1
 1098 1206 l 1,9,-1
 1289 1206 l 1,0,-1
EndSplineSet
Substitution2: "'unic' Unicase lookup 2 subtable" N.unic
Substitution2: "'c2sc' Capitals to Small Capitals lookup 0 subtable" N.smcp
Position2: "'cpsp' Capital Spacing lookup 0 subtable" dx=36 dy=0 dh=72 dv=0
EndChar

StartChar: N.smcp
Encoding: 65634 -1 167
Width: 1251
GlyphClass: 2
Flags: W
AnchorPoint: "Anchor-1" 619 4 basechar 0
AnchorPoint: "Anchor-0" 624 1320 basechar 0
LayerCount: 2
Fore
SplineSet
1113 1165 m 1,0,-1
 1113 0 l 1,1,-1
 928 0 l 1,2,-1
 324 876 l 1,3,-1
 324 0 l 1,4,-1
 139 0 l 1,5,-1
 139 1165 l 1,6,-1
 324 1165 l 1,7,-1
 928 289 l 1,8,-1
 928 1165 l 1,9,-1
 1113 1165 l 1,0,-1
EndSplineSet
EndChar

StartChar: N.unic
Encoding: 65635 -1 168
Width: 1461
GlyphClass: 2
Flags: W
AnchorPoint: "Anchor-1" 720 10 basechar 0
AnchorPoint: "Anchor-0" 726 1632 basechar 0
LayerCount: 2
Fore
SplineSet
770 1312 m 0,0,1
 625 1312 625 1312 516.5 1227.5 c 128,-1,2
 408 1143 408 1143 362 1016 c 1,3,-1
 362 0 l 1,4,-1
 169 0 l 1,5,-1
 169 1456 l 1,6,-1
 352 1456 l 1,7,-1
 361 1251 l 1,8,9
 437 1355 437 1355 557.5 1415.5 c 128,-1,10
 678 1476 678 1476 825 1476 c 0,11,12
 1040 1476 1040 1476 1164 1358.5 c 128,-1,13
 1288 1241 1288 1241 1288 964 c 2,14,-1
 1288 0 l 1,15,-1
 1096 0 l 1,16,-1
 1096 966 l 2,17,18
 1096 1151 1096 1151 1011 1231.5 c 128,-1,19
 926 1312 926 1312 770 1312 c 0,0,1
EndSplineSet
EndChar

StartChar: NameMe.65564
Encoding: 65638 -1 172
Width: 536
GlyphClass: 1
Flags: W
LayerCount: 2
Fore
SplineSet
153 1247 m 1,0,-1
 322 1247 l 1,1,-1
 322 421 l 2,2,3
 322 280 322 280 374 231 c 128,-1,4
 426 182 426 182 531 182 c 2,5,-1
 556 182 l 1,6,-1
 556 0 l 1,7,-1
 531 0 l 2,8,9
 340 0 340 0 246.5 101 c 128,-1,10
 153 202 153 202 153 421 c 2,11,-1
 153 1247 l 1,0,-1
EndSplineSet
EndChar

StartChar: NameMe.65565
Encoding: 65639 -1 173
Width: 720
GlyphClass: 1
Flags: W
LayerCount: 2
Fore
SplineSet
525 216 m 0,0,1
 540 216 540 216 567.5 213 c 128,-1,2
 595 210 595 210 622 199 c 1,3,-1
 604 109 l 1,4,5
 562 121 562 121 525 121 c 0,6,7
 456 121 456 121 414.5 78.5 c 128,-1,8
 373 36 373 36 373 -11 c 0,9,10
 373 -36 373 -36 381.5 -45 c 128,-1,11
 390 -54 390 -54 416 -54 c 2,12,-1
 510 -54 l 2,13,14
 567 -54 567 -54 596 -83 c 128,-1,15
 625 -112 625 -112 625 -157 c 0,16,17
 625 -284 625 -284 528.5 -352.5 c 128,-1,18
 432 -421 432 -421 277 -421 c 0,19,20
 223 -421 223 -421 177.5 -411.5 c 128,-1,21
 132 -402 132 -402 94 -386 c 1,22,-1
 137 -297 l 1,23,24
 166 -310 166 -310 200 -318 c 128,-1,25
 234 -326 234 -326 279 -326 c 0,26,27
 341 -326 341 -326 400 -308.5 c 128,-1,28
 459 -291 459 -291 497.5 -258 c 128,-1,29
 536 -225 536 -225 536 -178 c 0,30,31
 536 -161 536 -161 519 -155.5 c 128,-1,32
 502 -150 502 -150 485 -150 c 2,33,-1
 410 -150 l 2,34,35
 279 -150 279 -150 279 -19 c 0,36,37
 279 53 279 53 314 105.5 c 128,-1,38
 349 158 349 158 405 187 c 128,-1,39
 461 216 461 216 525 216 c 0,0,1
EndSplineSet
EndChar

StartChar: NameMe.65583
Encoding: 65641 -1 175
Width: 471
GlyphClass: 1
Flags: W
LayerCount: 2
Fore
SplineSet
-46 1333 m 1,0,-1
 -28 1416 l 1,1,2
 -15 1405 -15 1405 6.5 1388 c 128,-1,3
 28 1371 28 1371 46 1364 c 1,4,5
 127 1501 127 1501 192.5 1560.5 c 128,-1,6
 258 1620 258 1620 337 1620 c 0,7,8
 417 1620 417 1620 468 1570 c 128,-1,9
 519 1520 519 1520 519 1445 c 0,10,11
 519 1345 519 1345 449 1305 c 128,-1,12
 379 1265 379 1265 207 1265 c 2,13,-1
 182 1265 l 2,14,15
 92 1265 92 1265 34 1281.5 c 128,-1,16
 -24 1298 -24 1298 -46 1333 c 1,0,-1
205 1351 m 2,17,18
 334 1351 334 1351 384.5 1368.5 c 128,-1,19
 435 1386 435 1386 435 1441 c 0,20,21
 435 1480 435 1480 409.5 1506 c 128,-1,22
 384 1532 384 1532 342 1532 c 0,23,24
 287 1532 287 1532 243 1491 c 128,-1,25
 199 1450 199 1450 135 1351 c 1,26,-1
 205 1351 l 2,17,18
EndSplineSet
EndChar

StartChar: NameMe.65703
Encoding: 65642 -1 176
Width: 475
GlyphClass: 1
Flags: W
LayerCount: 2
Fore
SplineSet
322 1247 m 1,0,-1
 322 1 l 1,1,-1
 153 1 l 1,2,-1
 153 1247 l 1,3,-1
 322 1247 l 1,0,-1
EndSplineSet
EndChar

StartChar: O
Encoding: 79 79 186
Width: 1409
VWidth: 1798
GlyphClass: 2
Flags: W
AnchorPoint: "Anchor-1" 707 -250 basechar 0
AnchorPoint: "Anchor-0" 707 1353 basechar 0
LayerCount: 2
Fore
SplineSet
1290 524 m 2,0,-1
 1290 432 l 2,1,2
 1290 214 1290 214 1217.5 56.5 c 128,-1,3
 1145 -101 1145 -101 1014 -185.5 c 128,-1,4
 883 -270 883 -270 706 -270 c 0,5,6
 534 -270 534 -270 401.5 -185.5 c 128,-1,7
 269 -101 269 -101 194 56.5 c 128,-1,8
 119 214 119 214 119 432 c 2,9,-1
 119 524 l 2,10,11
 119 742 119 742 193.5 899.5 c 128,-1,12
 268 1057 268 1057 400 1141.5 c 128,-1,13
 532 1226 532 1226 704 1226 c 0,14,15
 881 1226 881 1226 1013 1141.5 c 128,-1,16
 1145 1057 1145 1057 1217.5 899.5 c 128,-1,17
 1290 742 1290 742 1290 524 c 2,0,-1
1099 432 m 2,18,-1
 1099 526 l 2,19,20
 1099 786 1099 786 995 924 c 128,-1,21
 891 1062 891 1062 704 1062 c 0,22,23
 525 1062 525 1062 417.5 924 c 128,-1,24
 310 786 310 786 310 526 c 2,25,-1
 310 432 l 2,26,27
 310 170 310 170 418.5 31.5 c 128,-1,28
 527 -107 527 -107 706 -107 c 0,29,30
 894 -107 894 -107 996.5 31.5 c 128,-1,31
 1099 170 1099 170 1099 432 c 2,18,-1
EndSplineSet
Substitution2: "'c2sc' Capitals to Small Capitals lookup 0 subtable" O.smcp
Position2: "'cpsp' Capital Spacing lookup 0 subtable" dx=36 dy=0 dh=72 dv=0
EndChar

StartChar: O.smcp
Encoding: 65649 -1 187
Width: 1212
GlyphClass: 2
Flags: W
AnchorPoint: "Anchor-1" 631 0 basechar 0
AnchorPoint: "Anchor-0" 606 1320 basechar 0
LayerCount: 2
Fore
SplineSet
1115 615 m 2,0,-1
 1115 549 l 2,1,2
 1115 373 1115 373 1052 246.5 c 128,-1,3
 989 120 989 120 875 52 c 128,-1,4
 761 -16 761 -16 607 -16 c 0,5,6
 457 -16 457 -16 341.5 52 c 128,-1,7
 226 120 226 120 161 246.5 c 128,-1,8
 96 373 96 373 96 549 c 2,9,-1
 96 615 l 2,10,11
 96 791 96 791 160.5 918 c 128,-1,12
 225 1045 225 1045 340 1113 c 128,-1,13
 455 1181 455 1181 605 1181 c 0,14,15
 759 1181 759 1181 873.5 1113 c 128,-1,16
 988 1045 988 1045 1051.5 918 c 128,-1,17
 1115 791 1115 791 1115 615 c 2,0,-1
932 549 m 2,18,-1
 932 617 l 2,19,20
 932 814 932 814 846 920 c 128,-1,21
 760 1026 760 1026 605 1026 c 0,22,23
 457 1026 457 1026 368.5 920 c 128,-1,24
 280 814 280 814 280 617 c 2,25,-1
 280 549 l 2,26,27
 280 351 280 351 369.5 244.5 c 128,-1,28
 459 138 459 138 607 138 c 0,29,30
 762 138 762 138 847 244.5 c 128,-1,31
 932 351 932 351 932 549 c 2,18,-1
EndSplineSet
EndChar

StartChar: OE
Encoding: 338 338 188
Width: 1953
VWidth: 1798
GlyphClass: 2
Flags: W
AnchorPoint: "Anchor-1" 953 -250 basechar 0
AnchorPoint: "Anchor-0" 953 1353 basechar 0
LayerCount: 2
Fore
SplineSet
660 1227 m 0,0,1
 737 1227 737 1227 812 1220.5 c 128,-1,2
 887 1214 887 1214 954 1206 c 1,3,-1
 1791 1206 l 1,4,-1
 1791 1048 l 1,5,-1
 1069 1048 l 1,6,-1
 1069 580 l 1,7,-1
 1699 580 l 1,8,-1
 1699 423 l 1,9,-1
 1069 423 l 1,10,-1
 1069 -93 l 1,11,-1
 1801 -93 l 1,12,-1
 1801 -250 l 1,13,-1
 954 -250 l 1,14,15
 887 -257 887 -257 813 -264 c 128,-1,16
 739 -271 739 -271 662 -271 c 0,17,18
 496 -271 496 -271 371 -195.5 c 128,-1,19
 246 -120 246 -120 175.5 15 c 128,-1,20
 105 150 105 150 105 326 c 2,21,-1
 105 630 l 2,22,23
 105 807 105 807 175 941.5 c 128,-1,24
 245 1076 245 1076 369.5 1151.5 c 128,-1,25
 494 1227 494 1227 660 1227 c 0,0,1
290 326 m 2,26,27
 290 108 290 108 391 -5.5 c 128,-1,28
 492 -119 492 -119 662 -119 c 0,29,30
 718 -119 718 -119 772 -115 c 128,-1,31
 826 -111 826 -111 876 -104 c 1,32,-1
 876 1060 l 1,33,34
 825 1067 825 1067 770.5 1071 c 128,-1,35
 716 1075 716 1075 660 1075 c 0,36,37
 490 1075 490 1075 390 962.5 c 128,-1,38
 290 850 290 850 290 632 c 2,39,-1
 290 326 l 2,26,27
EndSplineSet
Substitution2: "'c2sc' Capitals to Small Capitals lookup 0 subtable" OE.smcp
Position2: "'cpsp' Capital Spacing lookup 0 subtable" dx=36 dy=0 dh=72 dv=0
EndChar

StartChar: OE.smcp
Encoding: 65650 -1 189
Width: 1700
GlyphClass: 2
Flags: W
LayerCount: 2
Fore
SplineSet
1010 1165 m 2,0,-1
 1639 1165 l 1,1,-1
 1639 1012 l 1,2,-1
 1026 1012 l 1,3,-1
 1026 678 l 1,4,-1
 1558 678 l 1,5,-1
 1558 527 l 1,6,-1
 1026 527 l 1,7,-1
 1026 152 l 1,8,-1
 1645 152 l 1,9,-1
 1645 0 l 1,10,-1
 1014 0 l 2,11,12
 892 0 892 0 785.5 -8 c 128,-1,13
 679 -16 679 -16 607 -16 c 0,14,15
 457 -16 457 -16 341.5 52 c 128,-1,16
 226 120 226 120 161 246.5 c 128,-1,17
 96 373 96 373 96 549 c 2,18,-1
 96 615 l 2,19,20
 96 791 96 791 160.5 918 c 128,-1,21
 225 1045 225 1045 340 1113 c 128,-1,22
 455 1181 455 1181 605 1181 c 0,23,24
 676 1181 676 1181 784.5 1173 c 128,-1,25
 893 1165 893 1165 1010 1165 c 2,0,-1
280 549 m 2,26,27
 280 351 280 351 369.5 244.5 c 128,-1,28
 459 138 459 138 607 138 c 0,29,30
 641 138 641 138 708 140.5 c 128,-1,31
 775 143 775 143 841 146 c 1,32,-1
 841 1016 l 1,33,34
 774 1019 774 1019 706 1022.5 c 128,-1,35
 638 1026 638 1026 605 1026 c 0,36,37
 457 1026 457 1026 368.5 920 c 128,-1,38
 280 814 280 814 280 617 c 2,39,-1
 280 549 l 2,26,27
EndSplineSet
EndChar

StartChar: Ohorn
Encoding: 416 416 200
Width: 1407
VWidth: 1798
GlyphClass: 2
Flags: W
AnchorPoint: "Anchor-1" 692 -250 basechar 0
AnchorPoint: "Anchor-0" 703 1345 basechar 0
LayerCount: 2
Fore
SplineSet
1273 524 m 2,0,-1
 1273 432 l 2,1,2
 1273 214 1273 214 1201 56.5 c 128,-1,3
 1129 -101 1129 -101 998 -185.5 c 128,-1,4
 867 -270 867 -270 689 -270 c 0,5,6
 517 -270 517 -270 384.5 -185.5 c 128,-1,7
 252 -101 252 -101 177 56.5 c 128,-1,8
 102 214 102 214 102 432 c 2,9,-1
 102 524 l 2,10,11
 102 742 102 742 176.5 899.5 c 128,-1,12
 251 1057 251 1057 383 1141.5 c 128,-1,13
 515 1226 515 1226 687 1226 c 0,14,15
 928 1226 928 1226 1082 1072 c 1,16,17
 1186 1080 1186 1080 1228 1150.5 c 128,-1,18
 1270 1221 1270 1221 1270 1342 c 1,19,-1
 1437 1342 l 1,20,21
 1437 1181 1437 1181 1371.5 1080 c 128,-1,22
 1306 979 1306 979 1175 949 c 1,23,24
 1223 864 1223 864 1248 757.5 c 128,-1,25
 1273 651 1273 651 1273 524 c 2,0,-1
1082 432 m 2,26,-1
 1082 526 l 2,27,28
 1082 786 1082 786 978 924 c 128,-1,29
 874 1062 874 1062 687 1062 c 0,30,31
 509 1062 509 1062 401 924 c 128,-1,32
 293 786 293 786 293 526 c 2,33,-1
 293 432 l 2,34,35
 293 170 293 170 402 31.5 c 128,-1,36
 511 -107 511 -107 689 -107 c 0,37,38
 877 -107 877 -107 979.5 31.5 c 128,-1,39
 1082 170 1082 170 1082 432 c 2,26,-1
EndSplineSet
EndChar

StartChar: Omega
Encoding: 8486 8486 205
Width: 1362
GlyphClass: 2
Flags: W
AnchorPoint: "Anchor-1" 679 10 basechar 0
LayerCount: 2
Fore
SplineSet
118 0 m 1,0,-1
 118 157 l 1,1,-1
 341 157 l 1,2,3
 236 258 236 258 175 410 c 128,-1,4
 114 562 114 562 114 726 c 2,5,-1
 114 840 l 2,6,7
 114 1029 114 1029 184 1172.5 c 128,-1,8
 254 1316 254 1316 379 1396 c 128,-1,9
 504 1476 504 1476 669 1476 c 0,10,11
 835 1476 835 1476 961 1396 c 128,-1,12
 1087 1316 1087 1316 1157.5 1172.5 c 128,-1,13
 1228 1029 1228 1029 1228 840 c 2,14,-1
 1228 726 l 2,15,16
 1228 562 1228 562 1167 410 c 128,-1,17
 1106 258 1106 258 1002 157 c 1,18,-1
 1221 157 l 1,19,-1
 1221 0 l 1,20,-1
 738 0 l 1,21,-1
 738 163 l 1,22,23
 871 190 871 190 952 330.5 c 128,-1,24
 1033 471 1033 471 1033 726 c 2,25,-1
 1033 842 l 2,26,27
 1033 1075 1033 1075 935 1197 c 128,-1,28
 837 1319 837 1319 669 1319 c 0,29,30
 503 1319 503 1319 406 1197 c 128,-1,31
 309 1075 309 1075 309 842 c 2,32,-1
 309 726 l 2,33,34
 309 470 309 470 392.5 329.5 c 128,-1,35
 476 189 476 189 610 163 c 1,36,-1
 610 0 l 1,37,-1
 118 0 l 1,0,-1
EndSplineSet
Substitution2: "'c2sc' Capitals to Small Capitals lookup 0 subtable" Omega.smcp
Position2: "'cpsp' Capital Spacing lookup 0 subtable" dx=36 dy=0 dh=72 dv=0
EndChar

StartChar: Omega.smcp
Encoding: 65658 -1 206
Width: 1267
GlyphClass: 2
Flags: W
AnchorPoint: "Anchor-1" 637 10 basechar 0
LayerCount: 2
Fore
SplineSet
122 0 m 1,0,-1
 122 152 l 1,1,-1
 296 152 l 1,2,3
 118 310 118 310 118 616 c 2,4,-1
 118 652 l 2,5,6
 118 801 118 801 178 921 c 128,-1,7
 238 1041 238 1041 353 1111 c 128,-1,8
 468 1181 468 1181 632 1181 c 0,9,10
 797 1181 797 1181 912 1111 c 128,-1,11
 1027 1041 1027 1041 1087 921 c 128,-1,12
 1147 801 1147 801 1147 652 c 2,13,-1
 1147 616 l 2,14,15
 1147 309 1147 309 970 152 c 1,16,-1
 1150 152 l 1,17,-1
 1150 0 l 1,18,-1
 700 0 l 1,19,-1
 700 157 l 1,20,21
 836 189 836 189 899 300 c 128,-1,22
 962 411 962 411 962 616 c 2,23,-1
 962 654 l 2,24,25
 962 818 962 818 882.5 922 c 128,-1,26
 803 1026 803 1026 632 1026 c 0,27,28
 462 1026 462 1026 382.5 922 c 128,-1,29
 303 818 303 818 303 654 c 2,30,-1
 303 616 l 2,31,32
 303 412 303 412 374 300.5 c 128,-1,33
 445 189 445 189 571 157 c 1,34,-1
 571 0 l 1,35,-1
 122 0 l 1,0,-1
EndSplineSet
EndChar

StartChar: Oslash
Encoding: 216 216 207
Width: 1409
VWidth: 1798
GlyphClass: 2
Flags: W
AnchorPoint: "Anchor-0" 715 1424 basechar 0
LayerCount: 2
Fore
SplineSet
1290 524 m 2,0,-1
 1290 432 l 2,1,2
 1290 214 1290 214 1217.5 56.5 c 128,-1,3
 1145 -101 1145 -101 1014 -185.5 c 128,-1,4
 883 -270 883 -270 706 -270 c 0,5,6
 536 -270 536 -270 404 -187 c 1,7,-1
 307 -343 l 1,8,-1
 164 -343 l 1,9,-1
 309 -111 l 1,10,11
 219 -20 219 -20 169 117.5 c 128,-1,12
 119 255 119 255 119 432 c 2,13,-1
 119 524 l 2,14,15
 119 742 119 742 193.5 899.5 c 128,-1,16
 268 1057 268 1057 400 1141.5 c 128,-1,17
 532 1226 532 1226 704 1226 c 0,18,19
 919 1226 919 1226 1066 1102 c 1,20,-1
 1169 1266 l 1,21,-1
 1309 1266 l 1,22,-1
 1151 1012 l 1,23,24
 1218 922 1218 922 1254 799 c 128,-1,25
 1290 676 1290 676 1290 524 c 2,0,-1
310 432 m 2,26,27
 310 308 310 308 335.5 211.5 c 128,-1,28
 361 115 361 115 407 47 c 1,29,-1
 972 951 l 1,30,31
 872 1062 872 1062 704 1062 c 0,32,33
 525 1062 525 1062 417.5 924 c 128,-1,34
 310 786 310 786 310 526 c 2,35,-1
 310 432 l 2,26,27
1099 432 m 2,36,-1
 1099 526 l 2,37,38
 1099 713 1099 713 1043 839 c 1,39,-1
 494 -43 l 1,40,41
 584 -107 584 -107 706 -107 c 0,42,43
 894 -107 894 -107 996.5 31.5 c 128,-1,44
 1099 170 1099 170 1099 432 c 2,36,-1
EndSplineSet
Substitution2: "'c2sc' Capitals to Small Capitals lookup 0 subtable" Oslash.smcp
Position2: "'cpsp' Capital Spacing lookup 0 subtable" dx=36 dy=0 dh=72 dv=0
EndChar

StartChar: Oslash.smcp
Encoding: 65659 -1 208
Width: 1212
GlyphClass: 2
Flags: W
AnchorPoint: "Anchor-1" 631 0 basechar 0
AnchorPoint: "Anchor-0" 606 1320 basechar 0
LayerCount: 2
Fore
SplineSet
1115 615 m 2,0,-1
 1115 549 l 2,1,2
 1115 373 1115 373 1052 246.5 c 128,-1,3
 989 120 989 120 875 52 c 128,-1,4
 761 -16 761 -16 607 -16 c 0,5,6
 454 -16 454 -16 337 54 c 1,7,-1
 262 -58 l 1,8,-1
 112 -58 l 1,9,-1
 240 133 l 1,10,11
 172 206 172 206 134 311 c 128,-1,12
 96 416 96 416 96 549 c 2,13,-1
 96 615 l 2,14,15
 96 791 96 791 160.5 918 c 128,-1,16
 225 1045 225 1045 340 1113 c 128,-1,17
 455 1181 455 1181 605 1181 c 0,18,19
 769 1181 769 1181 889 1103 c 1,20,-1
 958 1207 l 1,21,-1
 1107 1207 l 1,22,-1
 983 1021 l 1,23,24
 1046 949 1046 949 1080.5 846 c 128,-1,25
 1115 743 1115 743 1115 615 c 2,0,-1
280 549 m 2,26,27
 280 389 280 389 341 285 c 1,28,-1
 798 967 l 1,29,30
 720 1026 720 1026 605 1026 c 0,31,32
 457 1026 457 1026 368.5 920 c 128,-1,33
 280 814 280 814 280 617 c 2,34,-1
 280 549 l 2,26,27
932 549 m 2,35,-1
 932 617 l 2,36,37
 932 768 932 768 880 867 c 1,38,-1
 428 190 l 1,39,40
 503 138 503 138 607 138 c 0,41,42
 762 138 762 138 847 244.5 c 128,-1,43
 932 351 932 351 932 549 c 2,35,-1
EndSplineSet
EndChar

StartChar: P
Encoding: 80 80 213
Width: 1292
VWidth: 1798
GlyphClass: 2
Flags: W
AnchorPoint: "Anchor-1" 613 -240 basechar 0
AnchorPoint: "Anchor-0" 606 1362 basechar 0
LayerCount: 2
Fore
SplineSet
706 321 m 2,0,-1
 362 321 l 1,1,-1
 362 -250 l 1,2,-1
 169 -250 l 1,3,-1
 169 1206 l 1,4,-1
 706 1206 l 2,5,6
 871 1206 871 1206 985 1149 c 128,-1,7
 1099 1092 1099 1092 1158 991.5 c 128,-1,8
 1217 891 1217 891 1217 762 c 0,9,10
 1217 551 1217 551 1085.5 436 c 128,-1,11
 954 321 954 321 706 321 c 2,0,-1
706 1048 m 2,12,-1
 362 1048 l 1,13,-1
 362 478 l 1,14,-1
 706 478 l 2,15,16
 876 478 876 478 950 557 c 128,-1,17
 1024 636 1024 636 1024 760 c 0,18,19
 1024 835 1024 835 991.5 901 c 128,-1,20
 959 967 959 967 889 1007.5 c 128,-1,21
 819 1048 819 1048 706 1048 c 2,12,-1
EndSplineSet
Substitution2: "'c2sc' Capitals to Small Capitals lookup 0 subtable" P.smcp
Position2: "'cpsp' Capital Spacing lookup 0 subtable" dx=36 dy=0 dh=72 dv=0
EndChar

StartChar: P.smcp
Encoding: 65662 -1 214
Width: 1117
GlyphClass: 2
Flags: W
AnchorPoint: "Anchor-1" 574 0 basechar 0
AnchorPoint: "Anchor-0" 576 1320 basechar 0
LayerCount: 2
Fore
SplineSet
606 438 m 2,0,-1
 324 438 l 1,1,-1
 324 0 l 1,2,-1
 139 0 l 1,3,-1
 139 1165 l 1,4,-1
 606 1165 l 2,5,6
 821 1165 821 1165 936 1061.5 c 128,-1,7
 1051 958 1051 958 1051 798 c 0,8,9
 1051 630 1051 630 936 534 c 128,-1,10
 821 438 821 438 606 438 c 2,0,-1
606 1012 m 2,11,-1
 324 1012 l 1,12,-1
 324 591 l 1,13,-1
 606 591 l 2,14,15
 743 591 743 591 804.5 648.5 c 128,-1,16
 866 706 866 706 866 796 c 0,17,18
 866 881 866 881 804.5 946.5 c 128,-1,19
 743 1012 743 1012 606 1012 c 2,11,-1
EndSplineSet
EndChar

StartChar: Q
Encoding: 81 81 215
Width: 1409
VWidth: 1798
GlyphClass: 2
Flags: W
AnchorPoint: "Anchor-1" 698 -260 basechar 0
AnchorPoint: "Anchor-0" 700 1350 basechar 0
LayerCount: 2
Fore
SplineSet
1281 524 m 2,0,-1
 1281 432 l 2,1,2
 1281 222 1281 222 1214 68.5 c 128,-1,3
 1147 -85 1147 -85 1027 -171 c 1,4,-1
 1286 -376 l 1,5,-1
 1156 -496 l 1,6,-1
 849 -252 l 1,7,8
 777 -270 777 -270 697 -270 c 0,9,10
 525 -270 525 -270 392.5 -185.5 c 128,-1,11
 260 -101 260 -101 185 56.5 c 128,-1,12
 110 214 110 214 110 432 c 2,13,-1
 110 524 l 2,14,15
 110 742 110 742 184.5 899.5 c 128,-1,16
 259 1057 259 1057 391 1141.5 c 128,-1,17
 523 1226 523 1226 695 1226 c 0,18,19
 873 1226 873 1226 1004.5 1141.5 c 128,-1,20
 1136 1057 1136 1057 1208.5 899.5 c 128,-1,21
 1281 742 1281 742 1281 524 c 2,0,-1
1090 432 m 2,22,-1
 1090 526 l 2,23,24
 1090 786 1090 786 986.5 924 c 128,-1,25
 883 1062 883 1062 695 1062 c 0,26,27
 517 1062 517 1062 409 924 c 128,-1,28
 301 786 301 786 301 526 c 2,29,-1
 301 432 l 2,30,31
 301 170 301 170 410 31.5 c 128,-1,32
 519 -107 519 -107 697 -107 c 0,33,34
 885 -107 885 -107 987.5 31.5 c 128,-1,35
 1090 170 1090 170 1090 432 c 2,22,-1
EndSplineSet
Substitution2: "'c2sc' Capitals to Small Capitals lookup 0 subtable" Q.smcp
Position2: "'cpsp' Capital Spacing lookup 0 subtable" dx=36 dy=0 dh=72 dv=0
EndChar

StartChar: Q.smcp
Encoding: 65663 -1 216
Width: 1212
GlyphClass: 2
Flags: W
AnchorPoint: "Anchor-1" 599 -10 basechar 0
AnchorPoint: "Anchor-0" 599 1320 basechar 0
LayerCount: 2
Fore
SplineSet
1110 615 m 2,0,-1
 1110 549 l 2,1,2
 1110 383 1110 383 1053.5 261 c 128,-1,3
 997 139 997 139 896 69 c 1,4,-1
 1112 -92 l 1,5,-1
 987 -202 l 1,6,-1
 726 -3 l 1,7,8
 667 -16 667 -16 601 -16 c 0,9,10
 451 -16 451 -16 335.5 52 c 128,-1,11
 220 120 220 120 155 246.5 c 128,-1,12
 90 373 90 373 90 549 c 2,13,-1
 90 615 l 2,14,15
 90 791 90 791 154.5 918 c 128,-1,16
 219 1045 219 1045 334 1113 c 128,-1,17
 449 1181 449 1181 599 1181 c 0,18,19
 753 1181 753 1181 868 1113 c 128,-1,20
 983 1045 983 1045 1046.5 918 c 128,-1,21
 1110 791 1110 791 1110 615 c 2,0,-1
926 549 m 2,22,-1
 926 617 l 2,23,24
 926 814 926 814 840 920 c 128,-1,25
 754 1026 754 1026 599 1026 c 0,26,27
 450 1026 450 1026 362 920 c 128,-1,28
 274 814 274 814 274 617 c 2,29,-1
 274 549 l 2,30,31
 274 351 274 351 363 244.5 c 128,-1,32
 452 138 452 138 601 138 c 0,33,34
 756 138 756 138 841 244.5 c 128,-1,35
 926 351 926 351 926 549 c 2,22,-1
EndSplineSet
EndChar

StartChar: R
Encoding: 82 82 217
Width: 1262
VWidth: 1798
GlyphClass: 2
Flags: W
AnchorPoint: "Anchor-1" 611 -240 basechar 0
AnchorPoint: "Anchor-0" 610 1351 basechar 0
LayerCount: 2
Fore
SplineSet
1020 -250 m 1,0,-1
 704 340 l 1,1,-1
 362 340 l 1,2,-1
 362 -250 l 1,3,-1
 169 -250 l 1,4,-1
 169 1206 l 1,5,-1
 651 1206 l 2,6,7
 896 1206 896 1206 1028.5 1094 c 128,-1,8
 1161 982 1161 982 1161 769 c 0,9,10
 1161 633 1161 633 1087.5 531.5 c 128,-1,11
 1014 430 1014 430 884 380 c 1,12,-1
 1226 -238 l 1,13,-1
 1226 -250 l 1,14,-1
 1020 -250 l 1,0,-1
651 1048 m 2,15,-1
 362 1048 l 1,16,-1
 362 497 l 1,17,-1
 657 497 l 2,18,19
 812 497 812 497 890.5 576.5 c 128,-1,20
 969 656 969 656 969 769 c 0,21,22
 969 895 969 895 893.5 971.5 c 128,-1,23
 818 1048 818 1048 651 1048 c 2,15,-1
EndSplineSet
Substitution2: "'c2sc' Capitals to Small Capitals lookup 0 subtable" R.smcp
Position2: "'cpsp' Capital Spacing lookup 0 subtable" dx=36 dy=0 dh=72 dv=0
EndChar

StartChar: R.smcp
Encoding: 65664 -1 218
Width: 1098
GlyphClass: 2
Flags: W
AnchorPoint: "Anchor-1" 525 8 basechar 0
AnchorPoint: "Anchor-0" 520 1320 basechar 0
LayerCount: 2
Fore
SplineSet
863 0 m 1,0,-1
 603 449 l 1,1,-1
 324 449 l 1,2,-1
 324 0 l 1,3,-1
 138 0 l 1,4,-1
 138 1165 l 1,5,-1
 564 1165 l 2,6,7
 776 1165 776 1165 892.5 1073 c 128,-1,8
 1009 981 1009 981 1009 810 c 0,9,10
 1009 693 1009 693 946.5 613.5 c 128,-1,11
 884 534 884 534 774 493 c 1,12,-1
 1062 10 l 1,13,-1
 1062 0 l 1,14,-1
 863 0 l 1,0,-1
564 1012 m 2,15,-1
 324 1012 l 1,16,-1
 324 601 l 1,17,-1
 569 601 l 2,18,19
 696 601 696 601 759.5 658.5 c 128,-1,20
 823 716 823 716 823 802 c 0,21,22
 823 896 823 896 761 954 c 128,-1,23
 699 1012 699 1012 564 1012 c 2,15,-1
EndSplineSet
EndChar

StartChar: S
Encoding: 83 83 225
Width: 1216
VWidth: 1798
GlyphClass: 2
Flags: W
AnchorPoint: "Anchor-1" 628 -251 basechar 0
AnchorPoint: "Anchor-0" 622 1353 basechar 0
LayerCount: 2
Fore
SplineSet
945 118 m 0,0,1
 945 186 945 186 916 234 c 128,-1,2
 887 282 887 282 812 321 c 128,-1,3
 737 360 737 360 599 400 c 0,4,5
 383 463 383 463 255 562 c 128,-1,6
 127 661 127 661 127 830 c 0,7,8
 127 943 127 943 188.5 1032.5 c 128,-1,9
 250 1122 250 1122 361.5 1174 c 128,-1,10
 473 1226 473 1226 622 1226 c 0,11,12
 786 1226 786 1226 900.5 1163.5 c 128,-1,13
 1015 1101 1015 1101 1075 1000.5 c 128,-1,14
 1135 900 1135 900 1135 786 c 1,15,-1
 943 786 l 1,16,17
 943 908 943 908 864 988 c 128,-1,18
 785 1068 785 1068 622 1068 c 0,19,20
 468 1068 468 1068 394 1000.5 c 128,-1,21
 320 933 320 933 320 832 c 0,22,23
 320 741 320 741 400.5 679.5 c 128,-1,24
 481 618 481 618 661 568 c 0,25,26
 909 498 909 498 1024 394 c 128,-1,27
 1139 290 1139 290 1139 120 c 0,28,29
 1139 2 1139 2 1076 -86 c 128,-1,30
 1013 -174 1013 -174 899 -222 c 128,-1,31
 785 -270 785 -270 631 -270 c 0,32,33
 530 -270 530 -270 432.5 -242 c 128,-1,34
 335 -214 335 -214 255.5 -158 c 128,-1,35
 176 -102 176 -102 128.5 -19.5 c 128,-1,36
 81 63 81 63 81 172 c 1,37,-1
 273 172 l 1,38,39
 273 73 273 73 323.5 10 c 128,-1,40
 374 -53 374 -53 456 -83 c 128,-1,41
 538 -113 538 -113 631 -113 c 0,42,43
 782 -113 782 -113 863.5 -50.5 c 128,-1,44
 945 12 945 12 945 118 c 0,0,1
EndSplineSet
Substitution2: "'c2sc' Capitals to Small Capitals lookup 0 subtable" S.smcp
Position2: "'cpsp' Capital Spacing lookup 0 subtable" dx=36 dy=0 dh=72 dv=0
EndChar

StartChar: S.smcp
Encoding: 65668 -1 226
Width: 1056
GlyphClass: 2
Flags: W
AnchorPoint: "Anchor-1" 552 0 basechar 0
AnchorPoint: "Anchor-0" 543 1320 basechar 0
LayerCount: 2
Fore
SplineSet
803 298 m 0,0,1
 803 347 803 347 780 383.5 c 128,-1,2
 757 420 757 420 698.5 449 c 128,-1,3
 640 478 640 478 531 504 c 0,4,5
 338 551 338 551 223 633.5 c 128,-1,6
 108 716 108 716 108 861 c 0,7,8
 108 955 108 955 162 1027 c 128,-1,9
 216 1099 216 1099 314 1140 c 128,-1,10
 412 1181 412 1181 542 1181 c 0,11,12
 682 1181 682 1181 781.5 1132.5 c 128,-1,13
 881 1084 881 1084 934 1003.5 c 128,-1,14
 987 923 987 923 987 826 c 1,15,-1
 801 826 l 1,16,17
 801 915 801 915 737 972.5 c 128,-1,18
 673 1030 673 1030 540 1030 c 0,19,20
 415 1030 415 1030 354 981.5 c 128,-1,21
 293 933 293 933 293 862 c 0,22,23
 293 794 293 794 360 749.5 c 128,-1,24
 427 705 427 705 587 664 c 0,25,26
 781 615 781 615 885.5 529.5 c 128,-1,27
 990 444 990 444 990 300 c 0,28,29
 990 154 990 154 868.5 69 c 128,-1,30
 747 -16 747 -16 548 -16 c 0,31,32
 430 -16 430 -16 320 24 c 128,-1,33
 210 64 210 64 139 145 c 128,-1,34
 68 226 68 226 68 349 c 1,35,-1
 254 349 l 1,36,37
 254 272 254 272 294 224.5 c 128,-1,38
 334 177 334 177 401 155.5 c 128,-1,39
 468 134 468 134 548 134 c 0,40,41
 673 134 673 134 738 179.5 c 128,-1,42
 803 225 803 225 803 298 c 0,0,1
EndSplineSet
EndChar

StartChar: Schwa
Encoding: 399 399 233
Width: 1415
VWidth: 1798
GlyphClass: 2
Flags: W
AnchorPoint: "Anchor-1" 696 -250 basechar 0
AnchorPoint: "Anchor-0" 661 1353 basechar 0
LayerCount: 2
Fore
SplineSet
697 -270 m 0,0,1
 400 -270 400 -270 247 -90.5 c 128,-1,2
 94 89 94 89 94 393 c 2,3,-1
 94 517 l 1,4,-1
 1106 517 l 1,5,-1
 1106 524 l 2,6,7
 1106 674 1106 674 1058.5 797 c 128,-1,8
 1011 920 1011 920 908.5 993 c 128,-1,9
 806 1066 806 1066 641 1066 c 0,10,11
 511 1066 511 1066 423 1038 c 128,-1,12
 335 1010 335 1010 276 982 c 1,13,-1
 229 1125 l 1,14,15
 265 1149 265 1149 366.5 1187.5 c 128,-1,16
 468 1226 468 1226 641 1226 c 0,17,18
 853 1226 853 1226 999.5 1136.5 c 128,-1,19
 1146 1047 1146 1047 1222 888.5 c 128,-1,20
 1298 730 1298 730 1298 524 c 2,21,-1
 1298 430 l 2,22,23
 1298 223 1298 223 1217.5 65.5 c 128,-1,24
 1137 -92 1137 -92 1000.5 -181 c 128,-1,25
 864 -270 864 -270 697 -270 c 0,0,1
697 -111 m 0,26,27
 818 -111 818 -111 906 -47.5 c 128,-1,28
 994 16 994 16 1044 124.5 c 128,-1,29
 1094 233 1094 233 1104 368 c 1,30,-1
 287 368 l 1,31,-1
 287 334 l 2,32,33
 287 210 287 210 326.5 109 c 128,-1,34
 366 8 366 8 456 -51.5 c 128,-1,35
 546 -111 546 -111 697 -111 c 0,26,27
EndSplineSet
EndChar

StartChar: T
Encoding: 84 84 237
Width: 1222
VWidth: 1798
GlyphClass: 2
Flags: W
AnchorPoint: "Anchor-1" 614 -250 basechar 0
AnchorPoint: "Anchor-0" 612 1350 basechar 0
LayerCount: 2
Fore
SplineSet
1175 1206 m 1,0,-1
 1175 1048 l 1,1,-1
 707 1048 l 1,2,-1
 707 -250 l 1,3,-1
 517 -250 l 1,4,-1
 517 1048 l 1,5,-1
 50 1048 l 1,6,-1
 50 1206 l 1,7,-1
 1175 1206 l 1,0,-1
EndSplineSet
Substitution2: "'c2sc' Capitals to Small Capitals lookup 0 subtable" T.smcp
Position2: "'cpsp' Capital Spacing lookup 0 subtable" dx=36 dy=0 dh=72 dv=0
EndChar

StartChar: T.smcp
Encoding: 65674 -1 238
Width: 1063
GlyphClass: 2
Flags: W
AnchorPoint: "Anchor-1" 531 3 basechar 0
AnchorPoint: "Anchor-0" 530 1320 basechar 0
LayerCount: 2
Fore
SplineSet
1021 1165 m 1,0,-1
 1021 1012 l 1,1,-1
 622 1012 l 1,2,-1
 622 0 l 1,3,-1
 438 0 l 1,4,-1
 438 1012 l 1,5,-1
 41 1012 l 1,6,-1
 41 1165 l 1,7,-1
 1021 1165 l 1,0,-1
EndSplineSet
EndChar

StartChar: Tbar
Encoding: 358 358 239
Width: 1222
VWidth: 1798
GlyphClass: 2
Flags: W
AnchorPoint: "Anchor-1" 614 -250 basechar 0
AnchorPoint: "Anchor-0" 612 1350 basechar 0
LayerCount: 2
Fore
SplineSet
939 724 m 1,0,-1
 939 572 l 1,1,-1
 707 572 l 1,2,-1
 707 -250 l 1,3,-1
 517 -250 l 1,4,-1
 517 572 l 1,5,-1
 302 572 l 1,6,-1
 302 724 l 1,7,-1
 517 724 l 1,8,-1
 517 1048 l 1,9,-1
 50 1048 l 1,10,-1
 50 1206 l 1,11,-1
 1175 1206 l 1,12,-1
 1175 1048 l 1,13,-1
 707 1048 l 1,14,-1
 707 724 l 1,15,-1
 939 724 l 1,0,-1
EndSplineSet
Substitution2: "'c2sc' Capitals to Small Capitals lookup 0 subtable" Tbar.smcp
Position2: "'cpsp' Capital Spacing lookup 0 subtable" dx=36 dy=0 dh=72 dv=0
EndChar

StartChar: Thorn
Encoding: 222 222 244
Width: 1210
VWidth: 1798
GlyphClass: 2
Flags: W
LayerCount: 2
Fore
SplineSet
167 1206 m 1,0,-1
 352 1206 l 1,1,-1
 352 913 l 1,2,-1
 630 913 l 2,3,4
 788 913 788 913 896.5 858 c 128,-1,5
 1005 803 1005 803 1061 707 c 128,-1,6
 1117 611 1117 611 1117 488 c 0,7,8
 1117 366 1117 366 1061 270 c 128,-1,9
 1005 174 1005 174 896.5 119 c 128,-1,10
 788 64 788 64 630 64 c 2,11,-1
 352 64 l 1,12,-1
 352 -250 l 1,13,-1
 167 -250 l 1,14,-1
 167 1206 l 1,0,-1
630 762 m 2,15,-1
 352 762 l 1,16,-1
 352 215 l 1,17,-1
 630 215 l 2,18,19
 738 215 738 215 804.5 254.5 c 128,-1,20
 871 294 871 294 901.5 356 c 128,-1,21
 932 418 932 418 932 486 c 0,22,23
 932 556 932 556 901.5 619 c 128,-1,24
 871 682 871 682 804.5 722 c 128,-1,25
 738 762 738 762 630 762 c 2,15,-1
EndSplineSet
Substitution2: "'c2sc' Capitals to Small Capitals lookup 0 subtable" Thorn.smcp
Position2: "'cpsp' Capital Spacing lookup 0 subtable" dx=36 dy=0 dh=72 dv=0
EndChar

StartChar: Thorn.smcp
Encoding: 65678 -1 245
Width: 1017
GlyphClass: 2
Flags: W
AnchorPoint: "Anchor-1" 450 10 basechar 0
AnchorPoint: "Anchor-0" 526 1320 basechar 0
LayerCount: 2
Fore
SplineSet
139 0 m 1,0,-1
 139 1165 l 1,1,-1
 324 1165 l 1,2,-1
 324 963 l 1,3,-1
 506 963 l 2,4,5
 721 963 721 963 836 859.5 c 128,-1,6
 951 756 951 756 951 596 c 0,7,8
 951 427 951 427 836 331.5 c 128,-1,9
 721 236 721 236 506 236 c 2,10,-1
 324 236 l 1,11,-1
 324 0 l 1,12,-1
 139 0 l 1,0,-1
506 810 m 2,13,-1
 324 810 l 1,14,-1
 324 389 l 1,15,-1
 506 389 l 2,16,17
 643 389 643 389 704.5 446.5 c 128,-1,18
 766 504 766 504 766 594 c 0,19,20
 766 679 766 679 704.5 744.5 c 128,-1,21
 643 810 643 810 506 810 c 2,13,-1
EndSplineSet
EndChar

StartChar: U
Encoding: 85 85 246
Width: 1328
VWidth: 1798
GlyphClass: 2
Flags: W
AnchorPoint: "Anchor-1" 666 -250 basechar 0
AnchorPoint: "Anchor-0" 667 1351 basechar 0
LayerCount: 2
Fore
SplineSet
1002 1206 m 1,0,-1
 1194 1206 l 1,1,-1
 1194 221 l 2,2,3
 1194 57 1194 57 1121 -52 c 128,-1,4
 1048 -161 1048 -161 927.5 -215.5 c 128,-1,5
 807 -270 807 -270 666 -270 c 0,6,7
 518 -270 518 -270 398.5 -215.5 c 128,-1,8
 279 -161 279 -161 209.5 -52 c 128,-1,9
 140 57 140 57 140 221 c 2,10,-1
 140 1206 l 1,11,-1
 331 1206 l 1,12,-1
 331 221 l 2,13,14
 331 50 331 50 423.5 -31.5 c 128,-1,15
 516 -113 516 -113 666 -113 c 0,16,17
 818 -113 818 -113 910 -31.5 c 128,-1,18
 1002 50 1002 50 1002 221 c 2,19,-1
 1002 1206 l 1,0,-1
EndSplineSet
Substitution2: "'unic' Unicase lookup 2 subtable" U.unic
Substitution2: "'c2sc' Capitals to Small Capitals lookup 0 subtable" U.smcp
Position2: "'cpsp' Capital Spacing lookup 0 subtable" dx=36 dy=0 dh=72 dv=0
EndChar

StartChar: U.smcp
Encoding: 65679 -1 247
Width: 1149
GlyphClass: 2
Flags: W
AnchorPoint: "Anchor-1" 574 0 basechar 0
AnchorPoint: "Anchor-0" 576 1320 basechar 0
LayerCount: 2
Fore
SplineSet
849 1165 m 1,0,-1
 1035 1165 l 1,1,-1
 1035 385 l 2,2,3
 1035 253 1035 253 972.5 163.5 c 128,-1,4
 910 74 910 74 805.5 29 c 128,-1,5
 701 -16 701 -16 575 -16 c 0,6,7
 444 -16 444 -16 340.5 29 c 128,-1,8
 237 74 237 74 177 163.5 c 128,-1,9
 117 253 117 253 117 385 c 2,10,-1
 117 1165 l 1,11,-1
 300 1165 l 1,12,-1
 300 385 l 2,13,14
 300 256 300 256 376 195.5 c 128,-1,15
 452 135 452 135 575 135 c 0,16,17
 700 135 700 135 774.5 195.5 c 128,-1,18
 849 256 849 256 849 385 c 2,19,-1
 849 1165 l 1,0,-1
EndSplineSet
EndChar

StartChar: U.unic
Encoding: 65680 -1 248
Width: 1461
GlyphClass: 2
Flags: W
AnchorPoint: "Anchor-1" 721 0 basechar 0
AnchorPoint: "Anchor-0" 722 1632 basechar 0
LayerCount: 2
Fore
SplineSet
1106 0 m 1,0,-1
 1099 174 l 1,1,2
 1022 83 1022 83 901 31.5 c 128,-1,3
 780 -20 780 -20 639 -20 c 0,4,5
 497 -20 497 -20 391 31 c 128,-1,6
 285 82 285 82 227 195 c 128,-1,7
 169 308 169 308 169 493 c 2,8,-1
 169 1456 l 1,9,-1
 362 1456 l 1,10,-1
 362 491 l 2,11,12
 362 305 362 305 450 224.5 c 128,-1,13
 538 144 538 144 694 144 c 0,14,15
 827 144 827 144 938 216 c 128,-1,16
 1049 288 1049 288 1096 400 c 1,17,-1
 1096 1456 l 1,18,-1
 1288 1456 l 1,19,-1
 1288 0 l 1,20,-1
 1106 0 l 1,0,-1
EndSplineSet
EndChar

StartChar: Uhorn
Encoding: 431 431 263
Width: 1424
VWidth: 1798
GlyphClass: 2
Flags: W
AnchorPoint: "Anchor-1" 692 -259 basechar 0
AnchorPoint: "Anchor-0" 694 1362 basechar 0
LayerCount: 2
Fore
SplineSet
1002 1206 m 1,0,-1
 1194 1206 l 1,1,-1
 1194 994 l 1,2,3
 1319 1005 1319 1005 1363 1079.5 c 128,-1,4
 1407 1154 1407 1154 1407 1288 c 1,5,-1
 1565 1288 l 1,6,7
 1565 1088 1565 1088 1480 978.5 c 128,-1,8
 1395 869 1395 869 1194 858 c 1,9,-1
 1194 221 l 2,10,11
 1194 57 1194 57 1121 -52 c 128,-1,12
 1048 -161 1048 -161 927.5 -215.5 c 128,-1,13
 807 -270 807 -270 666 -270 c 0,14,15
 518 -270 518 -270 398.5 -215.5 c 128,-1,16
 279 -161 279 -161 209.5 -52 c 128,-1,17
 140 57 140 57 140 221 c 2,18,-1
 140 1206 l 1,19,-1
 331 1206 l 1,20,-1
 331 221 l 2,21,22
 331 50 331 50 423.5 -31.5 c 128,-1,23
 516 -113 516 -113 666 -113 c 0,24,25
 818 -113 818 -113 910 -31.5 c 128,-1,26
 1002 50 1002 50 1002 221 c 2,27,-1
 1002 1206 l 1,0,-1
EndSplineSet
EndChar

StartChar: Uogonek
Encoding: 370 370 270
Width: 1328
VWidth: 1798
GlyphClass: 2
Flags: W
AnchorPoint: "Anchor-1" 666 -250 basechar 0
AnchorPoint: "Anchor-0" 667 1351 basechar 0
LayerCount: 2
Fore
SplineSet
1002 1206 m 1,0,-1
 1194 1206 l 1,1,-1
 1194 221 l 2,2,3
 1194 57 1194 57 1120 -52 c 128,-1,4
 1046 -161 1046 -161 928 -216 c 1,5,6
 867 -262 867 -262 818.5 -314 c 128,-1,7
 770 -366 770 -366 770 -428 c 0,8,9
 770 -461 770 -461 787.5 -481 c 128,-1,10
 805 -501 805 -501 848 -501 c 0,11,12
 881 -501 881 -501 907 -491.5 c 128,-1,13
 933 -482 933 -482 948 -474 c 1,14,-1
 962 -596 l 1,15,16
 937 -611 937 -611 898.5 -625.5 c 128,-1,17
 860 -640 860 -640 801 -640 c 0,18,19
 720 -640 720 -640 664.5 -591.5 c 128,-1,20
 609 -543 609 -543 609 -449 c 0,21,22
 609 -403 609 -403 628 -358 c 128,-1,23
 647 -313 647 -313 688 -270 c 1,24,25
 677 -270 677 -270 666 -270 c 0,26,27
 518 -270 518 -270 398.5 -215.5 c 128,-1,28
 279 -161 279 -161 209.5 -52 c 128,-1,29
 140 57 140 57 140 221 c 2,30,-1
 140 1206 l 1,31,-1
 331 1206 l 1,32,-1
 331 221 l 2,33,34
 331 50 331 50 423.5 -31.5 c 128,-1,35
 516 -113 516 -113 666 -113 c 0,36,37
 818 -113 818 -113 910 -31.5 c 128,-1,38
 1002 50 1002 50 1002 221 c 2,39,-1
 1002 1206 l 1,0,-1
EndSplineSet
Substitution2: "'unic' Unicase lookup 2 subtable" Uogonek.unic
Substitution2: "'c2sc' Capitals to Small Capitals lookup 0 subtable" Uogonek.smcp
Position2: "'cpsp' Capital Spacing lookup 0 subtable" dx=36 dy=0 dh=72 dv=0
EndChar

StartChar: Uogonek.smcp
Encoding: 65694 -1 271
Width: 1149
GlyphClass: 2
Flags: W
AnchorPoint: "Anchor-1" 574 0 basechar 0
AnchorPoint: "Anchor-0" 576 1320 basechar 0
LayerCount: 2
Fore
SplineSet
849 1165 m 1,0,-1
 1035 1165 l 1,1,-1
 1035 385 l 2,2,3
 1035 252 1035 252 971 162.5 c 128,-1,4
 907 73 907 73 805 29 c 1,5,6
 743 -18 743 -18 694 -70.5 c 128,-1,7
 645 -123 645 -123 645 -185 c 0,8,9
 645 -218 645 -218 662.5 -238 c 128,-1,10
 680 -258 680 -258 723 -258 c 0,11,12
 756 -258 756 -258 782 -248.5 c 128,-1,13
 808 -239 808 -239 823 -231 c 1,14,-1
 837 -353 l 1,15,16
 812 -368 812 -368 773.5 -382.5 c 128,-1,17
 735 -397 735 -397 676 -397 c 0,18,19
 595 -397 595 -397 539.5 -348.5 c 128,-1,20
 484 -300 484 -300 484 -206 c 0,21,22
 484 -158 484 -158 505.5 -109.5 c 128,-1,23
 527 -61 527 -61 574 -16 c 1,24,25
 443 -16 443 -16 339.5 29 c 128,-1,26
 236 74 236 74 176.5 163.5 c 128,-1,27
 117 253 117 253 117 385 c 2,28,-1
 117 1165 l 1,29,-1
 300 1165 l 1,30,-1
 300 385 l 2,31,32
 300 256 300 256 376 195.5 c 128,-1,33
 452 135 452 135 575 135 c 0,34,35
 700 135 700 135 774.5 195.5 c 128,-1,36
 849 256 849 256 849 385 c 2,37,-1
 849 1165 l 1,0,-1
EndSplineSet
EndChar

StartChar: V
Encoding: 86 86 279
Width: 1304
VWidth: 1798
GlyphClass: 2
Flags: W
AnchorPoint: "Anchor-1" 655 -240 basechar 0
AnchorPoint: "Anchor-0" 655 1362 basechar 0
LayerCount: 2
Fore
SplineSet
238 1206 m 1,0,-1
 651 6 l 1,1,-1
 1068 1206 l 1,2,-1
 1277 1206 l 1,3,-1
 738 -250 l 1,4,-1
 567 -250 l 1,5,-1
 29 1206 l 1,6,-1
 238 1206 l 1,0,-1
EndSplineSet
Substitution2: "'c2sc' Capitals to Small Capitals lookup 0 subtable" V.smcp
Position2: "'cpsp' Capital Spacing lookup 0 subtable" dx=36 dy=0 dh=72 dv=0
EndChar

StartChar: V.smcp
Encoding: 65700 -1 280
Width: 1128
GlyphClass: 2
Flags: W
AnchorPoint: "Anchor-1" 561 10 basechar 0
AnchorPoint: "Anchor-0" 561 1320 basechar 0
LayerCount: 2
Fore
SplineSet
590 291 m 1,0,-1
 910 1165 l 1,1,-1
 1108 1165 l 1,2,-1
 651 0 l 1,3,-1
 477 0 l 1,4,-1
 20 1165 l 1,5,-1
 220 1165 l 1,6,-1
 538 292 l 1,7,-1
 564 198 l 1,8,-1
 590 291 l 1,0,-1
EndSplineSet
EndChar

StartChar: W
Encoding: 87 87 281
Width: 1817
VWidth: 1798
GlyphClass: 2
Flags: W
AnchorPoint: "Anchor-1" 922 -240 basechar 0
AnchorPoint: "Anchor-0" 924 1351 basechar 0
LayerCount: 2
Fore
SplineSet
552 190 m 1,0,-1
 841 1206 l 1,1,-1
 1002 1206 l 1,2,-1
 1283 190 l 1,3,-1
 1324 13 l 1,4,-1
 1355 211 l 1,5,-1
 1580 1206 l 1,6,-1
 1773 1206 l 1,7,-1
 1421 -250 l 1,8,-1
 1246 -250 l 1,9,-1
 946 811 l 1,10,-1
 923 922 l 1,11,-1
 900 811 l 1,12,-1
 589 -250 l 1,13,-1
 414 -250 l 1,14,-1
 61 1206 l 1,15,-1
 253 1206 l 1,16,-1
 483 210 l 1,17,-1
 512 17 l 1,18,-1
 552 190 l 1,0,-1
EndSplineSet
Substitution2: "'c2sc' Capitals to Small Capitals lookup 0 subtable" W.smcp
Position2: "'cpsp' Capital Spacing lookup 0 subtable" dx=36 dy=0 dh=72 dv=0
EndChar

StartChar: W.smcp
Encoding: 65701 -1 282
Width: 1557
GlyphClass: 2
Flags: W
AnchorPoint: "Anchor-1" 786 10 basechar 0
AnchorPoint: "Anchor-0" 786 1320 basechar 0
LayerCount: 2
Fore
SplineSet
457 278 m 1,0,-1
 705 1165 l 1,1,-1
 870 1165 l 1,2,-1
 1114 275 l 1,3,-1
 1128 214 l 1,4,-1
 1140 297 l 1,5,-1
 1337 1165 l 1,6,-1
 1521 1165 l 1,7,-1
 1223 0 l 1,8,-1
 1050 0 l 1,9,-1
 790 918 l 1,10,-1
 789 923 l 1,11,-1
 788 918 l 1,12,-1
 520 0 l 1,13,-1
 347 0 l 1,14,-1
 49 1165 l 1,15,-1
 233 1165 l 1,16,-1
 432 295 l 1,17,-1
 443 217 l 1,18,-1
 457 278 l 1,0,-1
EndSplineSet
EndChar

StartChar: X
Encoding: 88 88 289
Width: 1284
VWidth: 1798
GlyphClass: 2
Flags: W
AnchorPoint: "Anchor-1" 645 -240 basechar 0
AnchorPoint: "Anchor-0" 653 1362 basechar 0
LayerCount: 2
Fore
SplineSet
294 1206 m 1,0,-1
 644 648 l 1,1,-1
 994 1206 l 1,2,-1
 1219 1206 l 1,3,-1
 759 485 l 1,4,-1
 1230 -250 l 1,5,-1
 1003 -250 l 1,6,-1
 644 319 l 1,7,-1
 285 -250 l 1,8,-1
 58 -250 l 1,9,-1
 529 485 l 1,10,-1
 69 1206 l 1,11,-1
 294 1206 l 1,0,-1
EndSplineSet
Substitution2: "'c2sc' Capitals to Small Capitals lookup 0 subtable" X.smcp
Position2: "'cpsp' Capital Spacing lookup 0 subtable" dx=36 dy=0 dh=72 dv=0
EndChar

StartChar: X.smcp
Encoding: 65707 -1 290
Width: 1108
GlyphClass: 2
Flags: W
AnchorPoint: "Anchor-1" 550 8 basechar 0
AnchorPoint: "Anchor-0" 550 1320 basechar 0
LayerCount: 2
Fore
SplineSet
267 1165 m 1,0,-1
 552 730 l 1,1,-1
 839 1165 l 1,2,-1
 1060 1165 l 1,3,-1
 665 587 l 1,4,-1
 1074 0 l 1,5,-1
 853 0 l 1,6,-1
 555 443 l 1,7,-1
 259 0 l 1,8,-1
 39 0 l 1,9,-1
 445 587 l 1,10,-1
 48 1165 l 1,11,-1
 267 1165 l 1,0,-1
EndSplineSet
EndChar

StartChar: Y
Encoding: 89 89 291
Width: 1230
VWidth: 1798
GlyphClass: 2
Flags: W
AnchorPoint: "Anchor-1" 615 -249 basechar 0
AnchorPoint: "Anchor-0" 618 1350 basechar 0
LayerCount: 2
Fore
SplineSet
236 1206 m 1,0,-1
 614 475 l 1,1,-1
 993 1206 l 1,2,-1
 1212 1206 l 1,3,-1
 710 294 l 1,4,-1
 710 -250 l 1,5,-1
 517 -250 l 1,6,-1
 517 294 l 1,7,-1
 15 1206 l 1,8,-1
 236 1206 l 1,0,-1
EndSplineSet
Substitution2: "'c2sc' Capitals to Small Capitals lookup 0 subtable" Y.smcp
Position2: "'cpsp' Capital Spacing lookup 0 subtable" dx=36 dy=0 dh=72 dv=0
EndChar

StartChar: Y.smcp
Encoding: 65708 -1 292
Width: 1067
GlyphClass: 2
Flags: W
AnchorPoint: "Anchor-1" 533 10 basechar 0
AnchorPoint: "Anchor-0" 533 1320 basechar 0
LayerCount: 2
Fore
SplineSet
222 1165 m 1,0,-1
 533 588 l 1,1,-1
 844 1165 l 1,2,-1
 1052 1165 l 1,3,-1
 622 406 l 1,4,-1
 622 0 l 1,5,-1
 438 0 l 1,6,-1
 438 418 l 1,7,-1
 14 1165 l 1,8,-1
 222 1165 l 1,0,-1
EndSplineSet
EndChar

StartChar: Z
Encoding: 90 90 301
Width: 1227
VWidth: 1798
GlyphClass: 2
Flags: W
AnchorPoint: "Anchor-1" 613 -240 basechar 0
AnchorPoint: "Anchor-0" 616 1351 basechar 0
LayerCount: 2
Fore
SplineSet
1146 -93 m 1,0,-1
 1146 -250 l 1,1,-1
 87 -250 l 1,2,-1
 87 -106 l 1,3,-1
 885 1048 l 1,4,-1
 100 1048 l 1,5,-1
 100 1206 l 1,6,-1
 1114 1206 l 1,7,-1
 1114 1066 l 1,8,-1
 314 -93 l 1,9,-1
 1146 -93 l 1,0,-1
EndSplineSet
Substitution2: "'c2sc' Capitals to Small Capitals lookup 0 subtable" Z.smcp
Position2: "'cpsp' Capital Spacing lookup 0 subtable" dx=36 dy=0 dh=72 dv=0
EndChar

StartChar: Z.smcp
Encoding: 65714 -1 302
Width: 1059
GlyphClass: 2
Flags: W
AnchorPoint: "Anchor-1" 533 10 basechar 0
AnchorPoint: "Anchor-0" 533 1320 basechar 0
LayerCount: 2
Fore
SplineSet
993 152 m 1,0,-1
 993 0 l 1,1,-1
 72 0 l 1,2,-1
 72 124 l 1,3,-1
 736 1013 l 1,4,-1
 81 1013 l 1,5,-1
 81 1165 l 1,6,-1
 968 1165 l 1,7,-1
 968 1045 l 1,8,-1
 305 152 l 1,9,-1
 993 152 l 1,0,-1
EndSplineSet
EndChar

StartChar: a
Encoding: 97 97 309
Width: 1114
VWidth: 1798
GlyphClass: 2
Flags: W
AnchorPoint: "Anchor-1" 502 -250 basechar 0
AnchorPoint: "Anchor-0" 582 1040 basechar 0
LayerCount: 2
Fore
SplineSet
809 -250 m 1,0,1
 800 -230 800 -230 793.5 -199.5 c 128,-1,2
 787 -169 787 -169 783 -136 c 1,3,4
 731 -191 731 -191 653 -230.5 c 128,-1,5
 575 -270 575 -270 475 -270 c 0,6,7
 365 -270 365 -270 282.5 -227 c 128,-1,8
 200 -184 200 -184 154.5 -111.5 c 128,-1,9
 109 -39 109 -39 109 51 c 0,10,11
 109 225 109 225 241 315.5 c 128,-1,12
 373 406 373 406 596 406 c 2,13,-1
 779 406 l 1,14,-1
 779 492 l 2,15,16
 779 588 779 588 721.5 645.5 c 128,-1,17
 664 703 664 703 551 703 c 0,18,19
 446 703 446 703 381.5 651.5 c 128,-1,20
 317 600 317 600 317 532 c 1,21,-1
 132 532 l 1,22,23
 132 610 132 610 185 683.5 c 128,-1,24
 238 757 238 757 334.5 804.5 c 128,-1,25
 431 852 431 852 562 852 c 0,26,27
 738 852 738 852 851 762 c 128,-1,28
 964 672 964 672 964 490 c 2,29,-1
 964 -14 l 2,30,31
 964 -68 964 -68 973.5 -129 c 128,-1,32
 983 -190 983 -190 1002 -234 c 1,33,-1
 1002 -250 l 1,34,-1
 809 -250 l 1,0,1
502 -108 m 0,35,36
 602 -108 602 -108 675.5 -58 c 128,-1,37
 749 -8 749 -8 779 53 c 1,38,-1
 779 276 l 1,39,-1
 626 276 l 2,40,41
 467 276 467 276 381 226.5 c 128,-1,42
 295 177 295 177 295 76 c 0,43,44
 295 -1 295 -1 347 -54.5 c 128,-1,45
 399 -108 399 -108 502 -108 c 0,35,36
EndSplineSet
Substitution2: "'unic' Unicase lookup 2 subtable" A.unic
Substitution2: "'smcp' Lowercase to Small Capitals lookup 1 subtable" A.smcp
EndChar

StartChar: acute
Encoding: 180 180 313
Width: 642
VWidth: 1798
GlyphClass: 2
Flags: W
LayerCount: 2
Fore
SplineSet
123 992 m 1,0,-1
 317 1286 l 1,1,-1
 540 1286 l 1,2,-1
 272 992 l 1,3,-1
 123 992 l 1,0,-1
EndSplineSet
EndChar

StartChar: acutecomb
Encoding: 769 769 314
Width: 0
VWidth: 1798
GlyphClass: 4
Flags: W
AnchorPoint: "Anchor-3" -566 1391 basemark 0
AnchorPoint: "Anchor-3" -566 1040 mark 0
AnchorPoint: "Anchor-0" -566 1040 mark 0
LayerCount: 2
Fore
SplineSet
-658 992 m 1,0,-1
 -464 1286 l 1,1,-1
 -241 1286 l 1,2,-1
 -509 992 l 1,3,-1
 -658 992 l 1,0,-1
EndSplineSet
EndChar

StartChar: ae
Encoding: 230 230 316
Width: 1730
VWidth: 1798
GlyphClass: 2
Flags: W
AnchorPoint: "Anchor-0" 859 1041 basechar 0
LayerCount: 2
Fore
SplineSet
1263 -271 m 0,0,1
 1129 -271 1129 -271 1029 -223 c 128,-1,2
 929 -175 929 -175 865 -90 c 1,3,4
 814 -157 814 -157 707.5 -214 c 128,-1,5
 601 -271 601 -271 434 -271 c 0,6,7
 262 -271 262 -271 170.5 -182.5 c 128,-1,8
 79 -94 79 -94 79 54 c 0,9,10
 79 212 79 212 193 299 c 128,-1,11
 307 386 307 386 527 386 c 2,12,-1
 749 386 l 1,13,-1
 749 470 l 2,14,15
 749 577 749 577 694 638.5 c 128,-1,16
 639 700 639 700 535 700 c 0,17,18
 423 700 423 700 357 643.5 c 128,-1,19
 291 587 291 587 291 510 c 1,20,-1
 107 528 l 1,21,22
 107 622 107 622 161 695 c 128,-1,23
 215 768 215 768 311.5 810 c 128,-1,24
 408 852 408 852 535 852 c 0,25,26
 651 852 651 852 739 810.5 c 128,-1,27
 827 769 827 769 876 686 c 1,28,29
 938 765 938 765 1026.5 809 c 128,-1,30
 1115 853 1115 853 1219 852 c 0,31,32
 1434 852 1434 852 1547.5 721 c 128,-1,33
 1661 590 1661 590 1661 366 c 2,34,-1
 1661 248 l 1,35,-1
 933 248 l 1,36,37
 937 146 937 146 972.5 62.5 c 128,-1,38
 1008 -21 1008 -21 1079.5 -70 c 128,-1,39
 1151 -119 1151 -119 1263 -119 c 0,40,41
 1382 -119 1382 -119 1455 -82.5 c 128,-1,42
 1528 -46 1528 -46 1578 -12 c 1,43,-1
 1643 -148 l 1,44,45
 1621 -165 1621 -165 1572.5 -194.5 c 128,-1,46
 1524 -224 1524 -224 1447 -247.5 c 128,-1,47
 1370 -271 1370 -271 1263 -271 c 0,0,1
1219 700 m 0,48,49
 1098 700 1098 700 1026 611.5 c 128,-1,50
 954 523 954 523 938 390 c 1,51,-1
 1475 390 l 1,52,-1
 1475 421 l 2,53,54
 1475 497 1475 497 1450 560 c 128,-1,55
 1425 623 1425 623 1369 661.5 c 128,-1,56
 1313 700 1313 700 1219 700 c 0,48,49
470 -120 m 0,57,58
 546 -120 546 -120 624.5 -80.5 c 128,-1,59
 703 -41 703 -41 749 8 c 1,60,-1
 749 246 l 1,61,-1
 529 246 l 2,62,63
 398 246 398 246 331 187 c 128,-1,64
 264 128 264 128 264 50 c 0,65,66
 264 -21 264 -21 314.5 -70.5 c 128,-1,67
 365 -120 365 -120 470 -120 c 0,57,58
EndSplineSet
Substitution2: "'unic' Unicase lookup 2 subtable" AE
Substitution2: "'smcp' Lowercase to Small Capitals lookup 1 subtable" AE.smcp
EndChar

StartChar: afii57636
Encoding: 8362 8362 321
Width: 1579
GlyphClass: 2
Flags: W
LayerCount: 2
Fore
SplineSet
140 1082 m 1,0,-1
 699 1082 l 2,1,2
 859 1082 859 1082 952.5 992 c 128,-1,3
 1046 902 1046 902 1046 678 c 2,4,-1
 1046 349 l 1,5,-1
 860 349 l 1,6,-1
 860 680 l 2,7,8
 860 819 860 819 804.5 874.5 c 128,-1,9
 749 930 749 930 644 930 c 2,10,-1
 326 930 l 1,11,-1
 326 0 l 1,12,-1
 140 0 l 1,13,-1
 140 1082 l 1,0,-1
1092 0 m 2,14,-1
 534 0 l 1,15,-1
 534 734 l 1,16,-1
 719 734 l 1,17,-1
 719 152 l 1,18,-1
 1037 152 l 2,19,20
 1143 152 1143 152 1198.5 207.5 c 128,-1,21
 1254 263 1254 263 1254 402 c 2,22,-1
 1254 1082 l 1,23,-1
 1439 1082 l 1,24,-1
 1439 404 l 2,25,26
 1439 180 1439 180 1345.5 90 c 128,-1,27
 1252 0 1252 0 1092 0 c 2,14,-1
EndSplineSet
EndChar

StartChar: ampersand
Encoding: 38 38 325
Width: 1274
VWidth: 1798
GlyphClass: 2
Flags: W
LayerCount: 2
Fore
SplineSet
1045 -250 m 1,0,-1
 949 -135 l 1,1,2
 874 -202 874 -202 773 -236 c 128,-1,3
 672 -270 672 -270 572 -270 c 0,4,5
 427 -270 427 -270 321.5 -217 c 128,-1,6
 216 -164 216 -164 159 -71 c 128,-1,7
 102 22 102 22 102 142 c 0,8,9
 102 272 102 272 180.5 361.5 c 128,-1,10
 259 451 259 451 384 539 c 1,11,12
 309 629 309 629 264.5 708 c 128,-1,13
 220 787 220 787 220 873 c 0,14,15
 220 1043 220 1043 320 1134.5 c 128,-1,16
 420 1226 420 1226 585 1226 c 0,17,18
 692 1226 692 1226 769.5 1183.5 c 128,-1,19
 847 1141 847 1141 889 1071.5 c 128,-1,20
 931 1002 931 1002 931 919 c 0,21,22
 931 813 931 813 876 740 c 128,-1,23
 821 667 821 667 733 602 c 2,24,-1
 624 521 l 1,25,-1
 948 133 l 1,26,27
 980 194 980 194 998 266.5 c 128,-1,28
 1016 339 1016 339 1016 422 c 1,29,-1
 1182 422 l 1,30,31
 1182 298 1182 298 1152 191.5 c 128,-1,32
 1122 85 1122 85 1059 -1 c 1,33,-1
 1267 -250 l 1,34,-1
 1045 -250 l 1,0,-1
406 879 m 0,35,36
 406 824 406 824 438.5 764.5 c 128,-1,37
 471 705 471 705 524 639 c 1,38,-1
 628 713 l 2,39,40
 691 756 691 756 725.5 799.5 c 128,-1,41
 760 843 760 843 760 919 c 0,42,43
 760 978 760 978 714 1026.5 c 128,-1,44
 668 1075 668 1075 584 1075 c 0,45,46
 496 1075 496 1075 451 1016.5 c 128,-1,47
 406 958 406 958 406 879 c 0,35,36
287 142 m 0,48,49
 287 36 287 36 357 -41 c 128,-1,50
 427 -118 427 -118 572 -118 c 0,51,52
 720 -118 720 -118 841 -7 c 1,53,-1
 486 418 l 1,54,-1
 444 387 l 2,55,56
 372 334 372 334 339 286 c 128,-1,57
 306 238 306 238 296.5 201 c 128,-1,58
 287 164 287 164 287 142 c 0,48,49
EndSplineSet
Substitution2: "'smcp' Lowercase to Small Capitals lookup 1 subtable" ampersand.smcp
Substitution2: "'c2sc' Capitals to Small Capitals lookup 0 subtable" ampersand.smcp
Position2: "'cpsp' Capital Spacing lookup 0 subtable" dx=36 dy=0 dh=72 dv=0
EndChar

StartChar: ampersand.smcp
Encoding: 65718 -1 326
Width: 1238
GlyphClass: 2
Flags: W
LayerCount: 2
Fore
SplineSet
488 -16 m 0,0,1
 310 -16 310 -16 207 69 c 128,-1,2
 104 154 104 154 104 278 c 0,3,4
 104 380 104 380 153.5 446.5 c 128,-1,5
 203 513 203 513 289 576 c 2,6,-1
 361 628 l 1,7,8
 289 702 289 702 240.5 766 c 128,-1,9
 192 830 192 830 192 919 c 0,10,11
 192 1036 192 1036 279.5 1108.5 c 128,-1,12
 367 1181 367 1181 509 1181 c 0,13,14
 605 1181 605 1181 675 1144.5 c 128,-1,15
 745 1108 745 1108 783 1048.5 c 128,-1,16
 821 989 821 989 821 919 c 0,17,18
 821 843 821 843 779.5 780.5 c 128,-1,19
 738 718 738 718 678 674 c 2,20,-1
 593 613 l 1,21,-1
 861 328 l 1,22,23
 930 443 930 443 930 600 c 1,24,-1
 1098 600 l 1,25,26
 1098 490 1098 490 1065 391.5 c 128,-1,27
 1032 293 1032 293 971 212 c 1,28,-1
 1170 0 l 1,29,-1
 959 0 l 1,30,-1
 866 98 l 1,31,32
 793 44 793 44 698 14 c 128,-1,33
 603 -16 603 -16 488 -16 c 0,0,1
373 906 m 0,34,35
 373 857 373 857 407.5 814 c 128,-1,36
 442 771 442 771 491 721 c 1,37,-1
 556 767 l 2,38,39
 640 828 640 828 640 905 c 0,40,41
 640 957 640 957 604 992 c 128,-1,42
 568 1027 568 1027 502 1027 c 0,43,44
 438 1027 438 1027 405.5 988.5 c 128,-1,45
 373 950 373 950 373 906 c 0,34,35
287 303 m 0,46,47
 287 231 287 231 341 184.5 c 128,-1,48
 395 138 395 138 505 138 c 0,49,50
 651 138 651 138 756 213 c 1,51,-1
 464 520 l 1,52,-1
 379 458 l 2,53,54
 320 416 320 416 303.5 376 c 128,-1,55
 287 336 287 336 287 303 c 0,46,47
EndSplineSet
EndChar

StartChar: aogonek
Encoding: 261 261 327
Width: 1114
VWidth: 1798
GlyphClass: 2
Flags: W
AnchorPoint: "Anchor-1" 502 -250 basechar 0
AnchorPoint: "Anchor-0" 582 1040 basechar 0
LayerCount: 2
Fore
SplineSet
991 -640 m 1,0,1
 966 -655 966 -655 927.5 -669.5 c 128,-1,2
 889 -684 889 -684 830 -684 c 0,3,4
 749 -684 749 -684 693.5 -635.5 c 128,-1,5
 638 -587 638 -587 638 -493 c 0,6,7
 638 -428 638 -428 678 -363 c 128,-1,8
 718 -298 718 -298 806 -242 c 1,9,10
 798 -222 798 -222 792 -194 c 128,-1,11
 786 -166 786 -166 783 -136 c 1,12,13
 731 -191 731 -191 653 -230.5 c 128,-1,14
 575 -270 575 -270 475 -270 c 0,15,16
 365 -270 365 -270 282.5 -227 c 128,-1,17
 200 -184 200 -184 154.5 -111.5 c 128,-1,18
 109 -39 109 -39 109 51 c 0,19,20
 109 225 109 225 241 315.5 c 128,-1,21
 373 406 373 406 596 406 c 2,22,-1
 779 406 l 1,23,-1
 779 492 l 2,24,25
 779 588 779 588 721.5 645.5 c 128,-1,26
 664 703 664 703 551 703 c 0,27,28
 446 703 446 703 381.5 651.5 c 128,-1,29
 317 600 317 600 317 532 c 1,30,-1
 132 532 l 1,31,32
 132 610 132 610 185 683.5 c 128,-1,33
 238 757 238 757 334.5 804.5 c 128,-1,34
 431 852 431 852 562 852 c 0,35,36
 738 852 738 852 851 762 c 128,-1,37
 964 672 964 672 964 490 c 2,38,-1
 964 -14 l 2,39,40
 964 -68 964 -68 973.5 -129 c 128,-1,41
 983 -190 983 -190 1002 -234 c 1,42,-1
 1002 -250 l 1,43,-1
 970 -250 l 1,44,45
 906 -298 906 -298 852.5 -352.5 c 128,-1,46
 799 -407 799 -407 799 -472 c 0,47,48
 799 -505 799 -505 816.5 -525 c 128,-1,49
 834 -545 834 -545 877 -545 c 0,50,51
 910 -545 910 -545 936 -535.5 c 128,-1,52
 962 -526 962 -526 977 -518 c 1,53,-1
 991 -640 l 1,0,1
502 -108 m 0,54,55
 602 -108 602 -108 675.5 -58 c 128,-1,56
 749 -8 749 -8 779 53 c 1,57,-1
 779 276 l 1,58,-1
 626 276 l 2,59,60
 467 276 467 276 381 226.5 c 128,-1,61
 295 177 295 177 295 76 c 0,62,63
 295 -1 295 -1 347 -54.5 c 128,-1,64
 399 -108 399 -108 502 -108 c 0,54,55
EndSplineSet
Substitution2: "'locl' Localized Forms in Latin lookup 8 subtable" aogonek.NAV
Substitution2: "'unic' Unicase lookup 2 subtable" Aogonek.unic
Substitution2: "'smcp' Lowercase to Small Capitals lookup 1 subtable" Aogonek.smcp
EndChar

StartChar: approxequal
Encoding: 8776 8776 329
Width: 1154
GlyphClass: 2
Flags: W
LayerCount: 2
Fore
SplineSet
103 712 m 1,0,-1
 102 901 l 1,1,2
 149 952 149 952 215.5 981.5 c 128,-1,3
 282 1011 282 1011 347 1011 c 0,4,5
 427 1013 427 1013 472.5 991.5 c 128,-1,6
 518 970 518 970 581 938 c 0,7,8
 640 908 640 908 682.5 888 c 128,-1,9
 725 868 725 868 799 868 c 0,10,11
 864 868 864 868 926 902 c 128,-1,12
 988 936 988 936 1035 996 c 1,13,-1
 1036 807 l 1,14,15
 989 756 989 756 927 727 c 128,-1,16
 865 698 865 698 800 698 c 0,17,18
 726 698 726 698 683.5 717.5 c 128,-1,19
 641 737 641 737 582 767 c 0,20,21
 519 799 519 799 473 820.5 c 128,-1,22
 427 842 427 842 347 840 c 0,23,24
 282 840 282 840 216 806 c 128,-1,25
 150 772 150 772 103 712 c 1,0,-1
102 295 m 1,26,-1
 101 484 l 1,27,28
 148 535 148 535 214.5 564 c 128,-1,29
 281 593 281 593 346 593 c 0,30,31
 426 595 426 595 471.5 573.5 c 128,-1,32
 517 552 517 552 580 520 c 0,33,34
 639 490 639 490 681.5 470.5 c 128,-1,35
 724 451 724 451 798 451 c 0,36,37
 863 451 863 451 925 485 c 128,-1,38
 987 519 987 519 1034 579 c 1,39,-1
 1035 389 l 1,40,41
 988 338 988 338 926 309 c 128,-1,42
 864 280 864 280 799 280 c 0,43,44
 725 280 725 280 682.5 299.5 c 128,-1,45
 640 319 640 319 581 349 c 0,46,47
 518 381 518 381 472 403 c 128,-1,48
 426 425 426 425 346 423 c 0,49,50
 281 423 281 423 215 389 c 128,-1,51
 149 355 149 355 102 295 c 1,26,-1
EndSplineSet
EndChar

StartChar: arabic_2dots
Encoding: 65720 -1 330
Width: 517
GlyphClass: 1
Flags: W
LayerCount: 2
Fore
SplineSet
423 241 m 1,0,-1
 563 102 l 1,1,-1
 423 -39 l 1,2,-1
 284 102 l 1,3,-1
 423 241 l 1,0,-1
91 241 m 1,4,-1
 231 102 l 1,5,-1
 91 -39 l 1,6,-1
 -48 102 l 1,7,-1
 91 241 l 1,4,-1
EndSplineSet
EndChar

StartChar: arabic_3dots
Encoding: 65721 -1 331
Width: 528
GlyphClass: 1
Flags: W
LayerCount: 2
Fore
SplineSet
255 454 m 1,0,-1
 390 319 l 1,1,-1
 255 184 l 1,2,-1
 120 319 l 1,3,-1
 255 454 l 1,0,-1
426 201 m 1,4,-1
 561 66 l 1,5,-1
 426 -69 l 1,6,-1
 291 66 l 1,7,-1
 426 201 l 1,4,-1
84 201 m 1,8,-1
 219 66 l 1,9,-1
 84 -69 l 1,10,-1
 -51 66 l 1,11,-1
 84 201 l 1,8,-1
EndSplineSet
EndChar

StartChar: arabic_3dots_a
Encoding: 65722 -1 332
Width: 528
GlyphClass: 1
Flags: W
LayerCount: 2
Fore
SplineSet
426 269 m 1,0,-1
 561 134 l 1,1,-1
 426 -1 l 1,2,-1
 291 134 l 1,3,-1
 426 269 l 1,0,-1
84 269 m 1,4,-1
 219 134 l 1,5,-1
 84 -1 l 1,6,-1
 -51 134 l 1,7,-1
 84 269 l 1,4,-1
255 16 m 1,8,-1
 390 -119 l 1,9,-1
 255 -254 l 1,10,-1
 120 -119 l 1,11,-1
 255 16 l 1,8,-1
EndSplineSet
EndChar

StartChar: arabic_dot
Encoding: 65723 -1 333
Width: 197
GlyphClass: 1
Flags: W
LayerCount: 2
Fore
SplineSet
96 247 m 1,0,-1
 241 102 l 1,1,-1
 96 -43 l 1,2,-1
 -49 102 l 1,3,-1
 96 247 l 1,0,-1
EndSplineSet
EndChar

StartChar: arabic_gaf_bar
Encoding: 65724 -1 334
Width: 787
GlyphClass: 1
Flags: W
LayerCount: 2
Fore
SplineSet
-66 1566 m 1,0,-1
 -66 1676 l 1,1,-1
 694 1984 l 1,2,-1
 694 1874 l 1,3,-1
 -66 1566 l 1,0,-1
EndSplineSet
EndChar

StartChar: asciicircum
Encoding: 94 94 337
Width: 856
VWidth: 1798
GlyphClass: 2
Flags: W
LayerCount: 2
Fore
SplineSet
617 479 m 1,0,-1
 427 962 l 1,1,-1
 236 479 l 1,2,-1
 64 479 l 1,3,-1
 363 1206 l 1,4,-1
 491 1206 l 1,5,-1
 789 479 l 1,6,-1
 617 479 l 1,0,-1
EndSplineSet
EndChar

StartChar: asciitilde
Encoding: 126 126 338
Width: 1393
VWidth: 1798
GlyphClass: 2
Flags: W
LayerCount: 2
Fore
SplineSet
1111 527 m 1,0,-1
 1263 528 l 1,1,2
 1263 425 1263 425 1221.5 340 c 128,-1,3
 1180 255 1180 255 1107 204 c 128,-1,4
 1034 153 1034 153 939 153 c 0,5,6
 852 153 852 153 785.5 188 c 128,-1,7
 719 223 719 223 641 291 c 0,8,9
 590 338 590 338 547 364 c 128,-1,10
 504 390 504 390 454 390 c 0,11,12
 378 390 378 390 335 336 c 128,-1,13
 292 282 292 282 292 188 c 1,14,-1
 131 186 l 1,15,16
 131 291 131 291 172 374 c 128,-1,17
 213 457 213 457 286 505 c 128,-1,18
 359 553 359 553 454 553 c 0,19,20
 542 553 542 553 610.5 516 c 128,-1,21
 679 479 679 479 752 414 c 0,22,23
 807 364 807 364 848.5 339.5 c 128,-1,24
 890 315 890 315 939 315 c 0,25,26
 1016 315 1016 315 1063.5 374 c 128,-1,27
 1111 433 1111 433 1111 527 c 1,0,-1
EndSplineSet
EndChar

StartChar: asterisk
Encoding: 42 42 339
Width: 882
VWidth: 1798
GlyphClass: 2
Flags: W
LayerCount: 2
Fore
SplineSet
129 458 m 1,0,-1
 330 734 l 1,1,-1
 28 824 l 1,2,-1
 75 974 l 1,3,-1
 377 863 l 1,4,-1
 368 1207 l 1,5,-1
 520 1207 l 1,6,-1
 510 857 l 1,7,-1
 808 968 l 1,8,-1
 854 815 l 1,9,-1
 547 724 l 1,10,-1
 744 453 l 1,11,-1
 620 360 l 1,12,-1
 435 648 l 1,13,-1
 254 367 l 1,14,-1
 129 458 l 1,0,-1
EndSplineSet
EndChar

StartChar: at
Encoding: 64 64 340
Width: 1839
VWidth: 1798
GlyphClass: 2
Flags: W
LayerCount: 2
Fore
SplineSet
1736 253 m 0,0,1
 1732 161 1732 161 1708 68.5 c 128,-1,2
 1684 -24 1684 -24 1636 -101 c 128,-1,3
 1588 -178 1588 -178 1511.5 -224.5 c 128,-1,4
 1435 -271 1435 -271 1327 -271 c 0,5,6
 1233 -271 1233 -271 1172.5 -226 c 128,-1,7
 1112 -181 1112 -181 1087 -101 c 1,8,9
 1033 -185 1033 -185 963 -228 c 128,-1,10
 893 -271 893 -271 819 -271 c 0,11,12
 672 -271 672 -271 602 -150 c 128,-1,13
 532 -29 532 -29 550 168 c 0,14,15
 566 344 566 344 630 472 c 128,-1,16
 694 600 694 600 787 670 c 128,-1,17
 880 740 880 740 983 740 c 0,18,19
 1091 740 1091 740 1153 708.5 c 128,-1,20
 1215 677 1215 677 1271 634 c 1,21,-1
 1220 80 l 2,22,23
 1212 -17 1212 -17 1231 -67 c 128,-1,24
 1250 -117 1250 -117 1283 -134.5 c 128,-1,25
 1316 -152 1316 -152 1348 -152 c 0,26,27
 1429 -152 1429 -152 1484.5 -97.5 c 128,-1,28
 1540 -43 1540 -43 1571 49 c 128,-1,29
 1602 141 1602 141 1607 253 c 0,30,31
 1624 627 1624 627 1468.5 838.5 c 128,-1,32
 1313 1050 1313 1050 965 1050 c 0,33,34
 755 1050 755 1050 600.5 946 c 128,-1,35
 446 842 446 842 358.5 657 c 128,-1,36
 271 472 271 472 261 228 c 0,37,38
 249 -21 249 -21 320.5 -202 c 128,-1,39
 392 -383 392 -383 538 -480.5 c 128,-1,40
 684 -578 684 -578 897 -578 c 0,41,42
 985 -578 985 -578 1075.5 -557 c 128,-1,43
 1166 -536 1166 -536 1227 -500 c 1,44,-1
 1265 -614 l 1,45,46
 1195 -659 1195 -659 1090.5 -681 c 128,-1,47
 986 -703 986 -703 893 -703 c 0,48,49
 640 -703 640 -703 461.5 -590 c 128,-1,50
 283 -477 283 -477 193.5 -268 c 128,-1,51
 104 -59 104 -59 116 228 c 0,52,53
 125 434 125 434 188.5 607.5 c 128,-1,54
 252 781 252 781 363 910 c 128,-1,55
 474 1039 474 1039 627 1110 c 128,-1,56
 780 1181 780 1181 969 1181 c 0,57,58
 1226 1181 1226 1181 1401 1067.5 c 128,-1,59
 1576 954 1576 954 1662 745.5 c 128,-1,60
 1748 537 1748 537 1736 253 c 0,0,1
709 168 m 0,61,62
 696 27 696 27 736.5 -50 c 128,-1,63
 777 -127 777 -127 865 -127 c 0,64,65
 916 -127 916 -127 974 -81 c 128,-1,66
 1032 -35 1032 -35 1072 71 c 0,67,68
 1073 75 1073 75 1073 80 c 2,69,-1
 1119 582 l 1,70,71
 1094 595 1094 595 1064 603 c 128,-1,72
 1034 611 1034 611 999 611 c 0,73,74
 890 611 890 611 809.5 499 c 128,-1,75
 729 387 729 387 709 168 c 0,61,62
EndSplineSet
EndChar

StartChar: b
Encoding: 98 98 342
Width: 1150
VWidth: 1798
GlyphClass: 2
Flags: W
AnchorPoint: "Anchor-1" 598 -260 basechar 0
AnchorPoint: "Anchor-0" 634 1361 basechar 0
LayerCount: 2
Fore
SplineSet
1057 300 m 2,0,-1
 1057 279 l 2,1,2
 1057 121 1057 121 1007.5 -3 c 128,-1,3
 958 -127 958 -127 864 -198.5 c 128,-1,4
 770 -270 770 -270 636 -270 c 0,5,6
 530 -270 530 -270 451.5 -232.5 c 128,-1,7
 373 -195 373 -195 320 -125 c 1,8,-1
 310 -250 l 1,9,-1
 140 -250 l 1,10,-1
 140 1286 l 1,11,-1
 326 1286 l 1,12,-1
 326 715 l 1,13,14
 379 781 379 781 455.5 816.5 c 128,-1,15
 532 852 532 852 634 852 c 0,16,17
 770 852 770 852 864.5 783 c 128,-1,18
 959 714 959 714 1008 589.5 c 128,-1,19
 1057 465 1057 465 1057 300 c 2,0,-1
871 279 m 2,20,-1
 871 300 l 2,21,22
 871 408 871 408 844 498 c 128,-1,23
 817 588 817 588 755 642 c 128,-1,24
 693 696 693 696 588 696 c 0,25,26
 487 696 487 696 424 647.5 c 128,-1,27
 361 599 361 599 326 528 c 1,28,-1
 326 57 l 1,29,30
 362 -15 362 -15 426 -64 c 128,-1,31
 490 -113 490 -113 590 -113 c 256,32,33
 690 -113 690 -113 752 -60 c 128,-1,34
 814 -7 814 -7 842.5 82.5 c 128,-1,35
 871 172 871 172 871 279 c 2,20,-1
EndSplineSet
Substitution2: "'unic' Unicase lookup 2 subtable" B
Substitution2: "'smcp' Lowercase to Small Capitals lookup 1 subtable" B.smcp
EndChar

StartChar: backslash
Encoding: 92 92 343
Width: 841
VWidth: 1798
GlyphClass: 2
Flags: W
LayerCount: 2
Fore
SplineSet
649 -375 m 1,0,-1
 41 1206 l 1,1,-1
 217 1206 l 1,2,-1
 825 -375 l 1,3,-1
 649 -375 l 1,0,-1
EndSplineSet
EndChar

StartChar: bar
Encoding: 124 124 344
Width: 500
VWidth: 1798
GlyphClass: 2
Flags: W
LayerCount: 2
Fore
SplineSet
325 1206 m 1,0,-1
 325 -520 l 1,1,-1
 176 -520 l 1,2,-1
 176 1206 l 1,3,-1
 325 1206 l 1,0,-1
EndSplineSet
EndChar

StartChar: braceleft
Encoding: 123 123 345
Width: 693
VWidth: 1798
GlyphClass: 2
Flags: W
LayerCount: 2
Fore
SplineSet
671 -501 m 1,0,-1
 632 -616 l 1,1,2
 496 -577 496 -577 418.5 -508 c 128,-1,3
 341 -439 341 -439 308.5 -347.5 c 128,-1,4
 276 -256 276 -256 276 -151 c 2,5,-1
 276 55 l 2,6,7
 276 164 276 164 226.5 228.5 c 128,-1,8
 177 293 177 293 64 293 c 1,9,-1
 64 438 l 1,10,11
 177 438 177 438 226.5 502 c 128,-1,12
 276 566 276 566 276 675 c 2,13,-1
 276 882 l 2,14,15
 276 987 276 987 308.5 1078.5 c 128,-1,16
 341 1170 341 1170 418.5 1239.5 c 128,-1,17
 496 1309 496 1309 632 1347 c 1,18,-1
 671 1233 l 1,19,20
 552 1196 552 1196 507 1100.5 c 128,-1,21
 462 1005 462 1005 462 882 c 2,22,-1
 462 675 l 2,23,24
 462 575 462 575 422 493.5 c 128,-1,25
 382 412 382 412 295 365 c 1,26,27
 382 319 382 319 422 237 c 128,-1,28
 462 155 462 155 462 55 c 2,29,-1
 462 -151 l 2,30,31
 462 -274 462 -274 507.5 -368.5 c 128,-1,32
 553 -463 553 -463 671 -501 c 1,0,-1
EndSplineSet
EndChar

StartChar: braceright
Encoding: 125 125 346
Width: 693
VWidth: 1798
GlyphClass: 2
Flags: W
LayerCount: 2
Fore
SplineSet
59 -616 m 1,0,-1
 20 -501 l 1,1,2
 139 -463 139 -463 184 -368.5 c 128,-1,3
 229 -274 229 -274 229 -151 c 2,4,-1
 229 55 l 2,5,6
 229 160 229 160 272.5 241 c 128,-1,7
 316 322 316 322 411 365 c 1,8,9
 316 408 316 408 272.5 489.5 c 128,-1,10
 229 571 229 571 229 675 c 2,11,-1
 229 882 l 2,12,13
 229 1005 229 1005 184 1100.5 c 128,-1,14
 139 1196 139 1196 20 1233 c 1,15,-1
 59 1347 l 1,16,17
 196 1309 196 1309 273.5 1239.5 c 128,-1,18
 351 1170 351 1170 383 1078.5 c 128,-1,19
 415 987 415 987 415 882 c 2,20,-1
 415 675 l 2,21,22
 415 566 415 566 465 502 c 128,-1,23
 515 438 515 438 627 438 c 1,24,-1
 627 293 l 1,25,26
 515 293 515 293 465 228.5 c 128,-1,27
 415 164 415 164 415 55 c 2,28,-1
 415 -151 l 2,29,30
 415 -256 415 -256 383 -347.5 c 128,-1,31
 351 -439 351 -439 273.5 -508 c 128,-1,32
 196 -577 196 -577 59 -616 c 1,0,-1
EndSplineSet
EndChar

StartChar: bracketleft
Encoding: 91 91 347
Width: 543
VWidth: 1798
GlyphClass: 2
Flags: W
LayerCount: 2
Fore
SplineSet
523 1262 m 1,0,-1
 332 1262 l 1,1,-1
 332 -410 l 1,2,-1
 523 -410 l 1,3,-1
 523 -562 l 1,4,-1
 156 -562 l 1,5,-1
 156 1414 l 1,6,-1
 523 1414 l 1,7,-1
 523 1262 l 1,0,-1
EndSplineSet
Position2: "Single Positioning lookup 9 subtable" dx=0 dy=0 dh=100 dv=0
Position2: "Single Positioning lookup 8 subtable" dx=0 dy=0 dh=160 dv=0
EndChar

StartChar: bracketright
Encoding: 93 93 348
Width: 543
VWidth: 1798
GlyphClass: 2
Flags: W
LayerCount: 2
Fore
SplineSet
9 1414 m 1,0,-1
 377 1414 l 1,1,-1
 377 -562 l 1,2,-1
 9 -562 l 1,3,-1
 9 -410 l 1,4,-1
 202 -410 l 1,5,-1
 202 1262 l 1,6,-1
 9 1262 l 1,7,-1
 9 1414 l 1,0,-1
EndSplineSet
EndChar

StartChar: breve
Encoding: 728 728 349
Width: 875
VWidth: 1798
GlyphClass: 2
Flags: W
LayerCount: 2
Fore
SplineSet
578 1245 m 1,0,-1
 728 1245 l 1,1,2
 728 1127 728 1127 648 1052.5 c 128,-1,3
 568 978 568 978 430 978 c 0,4,5
 291 978 291 978 210.5 1052.5 c 128,-1,6
 130 1127 130 1127 130 1245 c 1,7,-1
 280 1245 l 1,8,9
 280 1186 280 1186 314 1141 c 128,-1,10
 348 1096 348 1096 430 1096 c 0,11,12
 510 1096 510 1096 544 1141 c 128,-1,13
 578 1186 578 1186 578 1245 c 1,0,-1
EndSplineSet
EndChar

StartChar: brokenbar
Encoding: 166 166 350
Width: 492
VWidth: 1798
GlyphClass: 2
Flags: W
LayerCount: 2
Fore
SplineSet
333 1206 m 1,0,-1
 333 448 l 1,1,-1
 148 448 l 1,2,-1
 148 1206 l 1,3,-1
 333 1206 l 1,0,-1
333 -520 m 1,4,-1
 148 -520 l 1,5,-1
 148 272 l 1,6,-1
 333 272 l 1,7,-1
 333 -520 l 1,4,-1
EndSplineSet
EndChar

StartChar: bullet
Encoding: 8226 8226 351
Width: 691
GlyphClass: 2
Flags: W
LayerCount: 2
Fore
SplineSet
139 732 m 2,0,-1
 139 773 l 2,1,2
 139 859 139 859 193.5 915 c 128,-1,3
 248 971 248 971 342 971 c 0,4,5
 437 971 437 971 492 915 c 128,-1,6
 547 859 547 859 547 773 c 2,7,-1
 547 732 l 2,8,9
 547 647 547 647 492.5 591.5 c 128,-1,10
 438 536 438 536 343 536 c 0,11,12
 249 536 249 536 194 591.5 c 128,-1,13
 139 647 139 647 139 732 c 2,0,-1
EndSplineSet
EndChar

StartChar: c
Encoding: 99 99 352
Width: 1072
VWidth: 1798
GlyphClass: 2
Flags: W
AnchorPoint: "Anchor-1" 533 -260 basechar 0
AnchorPoint: "Anchor-0" 533 1040 basechar 0
LayerCount: 2
Fore
SplineSet
574 -118 m 0,0,1
 673 -118 673 -118 747.5 -58.5 c 128,-1,2
 822 1 822 1 829 92 c 1,3,-1
 1005 92 l 1,4,5
 1000 -4 1000 -4 940.5 -86.5 c 128,-1,6
 881 -169 881 -169 785 -219.5 c 128,-1,7
 689 -270 689 -270 574 -270 c 0,8,9
 411 -270 411 -270 304.5 -195.5 c 128,-1,10
 198 -121 198 -121 145.5 2 c 128,-1,11
 93 125 93 125 93 270 c 2,12,-1
 93 312 l 2,13,14
 93 457 93 457 145.5 580 c 128,-1,15
 198 703 198 703 305 777.5 c 128,-1,16
 412 852 412 852 574 852 c 0,17,18
 701 852 701 852 796 800.5 c 128,-1,19
 891 749 891 749 945.5 660.5 c 128,-1,20
 1000 572 1000 572 1005 460 c 1,21,-1
 829 460 l 1,22,23
 822 560 822 560 753.5 630 c 128,-1,24
 685 700 685 700 574 700 c 0,25,26
 460 700 460 700 395.5 642 c 128,-1,27
 331 584 331 584 304.5 495 c 128,-1,28
 278 406 278 406 278 312 c 2,29,-1
 278 270 l 2,30,31
 278 175 278 175 304 86 c 128,-1,32
 330 -3 330 -3 394.5 -60.5 c 128,-1,33
 459 -118 459 -118 574 -118 c 0,0,1
EndSplineSet
Substitution2: "'unic' Unicase lookup 2 subtable" C
Substitution2: "'smcp' Lowercase to Small Capitals lookup 1 subtable" C.smcp
EndChar

StartChar: caron
Encoding: 711 711 354
Width: 910
VWidth: 1798
GlyphClass: 2
Flags: W
LayerCount: 2
Fore
SplineSet
298 1285 m 1,0,-1
 449 1115 l 1,1,-1
 600 1285 l 1,2,-1
 760 1285 l 1,3,-1
 760 1275 l 1,4,-1
 506 1001 l 1,5,-1
 392 1001 l 1,6,-1
 142 1275 l 1,7,-1
 142 1285 l 1,8,-1
 298 1285 l 1,0,-1
EndSplineSet
EndChar

StartChar: cedilla
Encoding: 184 184 358
Width: 508
VWidth: 1798
GlyphClass: 2
Flags: W
LayerCount: 2
Fore
SplineSet
152 -250 m 1,0,-1
 285 -250 l 1,1,-1
 273 -303 l 1,2,3
 331 -313 331 -313 378.5 -351 c 128,-1,4
 426 -389 426 -389 426 -476 c 0,5,6
 426 -570 426 -570 349 -627.5 c 128,-1,7
 272 -685 272 -685 123 -685 c 1,8,-1
 116 -578 l 1,9,10
 185 -578 185 -578 233.5 -555 c 128,-1,11
 282 -532 282 -532 282 -479 c 0,12,13
 282 -429 282 -429 243.5 -410.5 c 128,-1,14
 205 -392 205 -392 121 -385 c 1,15,-1
 152 -250 l 1,0,-1
EndSplineSet
EndChar

StartChar: cent
Encoding: 162 162 359
Width: 1121
VWidth: 1798
GlyphClass: 2
Flags: W
LayerCount: 2
Fore
SplineSet
587 -118 m 0,0,1
 686 -118 686 -118 760.5 -58.5 c 128,-1,2
 835 1 835 1 842 92 c 1,3,-1
 1018 92 l 1,4,5
 1013 7 1013 7 966 -67 c 128,-1,6
 919 -141 919 -141 842 -193 c 128,-1,7
 765 -245 765 -245 670 -263 c 1,8,-1
 670 -495 l 1,9,-1
 484 -495 l 1,10,-1
 484 -261 l 1,11,12
 356 -237 356 -237 272 -160 c 128,-1,13
 188 -83 188 -83 146.5 29 c 128,-1,14
 105 141 105 141 105 270 c 2,15,-1
 105 312 l 2,16,17
 105 441 105 441 146.5 553 c 128,-1,18
 188 665 188 665 272 742 c 128,-1,19
 356 819 356 819 484 843 c 1,20,-1
 484 1068 l 1,21,-1
 670 1068 l 1,22,-1
 670 846 l 1,23,24
 825 821 825 821 918 714.5 c 128,-1,25
 1011 608 1011 608 1018 460 c 1,26,-1
 842 460 l 1,27,28
 835 560 835 560 766.5 630 c 128,-1,29
 698 700 698 700 587 700 c 0,30,31
 473 700 473 700 408.5 642 c 128,-1,32
 344 584 344 584 317.5 495 c 128,-1,33
 291 406 291 406 291 312 c 2,34,-1
 291 270 l 2,35,36
 291 175 291 175 317 86 c 128,-1,37
 343 -3 343 -3 407.5 -60.5 c 128,-1,38
 472 -118 472 -118 587 -118 c 0,0,1
EndSplineSet
EndChar

StartChar: circumflex
Encoding: 710 710 360
Width: 964
VWidth: 1798
GlyphClass: 2
Flags: W
LayerCount: 2
Fore
SplineSet
527 1286 m 1,0,-1
 775 1013 l 1,1,-1
 775 1003 l 1,2,-1
 621 1003 l 1,3,-1
 471 1172 l 1,4,-1
 322 1003 l 1,5,-1
 170 1003 l 1,6,-1
 170 1014 l 1,7,-1
 415 1286 l 1,8,-1
 527 1286 l 1,0,-1
EndSplineSet
EndChar

StartChar: colon
Encoding: 58 58 361
Width: 556
VWidth: 1798
GlyphClass: 2
Flags: W
LayerCount: 2
Fore
SplineSet
145 472 m 0,0,1
 145 527 145 527 184 566.5 c 128,-1,2
 223 606 223 606 278 606 c 256,3,4
 333 606 333 606 372 566.5 c 128,-1,5
 411 527 411 527 411 472 c 256,6,7
 411 417 411 417 372 378 c 128,-1,8
 333 339 333 339 278 339 c 256,9,10
 223 339 223 339 184 377 c 128,-1,11
 145 415 145 415 145 472 c 0,0,1
145 -116 m 0,12,13
 145 -61 145 -61 184 -21.5 c 128,-1,14
 223 18 223 18 278 18 c 256,15,16
 333 18 333 18 372 -21.5 c 128,-1,17
 411 -61 411 -61 411 -116 c 256,18,19
 411 -171 411 -171 372 -210 c 128,-1,20
 333 -249 333 -249 278 -249 c 256,21,22
 223 -249 223 -249 184 -211 c 128,-1,23
 145 -173 145 -173 145 -116 c 0,12,13
EndSplineSet
EndChar

StartChar: comma
Encoding: 44 44 362
Width: 403
VWidth: 1798
GlyphClass: 2
Flags: W
LayerCount: 2
Fore
SplineSet
309 -30 m 1,0,-1
 309 -179 l 2,1,2
 309 -270 309 -270 263 -371.5 c 128,-1,3
 217 -473 217 -473 134 -541 c 1,4,-1
 29 -468 l 1,5,6
 76 -402 76 -402 102 -332.5 c 128,-1,7
 128 -263 128 -263 128 -182 c 2,8,-1
 128 -30 l 1,9,-1
 309 -30 l 1,0,-1
EndSplineSet
EndChar

StartChar: commaaccent
Encoding: 65725 -1 363
Width: 516
GlyphClass: 1
Flags: W
LayerCount: 2
Fore
SplineSet
343 239 m 1,0,-1
 343 160 l 2,1,2
 343 81 343 81 307.5 -10 c 128,-1,3
 272 -101 272 -101 198 -162 c 1,4,-1
 93 -89 l 1,5,6
 130 -32 130 -32 148.5 28 c 128,-1,7
 167 88 167 88 167 158 c 2,8,-1
 167 239 l 1,9,-1
 343 239 l 1,0,-1
EndSplineSet
EndChar

StartChar: commaaccentrotate
Encoding: 65726 -1 364
Width: 510
GlyphClass: 1
Flags: W
LayerCount: 2
Fore
SplineSet
159 1167 m 1,0,-1
 159 1296 l 2,1,2
 159 1355 159 1355 181 1413.5 c 128,-1,3
 203 1472 203 1472 235.5 1520 c 128,-1,4
 268 1568 268 1568 299 1596 c 1,5,-1
 406 1513 l 1,6,7
 372 1453 372 1453 358.5 1401 c 128,-1,8
 345 1349 345 1349 345 1287 c 2,9,-1
 345 1167 l 1,10,-1
 159 1167 l 1,0,-1
EndSplineSet
EndChar

StartChar: copyright
Encoding: 169 169 365
Width: 1609
VWidth: 1798
GlyphClass: 2
Flags: W
LayerCount: 2
Fore
SplineSet
92 479 m 256,0,1
 92 638 92 638 147 774 c 128,-1,2
 202 910 202 910 300 1011.5 c 128,-1,3
 398 1113 398 1113 526.5 1169.5 c 128,-1,4
 655 1226 655 1226 802 1226 c 256,5,6
 949 1226 949 1226 1077.5 1169.5 c 128,-1,7
 1206 1113 1206 1113 1303.5 1011.5 c 128,-1,8
 1401 910 1401 910 1456 774 c 128,-1,9
 1511 638 1511 638 1511 479 c 256,10,11
 1511 320 1511 320 1456 184 c 128,-1,12
 1401 48 1401 48 1303.5 -54.5 c 128,-1,13
 1206 -157 1206 -157 1077.5 -214 c 128,-1,14
 949 -271 949 -271 802 -271 c 256,15,16
 655 -271 655 -271 526.5 -214 c 128,-1,17
 398 -157 398 -157 300 -54.5 c 128,-1,18
 202 48 202 48 147 184 c 128,-1,19
 92 320 92 320 92 479 c 256,0,1
207 479 m 0,20,21
 207 346 207 346 253 231 c 128,-1,22
 299 116 299 116 381 30 c 128,-1,23
 463 -56 463 -56 571 -104 c 128,-1,24
 679 -152 679 -152 802 -152 c 256,25,26
 925 -152 925 -152 1032.5 -104 c 128,-1,27
 1140 -56 1140 -56 1221.5 30 c 128,-1,28
 1303 116 1303 116 1349 231 c 128,-1,29
 1395 346 1395 346 1395 479 c 0,30,31
 1395 613 1395 613 1349 727 c 128,-1,32
 1303 841 1303 841 1221.5 926.5 c 128,-1,33
 1140 1012 1140 1012 1032.5 1059.5 c 128,-1,34
 925 1107 925 1107 802 1107 c 256,35,36
 679 1107 679 1107 571 1059.5 c 128,-1,37
 463 1012 463 1012 381 926.5 c 128,-1,38
 299 841 299 841 253 727 c 128,-1,39
 207 613 207 613 207 479 c 0,20,21
974 348 m 1,40,-1
 1120 348 l 1,41,42
 1120 191 1120 191 1030.5 112.5 c 128,-1,43
 941 34 941 34 788 34 c 0,44,45
 629 34 629 34 535.5 141.5 c 128,-1,46
 442 249 442 249 442 421 c 2,47,-1
 442 536 l 2,48,49
 442 708 442 708 535.5 815.5 c 128,-1,50
 629 923 629 923 788 923 c 0,51,52
 941 923 941 923 1031 845 c 128,-1,53
 1121 767 1121 767 1121 610 c 1,54,-1
 975 610 l 1,55,56
 975 709 975 709 927.5 752 c 128,-1,57
 880 795 880 795 788 795 c 0,58,59
 689 795 689 795 637.5 722.5 c 128,-1,60
 586 650 586 650 586 537 c 2,61,-1
 586 421 l 2,62,63
 586 307 586 307 637.5 234.5 c 128,-1,64
 689 162 689 162 788 162 c 0,65,66
 880 162 880 162 927 205 c 128,-1,67
 974 248 974 248 974 348 c 1,40,-1
EndSplineSet
EndChar

StartChar: crossbar
Encoding: 65727 -1 366
Width: 919
GlyphClass: 1
Flags: W
LayerCount: 2
Fore
SplineSet
780 803 m 1,0,-1
 780 651 l 1,1,-1
 143 651 l 1,2,-1
 143 803 l 1,3,-1
 780 803 l 1,0,-1
EndSplineSet
EndChar

StartChar: currency
Encoding: 164 164 367
Width: 1461
VWidth: 1798
GlyphClass: 2
Flags: W
LayerCount: 2
Fore
SplineSet
140 358 m 0,0,1
 140 463 140 463 169.5 557 c 128,-1,2
 199 651 199 651 252 728 c 1,3,-1
 105 878 l 1,4,-1
 236 1014 l 1,5,-1
 382 865 l 1,6,7
 456 921 456 921 546 952.5 c 128,-1,8
 636 984 636 984 735 984 c 0,9,10
 835 984 835 984 925.5 952 c 128,-1,11
 1016 920 1016 920 1090 863 c 1,12,-1
 1239 1015 l 1,13,-1
 1371 878 l 1,14,-1
 1220 724 l 1,15,16
 1272 648 1272 648 1301 555 c 128,-1,17
 1330 462 1330 462 1330 358 c 0,18,19
 1330 259 1330 259 1303.5 169 c 128,-1,20
 1277 79 1277 79 1229 4 c 1,21,-1
 1371 -140 l 1,22,-1
 1239 -277 l 1,23,-1
 1103 -138 l 1,24,25
 1027 -200 1027 -200 933 -235 c 128,-1,26
 839 -270 839 -270 735 -270 c 0,27,28
 632 -270 632 -270 538.5 -235.5 c 128,-1,29
 445 -201 445 -201 370 -140 c 1,30,-1
 236 -276 l 1,31,-1
 105 -140 l 1,32,-1
 244 1 l 1,33,34
 195 76 195 76 167.5 166.5 c 128,-1,35
 140 257 140 257 140 358 c 0,0,1
312 358 m 256,36,37
 312 232 312 232 369 128.5 c 128,-1,38
 426 25 426 25 522 -36.5 c 128,-1,39
 618 -98 618 -98 735 -98 c 256,40,41
 852 -98 852 -98 948 -36.5 c 128,-1,42
 1044 25 1044 25 1100.5 128.5 c 128,-1,43
 1157 232 1157 232 1157 358 c 256,44,45
 1157 484 1157 484 1100.5 587 c 128,-1,46
 1044 690 1044 690 948 751 c 128,-1,47
 852 812 852 812 735 812 c 256,48,49
 618 812 618 812 522 751 c 128,-1,50
 426 690 426 690 369 587 c 128,-1,51
 312 484 312 484 312 358 c 256,36,37
EndSplineSet
EndChar

StartChar: d
Encoding: 100 100 368
Width: 1155
VWidth: 1798
GlyphClass: 2
Flags: W
AnchorPoint: "Anchor-1" 617 -250 basechar 0
AnchorPoint: "Anchor-0" 549 1362 basechar 0
LayerCount: 2
Fore
SplineSet
95 279 m 2,0,-1
 95 300 l 2,1,2
 95 465 95 465 148.5 589.5 c 128,-1,3
 202 714 202 714 298 783 c 128,-1,4
 394 852 394 852 523 852 c 0,5,6
 621 852 621 852 695.5 819 c 128,-1,7
 770 786 770 786 823 724 c 1,8,-1
 823 1286 l 1,9,-1
 1009 1286 l 1,10,-1
 1009 -250 l 1,11,-1
 839 -250 l 1,12,-1
 830 -134 l 1,13,14
 777 -199 777 -199 700 -234.5 c 128,-1,15
 623 -270 623 -270 521 -270 c 0,16,17
 394 -270 394 -270 298 -198.5 c 128,-1,18
 202 -127 202 -127 148.5 -3 c 128,-1,19
 95 121 95 121 95 279 c 2,0,-1
281 300 m 2,20,-1
 281 279 l 2,21,22
 281 172 281 172 311 82.5 c 128,-1,23
 341 -7 341 -7 404 -60 c 128,-1,24
 467 -113 467 -113 567 -113 c 0,25,26
 664 -113 664 -113 725 -69 c 128,-1,27
 786 -25 786 -25 823 44 c 1,28,-1
 823 542 l 1,29,30
 787 609 787 609 725.5 652.5 c 128,-1,31
 664 696 664 696 569 696 c 0,32,33
 468 696 468 696 404.5 642 c 128,-1,34
 341 588 341 588 311 498 c 128,-1,35
 281 408 281 408 281 300 c 2,20,-1
EndSplineSet
Substitution2: "'unic' Unicase lookup 2 subtable" D
Substitution2: "'smcp' Lowercase to Small Capitals lookup 1 subtable" D.smcp
EndChar

StartChar: dagger
Encoding: 8224 8224 369
Width: 1130
GlyphClass: 2
Flags: W
LayerCount: 2
Fore
SplineSet
1060 1082 m 1,0,-1
 1060 929 l 1,1,-1
 656 929 l 1,2,-1
 656 0 l 1,3,-1
 471 0 l 1,4,-1
 471 929 l 1,5,-1
 70 929 l 1,6,-1
 70 1082 l 1,7,-1
 471 1082 l 1,8,-1
 471 1456 l 1,9,-1
 656 1456 l 1,10,-1
 656 1082 l 1,11,-1
 1060 1082 l 1,0,-1
EndSplineSet
EndChar

StartChar: daggerdbl
Encoding: 8225 8225 370
Width: 1168
GlyphClass: 2
Flags: W
LayerCount: 2
Fore
SplineSet
1076 152 m 1,0,-1
 1076 0 l 1,1,-1
 670 0 l 1,2,-1
 670 -416 l 1,3,-1
 485 -416 l 1,4,-1
 485 0 l 1,5,-1
 87 0 l 1,6,-1
 87 152 l 1,7,-1
 485 152 l 1,8,-1
 485 929 l 1,9,-1
 87 929 l 1,10,-1
 87 1082 l 1,11,-1
 485 1082 l 1,12,-1
 485 1456 l 1,13,-1
 670 1456 l 1,14,-1
 670 1082 l 1,15,-1
 1076 1082 l 1,16,-1
 1076 929 l 1,17,-1
 670 929 l 1,18,-1
 670 152 l 1,19,-1
 1076 152 l 1,0,-1
EndSplineSet
EndChar

StartChar: dcroat
Encoding: 273 273 372
Width: 1224
VWidth: 1798
GlyphClass: 2
Flags: W
AnchorPoint: "Anchor-1" 617 -250 basechar 0
AnchorPoint: "Anchor-0" 549 1361 basechar 0
LayerCount: 2
Fore
SplineSet
95 279 m 2,0,-1
 95 300 l 2,1,2
 95 465 95 465 148.5 589.5 c 128,-1,3
 202 714 202 714 298 783 c 128,-1,4
 394 852 394 852 523 852 c 0,5,6
 621 852 621 852 695.5 819 c 128,-1,7
 770 786 770 786 823 724 c 1,8,-1
 823 983 l 1,9,-1
 560 983 l 1,10,-1
 560 1135 l 1,11,-1
 823 1135 l 1,12,-1
 823 1286 l 1,13,-1
 1009 1286 l 1,14,-1
 1009 1135 l 1,15,-1
 1197 1135 l 1,16,-1
 1197 983 l 1,17,-1
 1009 983 l 1,18,-1
 1009 -250 l 1,19,-1
 839 -250 l 1,20,-1
 830 -134 l 1,21,22
 777 -199 777 -199 700 -234.5 c 128,-1,23
 623 -270 623 -270 521 -270 c 0,24,25
 394 -270 394 -270 298 -198.5 c 128,-1,26
 202 -127 202 -127 148.5 -3 c 128,-1,27
 95 121 95 121 95 279 c 2,0,-1
281 300 m 2,28,-1
 281 279 l 2,29,30
 281 172 281 172 311 82.5 c 128,-1,31
 341 -7 341 -7 404 -60 c 128,-1,32
 467 -113 467 -113 567 -113 c 0,33,34
 664 -113 664 -113 725 -69 c 128,-1,35
 786 -25 786 -25 823 44 c 1,36,-1
 823 542 l 1,37,38
 787 609 787 609 725.5 652.5 c 128,-1,39
 664 696 664 696 569 696 c 0,40,41
 468 696 468 696 404.5 642 c 128,-1,42
 341 588 341 588 311 498 c 128,-1,43
 281 408 281 408 281 300 c 2,28,-1
EndSplineSet
Substitution2: "'unic' Unicase lookup 2 subtable" Dcroat
Substitution2: "'smcp' Lowercase to Small Capitals lookup 1 subtable" Dcroat.smcp
EndChar

StartChar: degree
Encoding: 176 176 373
Width: 765
VWidth: 1798
GlyphClass: 2
Flags: W
LayerCount: 2
Fore
SplineSet
131 967 m 256,0,1
 131 1038 131 1038 166 1097 c 128,-1,2
 201 1156 201 1156 259 1191.5 c 128,-1,3
 317 1227 317 1227 386 1227 c 256,4,5
 455 1227 455 1227 512 1191.5 c 128,-1,6
 569 1156 569 1156 603 1097 c 128,-1,7
 637 1038 637 1038 637 967 c 256,8,9
 637 896 637 896 603 837.5 c 128,-1,10
 569 779 569 779 512 744.5 c 128,-1,11
 455 710 455 710 386 710 c 256,12,13
 317 710 317 710 259 744.5 c 128,-1,14
 201 779 201 779 166 837.5 c 128,-1,15
 131 896 131 896 131 967 c 256,0,1
255 967 m 0,16,17
 255 912 255 912 293.5 875 c 128,-1,18
 332 838 332 838 386 838 c 256,19,20
 440 838 440 838 476.5 875 c 128,-1,21
 513 912 513 912 513 967 c 0,22,23
 513 1023 513 1023 476.5 1061 c 128,-1,24
 440 1099 440 1099 386 1099 c 256,25,26
 332 1099 332 1099 293.5 1061 c 128,-1,27
 255 1023 255 1023 255 967 c 0,16,17
EndSplineSet
EndChar

StartChar: dieresis
Encoding: 168 168 374
Width: 857
VWidth: 1798
GlyphClass: 2
Flags: W
LayerCount: 2
Fore
SplineSet
101 1121 m 0,0,1
 101 1166 101 1166 129 1197 c 128,-1,2
 157 1228 157 1228 210 1228 c 0,3,4
 264 1228 264 1228 292 1197 c 128,-1,5
 320 1166 320 1166 320 1121 c 0,6,7
 320 1078 320 1078 292 1047.5 c 128,-1,8
 264 1017 264 1017 210 1017 c 0,9,10
 157 1017 157 1017 129 1047.5 c 128,-1,11
 101 1078 101 1078 101 1121 c 0,0,1
532 1119 m 0,12,13
 532 1164 532 1164 559.5 1195 c 128,-1,14
 587 1226 587 1226 641 1226 c 0,15,16
 694 1226 694 1226 722.5 1195 c 128,-1,17
 751 1164 751 1164 751 1119 c 0,18,19
 751 1076 751 1076 722.5 1045.5 c 128,-1,20
 694 1015 694 1015 641 1015 c 0,21,22
 587 1015 587 1015 559.5 1045.5 c 128,-1,23
 532 1076 532 1076 532 1119 c 0,12,13
EndSplineSet
EndChar

StartChar: divide
Encoding: 247 247 375
Width: 1164
VWidth: 1798
GlyphClass: 2
Flags: W
LayerCount: 2
Fore
SplineSet
469 601 m 0,0,1
 469 649 469 649 503.5 684 c 128,-1,2
 538 719 538 719 586 719 c 256,3,4
 634 719 634 719 668.5 684 c 128,-1,5
 703 649 703 649 703 601 c 256,6,7
 703 553 703 553 668.5 518.5 c 128,-1,8
 634 484 634 484 586 484 c 256,9,10
 538 484 538 484 503.5 518 c 128,-1,11
 469 552 469 552 469 601 c 0,0,1
140 197 m 1,12,-1
 140 348 l 1,13,-1
 1024 348 l 1,14,-1
 1024 197 l 1,15,-1
 140 197 l 1,12,-1
469 -61 m 0,16,17
 469 -13 469 -13 503.5 22 c 128,-1,18
 538 57 538 57 586 57 c 256,19,20
 634 57 634 57 668.5 22 c 128,-1,21
 703 -13 703 -13 703 -61 c 256,22,23
 703 -109 703 -109 668.5 -143.5 c 128,-1,24
 634 -178 634 -178 586 -178 c 256,25,26
 538 -178 538 -178 503.5 -144 c 128,-1,27
 469 -110 469 -110 469 -61 c 0,16,17
EndSplineSet
EndChar

StartChar: dollar
Encoding: 36 36 376
Width: 1151
VWidth: 1798
GlyphClass: 2
Flags: W
LayerCount: 2
Fore
SplineSet
856 125 m 0,0,1
 856 214 856 214 793 279 c 128,-1,2
 730 344 730 344 574 395 c 0,3,4
 384 454 384 454 275 553 c 128,-1,5
 166 652 166 652 166 830 c 0,6,7
 166 996 166 996 262.5 1099.5 c 128,-1,8
 359 1203 359 1203 524 1223 c 1,9,-1
 524 1442 l 1,10,-1
 674 1442 l 1,11,-1
 674 1222 l 1,12,13
 842 1200 842 1200 935.5 1081.5 c 128,-1,14
 1029 963 1029 963 1029 758 c 1,15,-1
 845 758 l 1,16,17
 845 892 845 892 781 978.5 c 128,-1,18
 717 1065 717 1065 597 1065 c 0,19,20
 471 1065 471 1065 411.5 1001 c 128,-1,21
 352 937 352 937 352 833 c 0,22,23
 352 736 352 736 413 675.5 c 128,-1,24
 474 615 474 615 639 559 c 0,25,26
 832 497 832 497 937 401 c 128,-1,27
 1042 305 1042 305 1042 127 c 0,28,29
 1042 -47 1042 -47 937.5 -147.5 c 128,-1,30
 833 -248 833 -248 656 -267 c 1,31,-1
 656 -458 l 1,32,-1
 507 -458 l 1,33,-1
 507 -268 l 1,34,35
 405 -257 405 -257 314 -209.5 c 128,-1,36
 223 -162 223 -162 166.5 -67.5 c 128,-1,37
 110 27 110 27 110 179 c 1,38,-1
 296 179 l 1,39,40
 296 66 296 66 338.5 3.5 c 128,-1,41
 381 -59 381 -59 445.5 -84 c 128,-1,42
 510 -109 510 -109 575 -109 c 0,43,44
 709 -109 709 -109 782.5 -45.5 c 128,-1,45
 856 18 856 18 856 125 c 0,0,1
EndSplineSet
Substitution2: "'c2sc' Capitals to Small Capitals lookup 0 subtable" dollar.smcp
Position2: "'cpsp' Capital Spacing lookup 0 subtable" dx=36 dy=0 dh=72 dv=0
EndChar

StartChar: dollar.smcp
Encoding: 65728 -1 377
Width: 1056
GlyphClass: 2
Flags: W
LayerCount: 2
Fore
SplineSet
803 298 m 0,0,1
 803 347 803 347 780 383.5 c 128,-1,2
 757 420 757 420 698.5 449 c 128,-1,3
 640 478 640 478 531 504 c 0,4,5
 338 551 338 551 223 633.5 c 128,-1,6
 108 716 108 716 108 861 c 0,7,8
 108 989 108 989 208 1076 c 128,-1,9
 308 1163 308 1163 476 1178 c 1,10,-1
 476 1395 l 1,11,-1
 625 1395 l 1,12,-1
 625 1176 l 1,13,14
 797 1155 797 1155 892 1055.5 c 128,-1,15
 987 956 987 956 987 826 c 1,16,-1
 801 826 l 1,17,18
 801 915 801 915 737 972.5 c 128,-1,19
 673 1030 673 1030 540 1030 c 0,20,21
 415 1030 415 1030 354 981.5 c 128,-1,22
 293 933 293 933 293 862 c 0,23,24
 293 794 293 794 360 749.5 c 128,-1,25
 427 705 427 705 587 664 c 0,26,27
 781 615 781 615 885.5 529.5 c 128,-1,28
 990 444 990 444 990 300 c 0,29,30
 990 168 990 168 890.5 86 c 128,-1,31
 791 4 791 4 625 -12 c 1,32,-1
 625 -237 l 1,33,-1
 476 -237 l 1,34,-1
 476 -12 l 1,35,36
 370 -1 370 -1 277 42 c 128,-1,37
 184 85 184 85 126 162 c 128,-1,38
 68 239 68 239 68 349 c 1,39,-1
 254 349 l 1,40,41
 254 272 254 272 294 224.5 c 128,-1,42
 334 177 334 177 401 155.5 c 128,-1,43
 468 134 468 134 548 134 c 0,44,45
 673 134 673 134 738 179.5 c 128,-1,46
 803 225 803 225 803 298 c 0,0,1
EndSplineSet
EndChar

StartChar: dotaccent
Encoding: 729 729 378
Width: 498
VWidth: 1798
GlyphClass: 2
Flags: W
LayerCount: 2
Fore
SplineSet
142 1118 m 256,0,1
 142 1162 142 1162 169.5 1193 c 128,-1,2
 197 1224 197 1224 251 1224 c 0,3,4
 304 1224 304 1224 332.5 1193 c 128,-1,5
 361 1162 361 1162 361 1118 c 256,6,7
 361 1074 361 1074 332.5 1043.5 c 128,-1,8
 304 1013 304 1013 251 1013 c 0,9,10
 197 1013 197 1013 169.5 1043.5 c 128,-1,11
 142 1074 142 1074 142 1118 c 256,0,1
EndSplineSet
EndChar

StartChar: dotbelow
Encoding: 803 803 379
Width: 0
VWidth: 1798
GlyphClass: 4
Flags: W
AnchorPoint: "Anchor-2" -597 -604 basemark 0
AnchorPoint: "Anchor-2" -597 -250 mark 0
AnchorPoint: "Anchor-1" -597 -250 mark 0
LayerCount: 2
Fore
SplineSet
-712 -496 m 0,0,1
 -712 -451 -712 -451 -684.5 -420 c 128,-1,2
 -657 -389 -657 -389 -603 -389 c 0,3,4
 -550 -389 -550 -389 -521.5 -420 c 128,-1,5
 -493 -451 -493 -451 -493 -496 c 0,6,7
 -493 -539 -493 -539 -521.5 -569.5 c 128,-1,8
 -550 -600 -550 -600 -603 -600 c 0,9,10
 -657 -600 -657 -600 -684.5 -569.5 c 128,-1,11
 -712 -539 -712 -539 -712 -496 c 0,0,1
EndSplineSet
EndChar

StartChar: dotlessi
Encoding: 305 305 380
Width: 507
VWidth: 1798
GlyphClass: 2
Flags: W
AnchorPoint: "Anchor-1" 249 -240 basechar 0
AnchorPoint: "Anchor-0" 252 1038 basechar 0
LayerCount: 2
Fore
SplineSet
341 832 m 1,0,-1
 341 -250 l 1,1,-1
 156 -250 l 1,2,-1
 156 832 l 1,3,-1
 341 832 l 1,0,-1
EndSplineSet
Substitution2: "'smcp' Lowercase to Small Capitals lookup 1 subtable" I.smcp
EndChar

StartChar: e
Encoding: 101 101 381
Width: 1086
VWidth: 1798
GlyphClass: 2
Flags: W
AnchorPoint: "Anchor-1" 568 -250 basechar 0
AnchorPoint: "Anchor-0" 565 1040 basechar 0
LayerCount: 2
Fore
SplineSet
590 -270 m 0,0,1
 439 -270 439 -270 327.5 -203 c 128,-1,2
 216 -136 216 -136 154.5 -17.5 c 128,-1,3
 93 101 93 101 93 253 c 2,4,-1
 93 295 l 2,5,6
 93 472 93 472 160.5 596.5 c 128,-1,7
 228 721 228 721 336.5 786.5 c 128,-1,8
 445 852 445 852 566 852 c 0,9,10
 721 852 721 852 819.5 782.5 c 128,-1,11
 918 713 918 713 964.5 593.5 c 128,-1,12
 1011 474 1011 474 1011 322 c 2,13,-1
 1011 239 l 1,14,-1
 279 239 l 1,15,16
 282 140 282 140 321 58.5 c 128,-1,17
 360 -23 360 -23 430.5 -71 c 128,-1,18
 501 -119 501 -119 600 -119 c 0,19,20
 698 -119 698 -119 766 -79 c 128,-1,21
 834 -39 834 -39 885 28 c 1,22,-1
 997 -61 l 1,23,24
 945 -141 945 -141 848 -205.5 c 128,-1,25
 751 -270 751 -270 590 -270 c 0,0,1
566 700 m 0,26,27
 456 700 456 700 380 620 c 128,-1,28
 304 540 304 540 285 390 c 1,29,-1
 826 390 l 1,30,-1
 826 404 l 1,31,32
 822 476 822 476 796.5 544 c 128,-1,33
 771 612 771 612 716 656 c 128,-1,34
 661 700 661 700 566 700 c 0,26,27
EndSplineSet
Substitution2: "'unic' Unicase lookup 2 subtable" E.unic
Substitution2: "'smcp' Lowercase to Small Capitals lookup 1 subtable" E.smcp
EndChar

StartChar: eight
Encoding: 56 56 389
Width: 1151
VWidth: 1798
GlyphClass: 2
Flags: W
LayerCount: 2
Fore
SplineSet
1039 144 m 0,0,1
 1039 11 1039 11 977.5 -81.5 c 128,-1,2
 916 -174 916 -174 811.5 -222 c 128,-1,3
 707 -270 707 -270 576 -270 c 256,4,5
 445 -270 445 -270 340 -222 c 128,-1,6
 235 -174 235 -174 174 -81.5 c 128,-1,7
 113 11 113 11 113 144 c 0,8,9
 113 266 113 266 178.5 359.5 c 128,-1,10
 244 453 244 453 356 501 c 1,11,12
 259 548 259 548 202.5 634 c 128,-1,13
 146 720 146 720 146 827 c 0,14,15
 146 954 146 954 201.5 1043 c 128,-1,16
 257 1132 257 1132 354 1179 c 128,-1,17
 451 1226 451 1226 575 1226 c 0,18,19
 700 1226 700 1226 797 1179 c 128,-1,20
 894 1132 894 1132 949.5 1043 c 128,-1,21
 1005 954 1005 954 1005 827 c 0,22,23
 1005 719 1005 719 947 633.5 c 128,-1,24
 889 548 889 548 792 501 c 1,25,26
 905 453 905 453 972 359 c 128,-1,27
 1039 265 1039 265 1039 144 c 0,0,1
820 824 m 0,28,29
 820 933 820 933 752 1003.5 c 128,-1,30
 684 1074 684 1074 575 1074 c 256,31,32
 466 1074 466 1074 399 1006.5 c 128,-1,33
 332 939 332 939 332 824 c 0,34,35
 332 711 332 711 399 643 c 128,-1,36
 466 575 466 575 576 575 c 0,37,38
 685 575 685 575 752.5 643 c 128,-1,39
 820 711 820 711 820 824 c 0,28,29
853 148 m 0,40,41
 853 270 853 270 776 347 c 128,-1,42
 699 424 699 424 574 424 c 0,43,44
 447 424 447 424 372.5 347 c 128,-1,45
 298 270 298 270 298 148 c 0,46,47
 298 22 298 22 372.5 -48 c 128,-1,48
 447 -118 447 -118 576 -118 c 256,49,50
 705 -118 705 -118 779 -48 c 128,-1,51
 853 22 853 22 853 148 c 0,40,41
EndSplineSet
Substitution2: "'ss01' Style Set 1 lookup 35 subtable" uni06F8
Substitution2: "'numr' Numerators lookup 21 subtable" eight.frac
Substitution2: "'dnom' Denominators lookup 20 subtable" eight.sup
Substitution2: "'frac' Diagonal Fractions lookup 19 subtable" eight.frac
Substitution2: "Single Substitution lookup 18 subtable" eight.sup
Substitution2: "'lnum' Lining Figures lookup 15 subtable" eight.pnum
Substitution2: "'onum' Oldstyle Figures lookup 14 subtable" eight.tnum
Substitution2: "'c2sc' Capitals to Small Capitals lookup 0 subtable" eight.smcp
Position2: "'cpsp' Capital Spacing lookup 0 subtable" dx=36 dy=0 dh=72 dv=0
EndChar

StartChar: eight.smcp
Encoding: 65731 -1 392
Width: 1040
GlyphClass: 2
Flags: W
LayerCount: 2
Fore
SplineSet
942 317 m 0,0,1
 942 209 942 209 885.5 134.5 c 128,-1,2
 829 60 829 60 733.5 22 c 128,-1,3
 638 -16 638 -16 520 -16 c 0,4,5
 401 -16 401 -16 305 22 c 128,-1,6
 209 60 209 60 153 134 c 128,-1,7
 97 208 97 208 97 317 c 0,8,9
 97 415 97 415 154 488.5 c 128,-1,10
 211 562 211 562 308 601 c 1,11,12
 224 639 224 639 175.5 706 c 128,-1,13
 127 773 127 773 127 859 c 0,14,15
 127 1014 127 1014 237.5 1097.5 c 128,-1,16
 348 1181 348 1181 518 1181 c 0,17,18
 631 1181 631 1181 720 1143.5 c 128,-1,19
 809 1106 809 1106 860.5 1034 c 128,-1,20
 912 962 912 962 912 859 c 0,21,22
 912 773 912 773 862.5 705.5 c 128,-1,23
 813 638 813 638 729 600 c 1,24,25
 827 561 827 561 884.5 487.5 c 128,-1,26
 942 414 942 414 942 317 c 0,0,1
727 852 m 0,27,28
 727 930 727 930 668.5 979.5 c 128,-1,29
 610 1029 610 1029 518 1029 c 0,30,31
 425 1029 425 1029 369 981.5 c 128,-1,32
 313 934 313 934 313 852 c 0,33,34
 313 771 313 771 369.5 722.5 c 128,-1,35
 426 674 426 674 520 674 c 0,36,37
 612 674 612 674 669.5 722.5 c 128,-1,38
 727 771 727 771 727 852 c 0,27,28
756 327 m 0,39,40
 756 415 756 415 690 468.5 c 128,-1,41
 624 522 624 522 518 522 c 0,42,43
 410 522 410 522 346 468.5 c 128,-1,44
 282 415 282 415 282 327 c 0,45,46
 282 236 282 236 346.5 185.5 c 128,-1,47
 411 135 411 135 520 135 c 0,48,49
 626 135 626 135 691 185.5 c 128,-1,50
 756 236 756 236 756 327 c 0,39,40
EndSplineSet
EndChar

StartChar: eight.sup
Encoding: 65732 -1 393
Width: 751
GlyphClass: 2
Flags: W
LayerCount: 2
Fore
SplineSet
671 216 m 0,0,1
 671 104 671 104 586.5 46.5 c 128,-1,2
 502 -11 502 -11 376 -11 c 256,3,4
 250 -11 250 -11 164.5 46.5 c 128,-1,5
 79 104 79 104 79 216 c 0,6,7
 79 282 79 282 116.5 331 c 128,-1,8
 154 380 154 380 217 407 c 1,9,10
 162 433 162 433 130.5 477.5 c 128,-1,11
 99 522 99 522 99 580 c 0,12,13
 99 687 99 687 176.5 743.5 c 128,-1,14
 254 800 254 800 375 800 c 0,15,16
 495 800 495 800 573.5 743.5 c 128,-1,17
 652 687 652 687 652 580 c 0,18,19
 652 522 652 522 620.5 477 c 128,-1,20
 589 432 589 432 534 406 c 1,21,22
 597 379 597 379 634 330.5 c 128,-1,23
 671 282 671 282 671 216 c 0,0,1
494 570 m 256,24,25
 494 616 494 616 462 644 c 128,-1,26
 430 672 430 672 375 672 c 256,27,28
 320 672 320 672 288 645 c 128,-1,29
 256 618 256 618 256 570 c 0,30,31
 256 524 256 524 288.5 496 c 128,-1,32
 321 468 321 468 376 468 c 256,33,34
 431 468 431 468 462.5 496 c 128,-1,35
 494 524 494 524 494 570 c 256,24,25
515 228 m 256,36,37
 515 280 515 280 476 309.5 c 128,-1,38
 437 339 437 339 375 339 c 0,39,40
 312 339 312 339 274.5 309.5 c 128,-1,41
 237 280 237 280 237 228 c 256,42,43
 237 176 237 176 274.5 146.5 c 128,-1,44
 312 117 312 117 376 117 c 0,45,46
 438 117 438 117 476.5 146.5 c 128,-1,47
 515 176 515 176 515 228 c 256,36,37
EndSplineSet
EndChar

StartChar: emdash
Encoding: 8212 8212 397
Width: 1600
GlyphClass: 2
Flags: W
LayerCount: 2
Fore
SplineSet
1460 443 m 1,0,-1
 140 443 l 1,1,-1
 140 594 l 1,2,-1
 1460 594 l 1,3,-1
 1460 443 l 1,0,-1
EndSplineSet
EndChar

StartChar: endash
Encoding: 8211 8211 398
Width: 1345
GlyphClass: 2
Flags: W
LayerCount: 2
Fore
SplineSet
1205 443 m 1,0,-1
 140 443 l 1,1,-1
 140 594 l 1,2,-1
 1205 594 l 1,3,-1
 1205 443 l 1,0,-1
EndSplineSet
EndChar

StartChar: eng
Encoding: 331 331 399
Width: 1161
VWidth: 1798
GlyphClass: 2
Flags: W
AnchorPoint: "Anchor-1" 563 -240 basechar 0
AnchorPoint: "Anchor-0" 573 1040 basechar 0
LayerCount: 2
Fore
SplineSet
1009 -339 m 2,0,1
 1009 -508 1009 -508 923.5 -597.5 c 128,-1,2
 838 -687 838 -687 686 -687 c 0,3,4
 655 -687 655 -687 628.5 -683.5 c 128,-1,5
 602 -680 602 -680 572 -670 c 1,6,-1
 586 -513 l 1,7,8
 602 -519 602 -519 637 -522 c 128,-1,9
 672 -525 672 -525 686 -525 c 0,10,11
 751 -525 751 -525 787.5 -478 c 128,-1,12
 824 -431 824 -431 824 -339 c 2,13,-1
 824 429 l 2,14,15
 824 579 824 579 762.5 637.5 c 128,-1,16
 701 696 701 696 588 696 c 0,17,18
 495 696 495 696 431.5 660 c 128,-1,19
 368 624 368 624 331 562 c 1,20,-1
 331 -250 l 1,21,-1
 146 -250 l 1,22,-1
 146 832 l 1,23,-1
 312 832 l 1,24,-1
 325 679 l 1,25,26
 378 760 378 760 458.5 806 c 128,-1,27
 539 852 539 852 643 852 c 0,28,29
 812 852 812 852 910.5 753.5 c 128,-1,30
 1009 655 1009 655 1009 432 c 2,31,-1
 1009 -339 l 2,0,1
EndSplineSet
Substitution2: "'unic' Unicase lookup 2 subtable" Eng
Substitution2: "'smcp' Lowercase to Small Capitals lookup 1 subtable" Eng.smcp
EndChar

StartChar: eogonek
Encoding: 281 281 400
Width: 1086
VWidth: 1798
GlyphClass: 2
Flags: W
AnchorPoint: "Anchor-1" 568 -250 basechar 0
AnchorPoint: "Anchor-0" 565 1040 basechar 0
LayerCount: 2
Fore
SplineSet
833 -614 m 1,0,1
 808 -629 808 -629 769.5 -643.5 c 128,-1,2
 731 -658 731 -658 672 -658 c 0,3,4
 591 -658 591 -658 535.5 -609.5 c 128,-1,5
 480 -561 480 -561 480 -467 c 0,6,7
 480 -417 480 -417 503.5 -366.5 c 128,-1,8
 527 -316 527 -316 577 -270 c 1,9,10
 430 -267 430 -267 321 -199 c 128,-1,11
 212 -131 212 -131 152.5 -14 c 128,-1,12
 93 103 93 103 93 253 c 2,13,-1
 93 295 l 2,14,15
 93 472 93 472 160.5 596.5 c 128,-1,16
 228 721 228 721 336.5 786.5 c 128,-1,17
 445 852 445 852 566 852 c 0,18,19
 721 852 721 852 819.5 782.5 c 128,-1,20
 918 713 918 713 964.5 593.5 c 128,-1,21
 1011 474 1011 474 1011 322 c 2,22,-1
 1011 239 l 1,23,-1
 279 239 l 1,24,25
 282 140 282 140 321 58.5 c 128,-1,26
 360 -23 360 -23 430.5 -71 c 128,-1,27
 501 -119 501 -119 600 -119 c 0,28,29
 698 -119 698 -119 766 -79 c 128,-1,30
 834 -39 834 -39 885 28 c 1,31,-1
 997 -61 l 1,32,33
 966 -108 966 -108 920.5 -151.5 c 128,-1,34
 875 -195 875 -195 811 -225 c 1,35,36
 747 -273 747 -273 694 -327 c 128,-1,37
 641 -381 641 -381 641 -446 c 0,38,39
 641 -479 641 -479 658.5 -499 c 128,-1,40
 676 -519 676 -519 719 -519 c 0,41,42
 752 -519 752 -519 778 -509.5 c 128,-1,43
 804 -500 804 -500 819 -492 c 1,44,-1
 833 -614 l 1,0,1
566 700 m 0,45,46
 456 700 456 700 380 620 c 128,-1,47
 304 540 304 540 285 390 c 1,48,-1
 826 390 l 1,49,-1
 826 404 l 1,50,51
 822 476 822 476 796.5 544 c 128,-1,52
 771 612 771 612 716 656 c 128,-1,53
 661 700 661 700 566 700 c 0,45,46
EndSplineSet
Substitution2: "'locl' Localized Forms in Latin lookup 8 subtable" eogonek.NAV
Substitution2: "'unic' Unicase lookup 2 subtable" Eogonek.unic
Substitution2: "'smcp' Lowercase to Small Capitals lookup 1 subtable" Eogonek.smcp
EndChar

StartChar: equal
Encoding: 61 61 402
Width: 1124
VWidth: 1798
GlyphClass: 2
Flags: W
LayerCount: 2
Fore
SplineSet
986 384 m 1,0,-1
 152 384 l 1,1,-1
 152 535 l 1,2,-1
 986 535 l 1,3,-1
 986 384 l 1,0,-1
986 -1 m 1,4,-1
 152 -1 l 1,5,-1
 152 149 l 1,6,-1
 986 149 l 1,7,-1
 986 -1 l 1,4,-1
EndSplineSet
EndChar

StartChar: estimated
Encoding: 8494 8494 403
Width: 1304
GlyphClass: 2
Flags: W
LayerCount: 2
Fore
SplineSet
1044 198 m 1,0,-1
 1046 94 l 1,1,2
 962 42 962 42 868 11 c 128,-1,3
 774 -20 774 -20 676 -20 c 0,4,5
 567 -20 567 -20 472 24 c 128,-1,6
 377 68 377 68 305 145 c 128,-1,7
 233 222 233 222 192.5 324 c 128,-1,8
 152 426 152 426 152 541 c 0,9,10
 152 657 152 657 196.5 758.5 c 128,-1,11
 241 860 241 860 316 937 c 128,-1,12
 391 1014 391 1014 484.5 1058 c 128,-1,13
 578 1102 578 1102 676 1102 c 0,14,15
 813 1102 813 1102 925.5 1031.5 c 128,-1,16
 1038 961 1038 961 1104.5 839 c 128,-1,17
 1171 717 1171 717 1171 561 c 2,18,-1
 1171 514 l 1,19,-1
 403 514 l 1,20,-1
 403 186 l 1,21,22
 458 135 458 135 528 105.5 c 128,-1,23
 598 76 598 76 676 76 c 0,24,25
 769 76 769 76 862.5 105.5 c 128,-1,26
 956 135 956 135 1044 198 c 1,0,-1
676 1008 m 0,27,28
 601 1008 601 1008 530.5 975 c 128,-1,29
 460 942 460 942 403 886 c 1,30,-1
 403 609 l 1,31,-1
 943 609 l 1,32,-1
 943 895 l 1,33,34
 891 947 891 947 822 977.5 c 128,-1,35
 753 1008 753 1008 676 1008 c 0,27,28
EndSplineSet
EndChar

StartChar: eth
Encoding: 240 240 404
Width: 1201
VWidth: 1798
GlyphClass: 2
Flags: W
LayerCount: 2
Fore
SplineSet
255 1171 m 1,0,-1
 312 1331 l 1,1,2
 551 1277 551 1277 727 1138 c 1,3,-1
 915 1266 l 1,4,-1
 988 1167 l 1,5,-1
 820 1053 l 1,6,7
 938 928 938 928 1004 759 c 128,-1,8
 1070 590 1070 590 1070 383 c 2,9,-1
 1070 285 l 2,10,11
 1070 121 1070 121 1009.5 -4.5 c 128,-1,12
 949 -130 949 -130 843.5 -200 c 128,-1,13
 738 -270 738 -270 602 -270 c 0,14,15
 462 -270 462 -270 354.5 -204.5 c 128,-1,16
 247 -139 247 -139 186.5 -28.5 c 128,-1,17
 126 82 126 82 126 218 c 0,18,19
 126 372 126 372 184 486.5 c 128,-1,20
 242 601 242 601 343.5 664.5 c 128,-1,21
 445 728 445 728 574 728 c 0,22,23
 658 728 658 728 731 697 c 128,-1,24
 804 666 804 666 857 615 c 1,25,26
 832 719 832 719 783.5 802 c 128,-1,27
 735 885 735 885 669 950 c 1,28,-1
 451 801 l 1,29,-1
 378 901 l 1,30,-1
 570 1031 l 1,31,32
 500 1080 500 1080 420 1114.5 c 128,-1,33
 340 1149 340 1149 255 1171 c 1,0,-1
312 218 m 0,34,35
 312 136 312 136 346 58.5 c 128,-1,36
 380 -19 380 -19 446 -68.5 c 128,-1,37
 512 -118 512 -118 606 -118 c 0,38,39
 692 -118 692 -118 754.5 -65 c 128,-1,40
 817 -12 817 -12 850.5 79 c 128,-1,41
 884 170 884 170 884 285 c 2,42,-1
 884 385 l 2,43,44
 884 415 884 415 882 444 c 1,45,46
 854 495 854 495 788 535.5 c 128,-1,47
 722 576 722 576 618 576 c 0,48,49
 472 576 472 576 392 479.5 c 128,-1,50
 312 383 312 383 312 218 c 0,34,35
EndSplineSet
Substitution2: "'unic' Unicase lookup 2 subtable" Eth
Substitution2: "'smcp' Lowercase to Small Capitals lookup 1 subtable" Eth.smcp
EndChar

StartChar: exclam
Encoding: 33 33 405
Width: 556
VWidth: 1798
GlyphClass: 2
Flags: W
LayerCount: 2
Fore
SplineSet
182 1131 m 1,0,-1
 379 1131 l 1,1,-1
 353 188 l 1,2,-1
 208 188 l 1,3,-1
 182 1131 l 1,0,-1
145 -116 m 0,4,5
 145 -61 145 -61 184 -21.5 c 128,-1,6
 223 18 223 18 278 18 c 256,7,8
 333 18 333 18 372 -21.5 c 128,-1,9
 411 -61 411 -61 411 -116 c 256,10,11
 411 -171 411 -171 372 -210 c 128,-1,12
 333 -249 333 -249 278 -249 c 256,13,14
 223 -249 223 -249 184 -211 c 128,-1,15
 145 -173 145 -173 145 -116 c 0,4,5
EndSplineSet
EndChar

StartChar: exclamdown
Encoding: 161 161 407
Width: 500
VWidth: 1798
GlyphClass: 2
Flags: W
LayerCount: 2
Fore
SplineSet
358 746 m 256,0,1
 358 702 358 702 330.5 671 c 128,-1,2
 303 640 303 640 249 640 c 0,3,4
 196 640 196 640 167.5 671 c 128,-1,5
 139 702 139 702 139 746 c 256,6,7
 139 790 139 790 167.5 820.5 c 128,-1,8
 196 851 196 851 249 851 c 0,9,10
 303 851 303 851 330.5 820.5 c 128,-1,11
 358 790 358 790 358 746 c 256,0,1
157 -611 m 1,12,-1
 171 434 l 1,13,-1
 338 434 l 1,14,-1
 352 -611 l 1,15,-1
 157 -611 l 1,12,-1
EndSplineSet
EndChar

StartChar: f
Encoding: 102 102 408
Width: 712
VWidth: 1798
GlyphClass: 2
Flags: W
AnchorPoint: "Anchor-1" 330 -240 basechar 0
AnchorPoint: "Anchor-0" 502 1504 basechar 0
LayerCount: 2
Fore
SplineSet
417 -250 m 1,0,-1
 232 -250 l 1,1,-1
 232 690 l 1,2,-1
 61 690 l 1,3,-1
 61 832 l 1,4,-1
 232 832 l 1,5,-1
 232 946 l 2,6,7
 232 1121 232 1121 326.5 1214 c 128,-1,8
 421 1307 421 1307 587 1307 c 0,9,10
 648 1307 648 1307 715 1291 c 1,11,-1
 705 1140 l 1,12,13
 663 1149 663 1149 605 1149 c 0,14,15
 516 1149 516 1149 466.5 1096.5 c 128,-1,16
 417 1044 417 1044 417 946 c 2,17,-1
 417 832 l 1,18,-1
 647 832 l 1,19,-1
 647 690 l 1,20,-1
 417 690 l 1,21,-1
 417 -250 l 1,0,-1
EndSplineSet
Substitution2: "'unic' Unicase lookup 2 subtable" F
Substitution2: "'smcp' Lowercase to Small Capitals lookup 1 subtable" F.smcp
EndChar

StartChar: f_f_i
Encoding: 64259 64259 410
Width: 1748
GlyphClass: 3
Flags: W
LayerCount: 2
Fore
SplineSet
417 0 m 1,0,-1
 232 0 l 1,1,-1
 232 940 l 1,2,-1
 61 940 l 1,3,-1
 61 1082 l 1,4,-1
 232 1082 l 1,5,-1
 232 1196 l 2,6,7
 232 1371 232 1371 326.5 1464 c 128,-1,8
 421 1557 421 1557 587 1557 c 0,9,10
 648 1557 648 1557 715 1541 c 1,11,-1
 705 1390 l 1,12,13
 663 1399 663 1399 605 1399 c 0,14,15
 516 1399 516 1399 466.5 1346.5 c 128,-1,16
 417 1294 417 1294 417 1196 c 2,17,-1
 417 1082 l 1,18,-1
 817 1082 l 1,19,-1
 817 1176 l 2,20,21
 817 1361 817 1361 922.5 1459 c 128,-1,22
 1028 1557 1028 1557 1212 1557 c 0,23,24
 1285 1557 1285 1557 1354 1539.5 c 128,-1,25
 1423 1522 1423 1522 1496 1496 c 1,26,-1
 1464 1340 l 1,27,28
 1419 1358 1419 1358 1358 1374.5 c 128,-1,29
 1297 1391 1297 1391 1226 1391 c 0,30,31
 1107 1391 1107 1391 1054.5 1337.5 c 128,-1,32
 1002 1284 1002 1284 1002 1176 c 2,33,-1
 1002 1082 l 1,34,-1
 1223 1082 l 1,35,-1
 1223 940 l 1,36,-1
 1002 940 l 1,37,-1
 1002 0 l 1,38,-1
 817 0 l 1,39,-1
 817 940 l 1,40,-1
 417 940 l 1,41,-1
 417 0 l 1,0,-1
1587 1082 m 1,42,-1
 1587 0 l 1,43,-1
 1402 0 l 1,44,-1
 1402 1082 l 1,45,-1
 1587 1082 l 1,42,-1
EndSplineSet
Ligature2: "'liga' Standard Ligatures in Latin lookup 10 subtable" f f i
EndChar

StartChar: f_f_l
Encoding: 64260 64260 411
Width: 1748
GlyphClass: 3
Flags: W
LayerCount: 2
Fore
SplineSet
417 0 m 1,0,-1
 232 0 l 1,1,-1
 232 940 l 1,2,-1
 61 940 l 1,3,-1
 61 1082 l 1,4,-1
 232 1082 l 1,5,-1
 232 1196 l 2,6,7
 232 1371 232 1371 326.5 1464 c 128,-1,8
 421 1557 421 1557 587 1557 c 0,9,10
 648 1557 648 1557 715 1541 c 1,11,-1
 705 1390 l 1,12,13
 663 1399 663 1399 605 1399 c 0,14,15
 516 1399 516 1399 466.5 1346.5 c 128,-1,16
 417 1294 417 1294 417 1196 c 2,17,-1
 417 1082 l 1,18,-1
 817 1082 l 1,19,-1
 817 1196 l 2,20,21
 817 1371 817 1371 913.5 1464 c 128,-1,22
 1010 1557 1010 1557 1187 1557 c 0,23,24
 1253 1557 1253 1557 1366 1537.5 c 128,-1,25
 1479 1518 1479 1518 1587 1496 c 1,26,-1
 1587 0 l 1,27,-1
 1402 0 l 1,28,-1
 1402 1379 l 1,29,30
 1277 1399 1277 1399 1201 1399 c 0,31,32
 1002 1399 1002 1399 1002 1196 c 2,33,-1
 1002 1082 l 1,34,-1
 1232 1082 l 1,35,-1
 1232 940 l 1,36,-1
 1002 940 l 1,37,-1
 1002 0 l 1,38,-1
 817 0 l 1,39,-1
 817 940 l 1,40,-1
 417 940 l 1,41,-1
 417 0 l 1,0,-1
EndSplineSet
Ligature2: "'liga' Standard Ligatures in Latin lookup 11 subtable" f f l
EndChar

StartChar: f_l
Encoding: 64258 64258 412
Width: 1163
GlyphClass: 3
Flags: W
LayerCount: 2
Fore
SplineSet
417 0 m 1,0,-1
 232 0 l 1,1,-1
 232 940 l 1,2,-1
 61 940 l 1,3,-1
 61 1082 l 1,4,-1
 232 1082 l 1,5,-1
 232 1196 l 2,6,7
 232 1371 232 1371 328.5 1464 c 128,-1,8
 425 1557 425 1557 602 1557 c 0,9,10
 668 1557 668 1557 781 1537.5 c 128,-1,11
 894 1518 894 1518 1002 1496 c 1,12,-1
 1002 0 l 1,13,-1
 817 0 l 1,14,-1
 817 1379 l 1,15,16
 692 1399 692 1399 616 1399 c 0,17,18
 417 1399 417 1399 417 1196 c 2,19,-1
 417 1082 l 1,20,-1
 647 1082 l 1,21,-1
 647 940 l 1,22,-1
 417 940 l 1,23,-1
 417 0 l 1,0,-1
EndSplineSet
Ligature2: "'liga' Standard Ligatures in Latin lookup 11 subtable" f l
EndChar

StartChar: fi
Encoding: 64257 64257 413
Width: 1135
GlyphClass: 3
Flags: W
LayerCount: 2
Fore
SplineSet
388 0 m 1,0,-1
 203 0 l 1,1,-1
 203 940 l 1,2,-1
 32 940 l 1,3,-1
 32 1082 l 1,4,-1
 203 1082 l 1,5,-1
 203 1176 l 2,6,7
 203 1361 203 1361 309 1459 c 128,-1,8
 415 1557 415 1557 599 1557 c 0,9,10
 671 1557 671 1557 740 1539.5 c 128,-1,11
 809 1522 809 1522 882 1496 c 1,12,-1
 851 1340 l 1,13,14
 805 1358 805 1358 744.5 1374.5 c 128,-1,15
 684 1391 684 1391 612 1391 c 0,16,17
 493 1391 493 1391 440.5 1337.5 c 128,-1,18
 388 1284 388 1284 388 1176 c 2,19,-1
 388 1082 l 1,20,-1
 609 1082 l 1,21,-1
 609 940 l 1,22,-1
 388 940 l 1,23,-1
 388 0 l 1,0,-1
973 1082 m 1,24,-1
 973 0 l 1,25,-1
 788 0 l 1,26,-1
 788 1082 l 1,27,-1
 973 1082 l 1,24,-1
EndSplineSet
Ligature2: "'liga' Standard Ligatures in Latin lookup 10 subtable" f i
EndChar

StartChar: figuredash
Encoding: 8210 8210 414
Width: 1025
GlyphClass: 2
Flags: W
LayerCount: 2
Fore
SplineSet
885 443 m 1,0,-1
 140 443 l 1,1,-1
 140 594 l 1,2,-1
 885 594 l 1,3,-1
 885 443 l 1,0,-1
EndSplineSet
EndChar

StartChar: five
Encoding: 53 53 415
Width: 1151
VWidth: 1798
GlyphClass: 2
Flags: W
LayerCount: 2
Fore
SplineSet
355 443 m 1,0,-1
 207 481 l 1,1,-1
 280 1206 l 1,2,-1
 1027 1206 l 1,3,-1
 1027 1035 l 1,4,-1
 437 1035 l 1,5,-1
 393 639 l 1,6,7
 433 662 433 662 494.5 682 c 128,-1,8
 556 702 556 702 636 702 c 0,9,10
 837 702 837 702 953.5 569.5 c 128,-1,11
 1070 437 1070 437 1070 214 c 0,12,13
 1070 75 1070 75 1019.5 -34.5 c 128,-1,14
 969 -144 969 -144 867 -207 c 128,-1,15
 765 -270 765 -270 609 -270 c 0,16,17
 491 -270 491 -270 392.5 -226 c 128,-1,18
 294 -182 294 -182 230.5 -92.5 c 128,-1,19
 167 -3 167 -3 154 133 c 1,20,-1
 330 133 l 1,21,22
 347 9 347 9 419 -54.5 c 128,-1,23
 491 -118 491 -118 609 -118 c 0,24,25
 740 -118 740 -118 812 -29 c 128,-1,26
 884 60 884 60 884 212 c 0,27,28
 884 349 884 349 808.5 442.5 c 128,-1,29
 733 536 733 536 593 536 c 0,30,31
 500 536 500 536 452.5 511 c 128,-1,32
 405 486 405 486 355 443 c 1,0,-1
EndSplineSet
Substitution2: "'ss01' Style Set 1 lookup 35 subtable" uni06F5
Substitution2: "'numr' Numerators lookup 21 subtable" five.frac
Substitution2: "'dnom' Denominators lookup 20 subtable" five.sup
Substitution2: "'frac' Diagonal Fractions lookup 19 subtable" five.frac
Substitution2: "Single Substitution lookup 18 subtable" five.sup
Substitution2: "'onum' Oldstyle Figures lookup 14 subtable" five.tnum
Substitution2: "'c2sc' Capitals to Small Capitals lookup 0 subtable" five.smcp
Position2: "'cpsp' Capital Spacing lookup 0 subtable" dx=36 dy=0 dh=72 dv=0
EndChar

StartChar: five.onum
Encoding: 65737 -1 417
Width: 1131
GlyphClass: 1
Flags: W
LayerCount: 2
Fore
SplineSet
288 355 m 1,0,-1
 134 372 l 1,1,-1
 236 1164 l 1,2,-1
 1024 1164 l 1,3,-1
 1024 993 l 1,4,-1
 383 993 l 1,5,-1
 328 598 l 1,6,7
 372 624 372 624 436 643 c 128,-1,8
 500 662 500 662 588 663 c 0,9,10
 724 665 724 665 823 604.5 c 128,-1,11
 922 544 922 544 976 433.5 c 128,-1,12
 1030 323 1030 323 1030 174 c 0,13,14
 1030 28 1030 28 970 -91.5 c 128,-1,15
 910 -211 910 -211 792 -281.5 c 128,-1,16
 674 -352 674 -352 500 -352 c 0,17,18
 394 -352 394 -352 293.5 -324.5 c 128,-1,19
 193 -297 193 -297 101 -238 c 1,20,-1
 159 -100 l 1,21,22
 226 -152 226 -152 313 -176 c 128,-1,23
 400 -200 400 -200 500 -200 c 0,24,25
 606 -200 606 -200 683 -151.5 c 128,-1,26
 760 -103 760 -103 802.5 -19 c 128,-1,27
 845 65 845 65 845 172 c 0,28,29
 845 263 845 263 809 336.5 c 128,-1,30
 773 410 773 410 705.5 453.5 c 128,-1,31
 638 497 638 497 544 497 c 0,32,33
 458 497 458 497 408.5 479.5 c 128,-1,34
 359 462 359 462 332.5 430 c 128,-1,35
 306 398 306 398 288 355 c 1,0,-1
EndSplineSet
EndChar

StartChar: five.smcp
Encoding: 65738 -1 418
Width: 1040
GlyphClass: 2
Flags: W
LayerCount: 2
Fore
SplineSet
313 542 m 1,0,-1
 165 579 l 1,1,-1
 233 1165 l 1,2,-1
 913 1165 l 1,3,-1
 913 1003 l 1,4,-1
 390 1003 l 1,5,-1
 352 714 l 1,6,7
 385 730 385 730 440 746.5 c 128,-1,8
 495 763 495 763 567 763 c 0,9,10
 749 763 749 763 857 658.5 c 128,-1,11
 965 554 965 554 965 373 c 0,12,13
 965 265 965 265 920 177 c 128,-1,14
 875 89 875 89 782.5 36.5 c 128,-1,15
 690 -16 690 -16 547 -16 c 0,16,17
 441 -16 441 -16 349.5 21 c 128,-1,18
 258 58 258 58 198.5 131 c 128,-1,19
 139 204 139 204 129 312 c 1,20,-1
 307 312 l 1,21,22
 320 223 320 223 384.5 179 c 128,-1,23
 449 135 449 135 547 135 c 0,24,25
 663 135 663 135 721.5 203 c 128,-1,26
 780 271 780 271 780 378 c 0,27,28
 780 480 780 480 713 546 c 128,-1,29
 646 612 646 612 524 612 c 0,30,31
 440 612 440 612 397 591.5 c 128,-1,32
 354 571 354 571 313 542 c 1,0,-1
EndSplineSet
EndChar

StartChar: five.sup
Encoding: 65739 -1 419
Width: 751
GlyphClass: 2
Flags: W
LayerCount: 2
Fore
SplineSet
238 356 m 1,0,-1
 113 388 l 1,1,-1
 162 789 l 1,2,-1
 641 789 l 1,3,-1
 641 658 l 1,4,-1
 292 658 l 1,5,-1
 269 487 l 1,6,7
 288 495 288 495 325.5 506 c 128,-1,8
 363 517 363 517 409 517 c 0,9,10
 536 517 536 517 608 448.5 c 128,-1,11
 680 380 680 380 680 258 c 0,12,13
 680 151 680 151 608 70 c 128,-1,14
 536 -11 536 -11 386 -11 c 0,15,16
 312 -11 312 -11 246 15.5 c 128,-1,17
 180 42 180 42 138 93 c 128,-1,18
 96 144 96 144 92 216 c 1,19,-1
 247 216 l 1,20,21
 252 165 252 165 290 141 c 128,-1,22
 328 117 328 117 386 117 c 0,23,24
 459 117 459 117 490.5 158 c 128,-1,25
 522 199 522 199 522 260 c 0,26,27
 522 322 522 322 483 361 c 128,-1,28
 444 400 444 400 371 400 c 0,29,30
 316 400 316 400 288 386 c 128,-1,31
 260 372 260 372 238 356 c 1,0,-1
EndSplineSet
EndChar

StartChar: florin
Encoding: 402 402 422
Width: 698
VWidth: 1798
GlyphClass: 2
Flags: W
LayerCount: 2
Fore
SplineSet
608 832 m 1,0,-1
 608 690 l 1,1,-1
 405 690 l 1,2,-1
 405 -339 l 2,3,4
 405 -508 405 -508 320 -597.5 c 128,-1,5
 235 -687 235 -687 83 -687 c 0,6,7
 52 -687 52 -687 26 -683.5 c 128,-1,8
 0 -680 0 -680 -29 -670 c 1,9,-1
 -15 -522 l 1,10,11
 0 -528 0 -528 34.5 -531.5 c 128,-1,12
 69 -535 69 -535 83 -535 c 0,13,14
 148 -535 148 -535 184 -483 c 128,-1,15
 220 -431 220 -431 220 -339 c 2,16,-1
 220 690 l 1,17,-1
 49 690 l 1,18,-1
 49 832 l 1,19,-1
 220 832 l 1,20,-1
 220 946 l 2,21,22
 220 1121 220 1121 310 1214 c 128,-1,23
 400 1307 400 1307 558 1307 c 0,24,25
 594 1307 594 1307 629.5 1301 c 128,-1,26
 665 1295 665 1295 701 1286 c 1,27,-1
 679 1140 l 1,28,29
 637 1150 637 1150 580 1150 c 0,30,31
 492 1150 492 1150 448.5 1097 c 128,-1,32
 405 1044 405 1044 405 946 c 2,33,-1
 405 832 l 1,34,-1
 608 832 l 1,0,-1
EndSplineSet
EndChar

StartChar: four
Encoding: 52 52 423
Width: 1151
VWidth: 1798
GlyphClass: 2
Flags: W
LayerCount: 2
Fore
SplineSet
1105 240 m 1,0,-1
 1105 88 l 1,1,-1
 902 88 l 1,2,-1
 902 -250 l 1,3,-1
 717 -250 l 1,4,-1
 717 88 l 1,5,-1
 53 88 l 1,6,-1
 53 197 l 1,7,-1
 705 1206 l 1,8,-1
 902 1206 l 1,9,-1
 902 240 l 1,10,-1
 1105 240 l 1,0,-1
263 240 m 1,11,-1
 717 240 l 1,12,-1
 717 955 l 1,13,-1
 694 914 l 1,14,-1
 263 240 l 1,11,-1
EndSplineSet
Substitution2: "'ss01' Style Set 1 lookup 35 subtable" uni06F4
Substitution2: "'numr' Numerators lookup 21 subtable" four.frac
Substitution2: "'dnom' Denominators lookup 20 subtable" four.sup
Substitution2: "'frac' Diagonal Fractions lookup 19 subtable" four.frac
Substitution2: "Single Substitution lookup 18 subtable" four.sup
Substitution2: "'onum' Oldstyle Figures lookup 14 subtable" four.tnum
Substitution2: "'c2sc' Capitals to Small Capitals lookup 0 subtable" four.smcp
Position2: "'cpsp' Capital Spacing lookup 0 subtable" dx=36 dy=0 dh=72 dv=0
EndChar

StartChar: four.onum
Encoding: 65742 -1 425
Width: 1231
GlyphClass: 1
Flags: W
LayerCount: 2
Fore
SplineSet
1184 151 m 1,0,-1
 1184 -1 l 1,1,-1
 987 -1 l 1,2,-1
 987 -330 l 1,3,-1
 802 -330 l 1,4,-1
 802 -1 l 1,5,-1
 62 -1 l 1,6,-1
 62 109 l 1,7,-1
 789 1165 l 1,8,-1
 987 1165 l 1,9,-1
 987 151 l 1,10,-1
 1184 151 l 1,0,-1
280 151 m 1,11,-1
 802 151 l 1,12,-1
 802 915 l 1,13,-1
 774 861 l 1,14,-1
 280 151 l 1,11,-1
EndSplineSet
EndChar

StartChar: four.smcp
Encoding: 65743 -1 426
Width: 1040
GlyphClass: 2
Flags: W
LayerCount: 2
Fore
SplineSet
997 414 m 1,0,-1
 997 262 l 1,1,-1
 821 262 l 1,2,-1
 821 0 l 1,3,-1
 636 0 l 1,4,-1
 636 262 l 1,5,-1
 51 262 l 1,6,-1
 49 377 l 1,7,-1
 627 1165 l 1,8,-1
 821 1165 l 1,9,-1
 821 414 l 1,10,-1
 997 414 l 1,0,-1
247 414 m 1,11,-1
 636 414 l 1,12,-1
 636 921 l 1,13,-1
 610 874 l 1,14,-1
 247 414 l 1,11,-1
EndSplineSet
EndChar

StartChar: four.sup
Encoding: 65744 -1 427
Width: 751
GlyphClass: 2
Flags: W
LayerCount: 2
Fore
SplineSet
700 300 m 1,0,-1
 700 170 l 1,1,-1
 592 170 l 1,2,-1
 592 0 l 1,3,-1
 435 0 l 1,4,-1
 435 170 l 1,5,-1
 61 170 l 1,6,-1
 54 272 l 1,7,-1
 432 789 l 1,8,-1
 592 789 l 1,9,-1
 592 300 l 1,10,-1
 700 300 l 1,0,-1
212 300 m 1,11,-1
 435 300 l 1,12,-1
 435 587 l 1,13,-1
 419 560 l 1,14,-1
 212 300 l 1,11,-1
EndSplineSet
EndChar

StartChar: fraction
Encoding: 8260 8260 429
Width: 931
GlyphClass: 2
Flags: W
LayerCount: 2
Fore
SplineSet
875 1249 m 1,0,-1
 164 111 l 1,1,-1
 60 177 l 1,2,-1
 771 1315 l 1,3,-1
 875 1249 l 1,0,-1
EndSplineSet
EndChar

StartChar: g
Encoding: 103 103 431
Width: 1150
VWidth: 1798
GlyphClass: 2
Flags: W
AnchorPoint: "Anchor-1" 554 -697 basechar 0
AnchorPoint: "Anchor-0" 556 1040 basechar 0
LayerCount: 2
Fore
SplineSet
97 279 m 2,0,-1
 97 300 l 2,1,2
 97 465 97 465 149 589.5 c 128,-1,3
 201 714 201 714 296.5 783 c 128,-1,4
 392 852 392 852 524 852 c 0,5,6
 627 852 627 852 703.5 816 c 128,-1,7
 780 780 780 780 833 712 c 1,8,-1
 842 832 l 1,9,-1
 1010 832 l 1,10,-1
 1010 -227 l 2,11,12
 1010 -370 1010 -370 952 -471 c 128,-1,13
 894 -572 894 -572 790.5 -624.5 c 128,-1,14
 687 -677 687 -677 552 -677 c 0,15,16
 496 -677 496 -677 420.5 -659.5 c 128,-1,17
 345 -642 345 -642 272.5 -600.5 c 128,-1,18
 200 -559 200 -559 151 -489 c 1,19,-1
 248 -379 l 1,20,21
 316 -461 316 -461 390.5 -493 c 128,-1,22
 465 -525 465 -525 538 -525 c 0,23,24
 669 -525 669 -525 747 -451.5 c 128,-1,25
 825 -378 825 -378 825 -236 c 2,26,-1
 825 -141 l 1,27,28
 772 -203 772 -203 696.5 -236.5 c 128,-1,29
 621 -270 621 -270 522 -270 c 0,30,31
 392 -270 392 -270 296.5 -198.5 c 128,-1,32
 201 -127 201 -127 149 -3 c 128,-1,33
 97 121 97 121 97 279 c 2,0,-1
282 300 m 2,34,-1
 282 279 l 2,35,36
 282 172 282 172 311.5 82.5 c 128,-1,37
 341 -7 341 -7 404 -60 c 128,-1,38
 467 -113 467 -113 567 -113 c 0,39,40
 666 -113 666 -113 727.5 -68 c 128,-1,41
 789 -23 789 -23 825 47 c 1,42,-1
 825 540 l 1,43,44
 790 607 790 607 728 651.5 c 128,-1,45
 666 696 666 696 569 696 c 0,46,47
 468 696 468 696 404.5 642 c 128,-1,48
 341 588 341 588 311.5 498 c 128,-1,49
 282 408 282 408 282 300 c 2,34,-1
EndSplineSet
Substitution2: "'salt' Stylistic Alternatives lookup 13 subtable" g.alt
Substitution2: "'unic' Unicase lookup 2 subtable" G
Substitution2: "'smcp' Lowercase to Small Capitals lookup 1 subtable" G.smcp
EndChar

StartChar: g.alt
Encoding: 65746 -1 432
Width: 1082
GlyphClass: 2
Flags: W
LayerCount: 2
Fore
SplineSet
93 722 m 2,0,-1
 93 744 l 2,1,2
 93 848 93 848 147.5 929 c 128,-1,3
 202 1010 202 1010 298.5 1056 c 128,-1,4
 395 1102 395 1102 521 1102 c 0,5,6
 602 1102 602 1102 674 1082 c 1,7,-1
 1039 1082 l 1,8,-1
 1041 936 l 1,9,-1
 891 936 l 1,10,11
 950 852 950 852 950 744 c 2,12,-1
 950 722 l 2,13,14
 950 624 950 624 896 542.5 c 128,-1,15
 842 461 842 461 746 412.5 c 128,-1,16
 650 364 650 364 523 364 c 0,17,18
 443 364 443 364 372 385 c 1,19,20
 351 368 351 368 335.5 342.5 c 128,-1,21
 320 317 320 317 320 279 c 0,22,23
 320 232 320 232 357 214 c 128,-1,24
 394 196 394 196 447 196 c 2,25,-1
 619 196 l 2,26,27
 813 196 813 196 921.5 125 c 128,-1,28
 1030 54 1030 54 1030 -98 c 0,29,30
 1030 -174 1030 -174 967 -253 c 128,-1,31
 904 -332 904 -332 784.5 -385 c 128,-1,32
 665 -438 665 -438 494 -438 c 0,33,34
 344 -438 344 -438 240.5 -399.5 c 128,-1,35
 137 -361 137 -361 84 -298 c 128,-1,36
 31 -235 31 -235 31 -161 c 0,37,38
 31 -65 31 -65 84.5 0.5 c 128,-1,39
 138 66 138 66 210 103 c 1,40,41
 153 149 153 149 153 224 c 0,42,43
 153 301 153 301 189.5 350 c 128,-1,44
 226 399 226 399 268 430 c 1,45,46
 186 479 186 479 139.5 555.5 c 128,-1,47
 93 632 93 632 93 722 c 2,0,-1
278 744 m 2,48,-1
 278 722 l 2,49,50
 278 670 278 670 308.5 622.5 c 128,-1,51
 339 575 339 575 394 545 c 128,-1,52
 449 515 449 515 523 515 c 0,53,54
 596 515 596 515 650.5 545 c 128,-1,55
 705 575 705 575 735 622.5 c 128,-1,56
 765 670 765 670 765 722 c 2,57,-1
 765 744 l 2,58,59
 765 827 765 827 698 888.5 c 128,-1,60
 631 950 631 950 521 950 c 0,61,62
 412 950 412 950 345 888.5 c 128,-1,63
 278 827 278 827 278 744 c 2,48,-1
216 -124 m 0,64,65
 216 -191 216 -191 283.5 -239 c 128,-1,66
 351 -287 351 -287 494 -287 c 0,67,68
 607 -287 607 -287 685.5 -257 c 128,-1,69
 764 -227 764 -227 804.5 -183 c 128,-1,70
 845 -139 845 -139 845 -98 c 0,71,72
 845 -30 845 -30 796.5 7.5 c 128,-1,73
 748 45 748 45 619 45 c 2,74,-1
 411 45 l 2,75,76
 370 45 370 45 333 51 c 1,77,78
 284 30 284 30 250 -17 c 128,-1,79
 216 -64 216 -64 216 -124 c 0,64,65
EndSplineSet
EndChar

StartChar: germandbls
Encoding: 223 223 437
Width: 1218
VWidth: 1798
GlyphClass: 2
Flags: W
LayerCount: 2
Fore
SplineSet
324 862 m 2,0,-1
 324 -250 l 1,1,-1
 140 -250 l 1,2,-1
 140 862 l 2,3,4
 140 1081 140 1081 249 1192.5 c 128,-1,5
 358 1304 358 1304 533 1304 c 0,6,7
 696 1304 696 1304 802.5 1222 c 128,-1,8
 909 1140 909 1140 909 967 c 0,9,10
 909 887 909 887 889.5 833.5 c 128,-1,11
 870 780 870 780 845 739.5 c 128,-1,12
 820 699 820 699 800.5 660 c 128,-1,13
 781 621 781 621 781 570 c 0,14,15
 781 515 781 515 816 471.5 c 128,-1,16
 851 428 851 428 903 388 c 128,-1,17
 955 348 955 348 1007.5 303 c 128,-1,18
 1060 258 1060 258 1095 201 c 128,-1,19
 1130 144 1130 144 1130 67 c 0,20,21
 1130 -104 1130 -104 1021.5 -187 c 128,-1,22
 913 -270 913 -270 745 -270 c 0,23,24
 691 -270 691 -270 631 -259.5 c 128,-1,25
 571 -249 571 -249 521.5 -232.5 c 128,-1,26
 472 -216 472 -216 446 -198 c 1,27,-1
 488 -43 l 1,28,29
 523 -65 523 -65 589.5 -92 c 128,-1,30
 656 -119 656 -119 726 -119 c 0,31,32
 843 -119 843 -119 894 -67 c 128,-1,33
 945 -15 945 -15 945 58 c 0,34,35
 945 115 945 115 910 158.5 c 128,-1,36
 875 202 875 202 823 242.5 c 128,-1,37
 771 283 771 283 718.5 328 c 128,-1,38
 666 373 666 373 631 432 c 128,-1,39
 596 491 596 491 596 572 c 0,40,41
 596 632 596 632 617 678 c 128,-1,42
 638 724 638 724 665 764.5 c 128,-1,43
 692 805 692 805 713 849.5 c 128,-1,44
 734 894 734 894 734 951 c 0,45,46
 734 1051 734 1051 679.5 1102 c 128,-1,47
 625 1153 625 1153 543 1153 c 0,48,49
 440 1153 440 1153 382 1082.5 c 128,-1,50
 324 1012 324 1012 324 862 c 2,0,-1
EndSplineSet
Substitution2: "'smcp' Lowercase to Small Capitals lookup 1 subtable" Germandbls.smcp
EndChar

StartChar: grave
Encoding: 96 96 438
Width: 633
VWidth: 1798
GlyphClass: 2
Flags: W
LayerCount: 2
Fore
SplineSet
281 1286 m 1,0,-1
 474 992 l 1,1,-1
 315 992 l 1,2,-1
 57 1286 l 1,3,-1
 281 1286 l 1,0,-1
EndSplineSet
EndChar

StartChar: gravecomb
Encoding: 768 768 439
Width: 0
VWidth: 1798
GlyphClass: 4
Flags: W
AnchorPoint: "Anchor-3" -530 1391 basemark 0
AnchorPoint: "Anchor-3" -530 1040 mark 0
AnchorPoint: "Anchor-0" -530 1040 mark 0
LayerCount: 2
Fore
SplineSet
-634 1286 m 1,0,-1
 -441 992 l 1,1,-1
 -599 992 l 1,2,-1
 -857 1286 l 1,3,-1
 -634 1286 l 1,0,-1
EndSplineSet
EndChar

StartChar: greater
Encoding: 62 62 440
Width: 1071
VWidth: 1798
GlyphClass: 2
Flags: W
LayerCount: 2
Fore
SplineSet
135 138 m 1,0,-1
 797 401 l 1,1,-1
 135 659 l 1,2,-1
 135 850 l 1,3,-1
 989 472 l 1,4,-1
 989 326 l 1,5,-1
 135 -53 l 1,6,-1
 135 138 l 1,0,-1
EndSplineSet
EndChar

StartChar: greaterequal
Encoding: 8805 8805 441
Width: 1071
GlyphClass: 2
Flags: W
LayerCount: 2
Fore
SplineSet
135 467 m 1,0,-1
 798 706 l 1,1,-1
 135 941 l 1,2,-1
 135 1114 l 1,3,-1
 989 771 l 1,4,-1
 989 638 l 1,5,-1
 135 294 l 1,6,-1
 135 467 l 1,0,-1
967 152 m 1,7,-1
 967 0 l 1,8,-1
 132 0 l 1,9,-1
 132 152 l 1,10,-1
 967 152 l 1,7,-1
EndSplineSet
EndChar

StartChar: guillemotleft
Encoding: 171 171 442
Width: 918
VWidth: 1798
GlyphClass: 2
Flags: W
LayerCount: 2
Fore
SplineSet
446 -189 m 1,0,-1
 351 -280 l 1,1,2
 227 -133 227 -133 164.5 -19 c 128,-1,3
 102 95 102 95 102 202 c 256,4,5
 102 309 102 309 164.5 423 c 128,-1,6
 227 537 227 537 351 683 c 1,7,-1
 446 591 l 1,8,9
 351 464 351 464 303.5 374 c 128,-1,10
 256 284 256 284 256 202 c 256,11,12
 256 120 256 120 304 29.5 c 128,-1,13
 352 -61 352 -61 446 -189 c 1,0,-1
799 -189 m 1,14,-1
 704 -280 l 1,15,16
 580 -134 580 -134 518 -19.5 c 128,-1,17
 456 95 456 95 456 202 c 256,18,19
 456 309 456 309 518 423.5 c 128,-1,20
 580 538 580 538 704 683 c 1,21,-1
 799 591 l 1,22,23
 704 464 704 464 656.5 374 c 128,-1,24
 609 284 609 284 609 202 c 256,25,26
 609 120 609 120 657 29.5 c 128,-1,27
 705 -61 705 -61 799 -189 c 1,14,-1
EndSplineSet
EndChar

StartChar: guillemotright
Encoding: 187 187 443
Width: 918
VWidth: 1798
GlyphClass: 2
Flags: W
LayerCount: 2
Fore
SplineSet
472 -189 m 1,0,1
 567 -61 567 -61 614 29.5 c 128,-1,2
 661 120 661 120 661 202 c 256,3,4
 661 284 661 284 614 374 c 128,-1,5
 567 464 567 464 472 591 c 1,6,-1
 567 683 l 1,7,8
 692 537 692 537 754 423 c 128,-1,9
 816 309 816 309 816 202 c 256,10,11
 816 95 816 95 754 -19 c 128,-1,12
 692 -133 692 -133 567 -280 c 1,13,-1
 472 -189 l 1,0,1
119 -189 m 1,14,15
 214 -61 214 -61 261 29.5 c 128,-1,16
 308 120 308 120 308 202 c 256,17,18
 308 284 308 284 261 374 c 128,-1,19
 214 464 214 464 119 591 c 1,20,-1
 214 683 l 1,21,22
 339 538 339 538 400.5 423.5 c 128,-1,23
 462 309 462 309 462 202 c 256,24,25
 462 95 462 95 400 -19.5 c 128,-1,26
 338 -134 338 -134 214 -280 c 1,27,-1
 119 -189 l 1,14,15
EndSplineSet
EndChar

StartChar: guilsinglleft
Encoding: 8249 8249 444
Width: 615
GlyphClass: 2
Flags: W
LayerCount: 2
Fore
SplineSet
545 949 m 1,0,-1
 287 551 l 1,1,-1
 545 153 l 1,2,-1
 403 153 l 1,3,-1
 108 542 l 1,4,-1
 108 561 l 1,5,-1
 403 949 l 1,6,-1
 545 949 l 1,0,-1
EndSplineSet
EndChar

StartChar: guilsinglright
Encoding: 8250 8250 445
Width: 615
GlyphClass: 2
Flags: W
LayerCount: 2
Fore
SplineSet
90 153 m 1,0,-1
 348 551 l 1,1,-1
 90 949 l 1,2,-1
 232 949 l 1,3,-1
 527 560 l 1,4,-1
 527 541 l 1,5,-1
 232 153 l 1,6,-1
 90 153 l 1,0,-1
EndSplineSet
EndChar

StartChar: h
Encoding: 104 104 446
Width: 1128
VWidth: 1798
GlyphClass: 2
Flags: W
AnchorPoint: "Anchor-1" 588 -240 basechar 0
AnchorPoint: "Anchor-0" 501 1361 basechar 0
LayerCount: 2
Fore
SplineSet
326 1286 m 1,0,-1
 326 703 l 1,1,2
 384 773 384 773 465 812.5 c 128,-1,3
 546 852 546 852 645 852 c 0,4,5
 805 852 805 852 898.5 762 c 128,-1,6
 992 672 992 672 992 459 c 2,7,-1
 992 -250 l 1,8,-1
 806 -250 l 1,9,-1
 806 461 l 2,10,11
 806 588 806 588 750.5 642 c 128,-1,12
 695 696 695 696 590 696 c 0,13,14
 501 696 501 696 433 648 c 128,-1,15
 365 600 365 600 326 523 c 1,16,-1
 326 -250 l 1,17,-1
 141 -250 l 1,18,-1
 141 1286 l 1,19,-1
 326 1286 l 1,0,-1
EndSplineSet
Substitution2: "'unic' Unicase lookup 2 subtable" H
Substitution2: "'smcp' Lowercase to Small Capitals lookup 1 subtable" H.smcp
EndChar

StartChar: hbar
Encoding: 295 295 447
Width: 1158
VWidth: 1798
GlyphClass: 2
Flags: W
AnchorPoint: "Anchor-1" 588 -240 basechar 0
AnchorPoint: "Anchor-0" 501 1361 basechar 0
LayerCount: 2
Fore
SplineSet
638 1135 m 1,0,-1
 638 983 l 1,1,-1
 356 983 l 1,2,-1
 356 703 l 1,3,4
 414 773 414 773 495 812.5 c 128,-1,5
 576 852 576 852 675 852 c 0,6,7
 835 852 835 852 928.5 762 c 128,-1,8
 1022 672 1022 672 1022 459 c 2,9,-1
 1022 -250 l 1,10,-1
 836 -250 l 1,11,-1
 836 461 l 2,12,13
 836 588 836 588 780.5 642 c 128,-1,14
 725 696 725 696 620 696 c 0,15,16
 531 696 531 696 463 648 c 128,-1,17
 395 600 395 600 356 523 c 1,18,-1
 356 -250 l 1,19,-1
 171 -250 l 1,20,-1
 171 983 l 1,21,-1
 1 983 l 1,22,-1
 1 1135 l 1,23,-1
 171 1135 l 1,24,-1
 171 1286 l 1,25,-1
 356 1286 l 1,26,-1
 356 1135 l 1,27,-1
 638 1135 l 1,0,-1
EndSplineSet
Substitution2: "'unic' Unicase lookup 2 subtable" Hbar
Substitution2: "'smcp' Lowercase to Small Capitals lookup 1 subtable" Hbar.smcp
EndChar

StartChar: hook
Encoding: 777 777 449
Width: 0
VWidth: 1798
GlyphClass: 4
Flags: W
AnchorPoint: "Anchor-3" -590 1471 basemark 0
AnchorPoint: "Anchor-3" -590 1024 mark 0
AnchorPoint: "Anchor-0" -590 1024 mark 0
LayerCount: 2
Fore
SplineSet
-520 992 m 1,0,-1
 -653 992 l 1,1,-1
 -654 1144 l 1,2,3
 -578 1149 -578 1149 -543.5 1164.5 c 128,-1,4
 -509 1180 -509 1180 -509 1219 c 0,5,6
 -509 1261 -509 1261 -558 1278.5 c 128,-1,7
 -607 1296 -607 1296 -675 1296 c 1,8,-1
 -668 1402 l 1,9,10
 -519 1402 -519 1402 -442 1351 c 128,-1,11
 -365 1300 -365 1300 -365 1215 c 0,12,13
 -365 1139 -365 1139 -413 1104.5 c 128,-1,14
 -461 1070 -461 1070 -519 1062 c 1,15,-1
 -520 992 l 1,0,-1
EndSplineSet
EndChar

StartChar: hungarumlaut
Encoding: 733 733 450
Width: 764
VWidth: 1798
GlyphClass: 2
Flags: W
LayerCount: 2
Fore
SplineSet
375 982 m 1,0,-1
 605 1285 l 1,1,-1
 812 1285 l 1,2,-1
 544 982 l 1,3,-1
 375 982 l 1,0,-1
95 982 m 1,4,-1
 265 1285 l 1,5,-1
 463 1285 l 1,6,-1
 245 982 l 1,7,-1
 95 982 l 1,4,-1
EndSplineSet
EndChar

StartChar: hyphen
Encoding: 45 45 451
Width: 955
VWidth: 1798
GlyphClass: 2
Flags: W
LayerCount: 2
Fore
SplineSet
815 193 m 1,0,-1
 140 193 l 1,1,-1
 140 344 l 1,2,-1
 815 344 l 1,3,-1
 815 193 l 1,0,-1
EndSplineSet
EndChar

StartChar: hyphendot
Encoding: 8231 8231 453
Width: 383
GlyphClass: 2
Flags: W
LayerCount: 2
Fore
SplineSet
82 619 m 0,0,1
 82 664 82 664 110 695 c 128,-1,2
 138 726 138 726 191 726 c 0,3,4
 245 726 245 726 273 695 c 128,-1,5
 301 664 301 664 301 619 c 0,6,7
 301 575 301 575 273 544.5 c 128,-1,8
 245 514 245 514 191 514 c 0,9,10
 138 514 138 514 110 544.5 c 128,-1,11
 82 575 82 575 82 619 c 0,0,1
EndSplineSet
EndChar

StartChar: i
Encoding: 105 105 455
Width: 498
VWidth: 1798
GlyphClass: 2
Flags: W
AnchorPoint: "Anchor-1" 249 -240 basechar 0
AnchorPoint: "Anchor-0" 251 1350 basechar 0
LayerCount: 2
Fore
SplineSet
142 1119 m 0,0,1
 142 1164 142 1164 169.5 1195 c 128,-1,2
 197 1226 197 1226 251 1226 c 0,3,4
 304 1226 304 1226 332.5 1195 c 128,-1,5
 361 1164 361 1164 361 1119 c 0,6,7
 361 1076 361 1076 332.5 1045.5 c 128,-1,8
 304 1015 304 1015 251 1015 c 0,9,10
 197 1015 197 1015 169.5 1045.5 c 128,-1,11
 142 1076 142 1076 142 1119 c 0,0,1
342 832 m 1,12,-1
 342 -250 l 1,13,-1
 156 -250 l 1,14,-1
 156 832 l 1,15,-1
 342 832 l 1,12,-1
EndSplineSet
Substitution2: "Single Substitution lookup 3 subtable" uni0069.ccmp
Substitution2: "'unic' Unicase lookup 2 subtable" I
Substitution2: "'smcp' Lowercase to Small Capitals lookup 1 subtable" I.smcp
EndChar

StartChar: infinity
Encoding: 8734 8734 463
Width: 2106
GlyphClass: 2
Flags: W
LayerCount: 2
Fore
SplineSet
99 527 m 2,0,-1
 99 554 l 2,1,2
 99 700 99 700 159.5 824.5 c 128,-1,3
 220 949 220 949 329 1025.5 c 128,-1,4
 438 1102 438 1102 583 1102 c 0,5,6
 708 1102 708 1102 797.5 1046 c 128,-1,7
 887 990 887 990 948 906.5 c 128,-1,8
 1009 823 1009 823 1047 741 c 1,9,10
 1085 823 1085 823 1146 906.5 c 128,-1,11
 1207 990 1207 990 1297 1046 c 128,-1,12
 1387 1102 1387 1102 1512 1102 c 0,13,14
 1657 1102 1657 1102 1765.5 1025.5 c 128,-1,15
 1874 949 1874 949 1935 824.5 c 128,-1,16
 1996 700 1996 700 1996 554 c 2,17,-1
 1996 527 l 2,18,19
 1996 382 1996 382 1935 257 c 128,-1,20
 1874 132 1874 132 1765 55.5 c 128,-1,21
 1656 -21 1656 -21 1510 -21 c 0,22,23
 1386 -21 1386 -21 1296.5 35 c 128,-1,24
 1207 91 1207 91 1146 174.5 c 128,-1,25
 1085 258 1085 258 1047 340 c 1,26,27
 1009 258 1009 258 948.5 174.5 c 128,-1,28
 888 91 888 91 798.5 35 c 128,-1,29
 709 -21 709 -21 585 -21 c 0,30,31
 439 -21 439 -21 329.5 55.5 c 128,-1,32
 220 132 220 132 159.5 257 c 128,-1,33
 99 382 99 382 99 527 c 2,0,-1
284 554 m 2,34,-1
 284 527 l 2,35,36
 284 419 284 419 318.5 329 c 128,-1,37
 353 239 353 239 420.5 185 c 128,-1,38
 488 131 488 131 585 131 c 0,39,40
 674 131 674 131 739 178.5 c 128,-1,41
 804 226 804 226 847.5 293.5 c 128,-1,42
 891 361 891 361 916 424.5 c 128,-1,43
 941 488 941 488 948 520 c 1,44,-1
 948 562 l 1,45,46
 941 593 941 593 916 656 c 128,-1,47
 891 719 891 719 847 787 c 128,-1,48
 803 855 803 855 737.5 902.5 c 128,-1,49
 672 950 672 950 583 950 c 0,50,51
 486 950 486 950 419.5 895.5 c 128,-1,52
 353 841 353 841 318.5 751 c 128,-1,53
 284 661 284 661 284 554 c 2,34,-1
1811 527 m 2,54,-1
 1811 554 l 2,55,56
 1811 661 1811 661 1776 751 c 128,-1,57
 1741 841 1741 841 1674.5 895.5 c 128,-1,58
 1608 950 1608 950 1512 950 c 0,59,60
 1422 950 1422 950 1356.5 902.5 c 128,-1,61
 1291 855 1291 855 1247 787 c 128,-1,62
 1203 719 1203 719 1178.5 656 c 128,-1,63
 1154 593 1154 593 1146 562 c 1,64,-1
 1146 520 l 1,65,66
 1154 488 1154 488 1178.5 424.5 c 128,-1,67
 1203 361 1203 361 1247 293.5 c 128,-1,68
 1291 226 1291 226 1356 178.5 c 128,-1,69
 1421 131 1421 131 1510 131 c 0,70,71
 1607 131 1607 131 1674 185 c 128,-1,72
 1741 239 1741 239 1776 329 c 128,-1,73
 1811 419 1811 419 1811 527 c 2,54,-1
EndSplineSet
EndChar

StartChar: integral
Encoding: 8747 8747 464
Width: 525
GlyphClass: 2
Flags: W
LayerCount: 2
Fore
SplineSet
358 -107 m 2,0,1
 358 -276 358 -276 272.5 -356.5 c 128,-1,2
 187 -437 187 -437 36 -437 c 0,3,4
 -25 -437 -25 -437 -81 -418 c 1,5,-1
 -62 -272 l 1,6,7
 -48 -276 -48 -276 -23 -280.5 c 128,-1,8
 2 -285 2 -285 18 -285 c 0,9,10
 91 -285 91 -285 131.5 -242 c 128,-1,11
 172 -199 172 -199 172 -107 c 2,12,-1
 172 1198 l 2,13,14
 172 1373 172 1373 263 1465 c 128,-1,15
 354 1557 354 1557 511 1557 c 0,16,17
 547 1557 547 1557 582.5 1551 c 128,-1,18
 618 1545 618 1545 654 1536 c 1,19,-1
 631 1394 l 1,20,21
 614 1399 614 1399 591.5 1402 c 128,-1,22
 569 1405 569 1405 540 1405 c 0,23,24
 451 1405 451 1405 404.5 1350.5 c 128,-1,25
 358 1296 358 1296 358 1198 c 2,26,-1
 358 -107 l 2,0,1
EndSplineSet
EndChar

StartChar: j
Encoding: 106 106 467
Width: 490
VWidth: 1798
GlyphClass: 2
Flags: W
AnchorPoint: "Anchor-1" 190 -709 basechar 0
AnchorPoint: "Anchor-0" 223 1350 basechar 0
LayerCount: 2
Fore
SplineSet
127 1119 m 0,0,1
 127 1164 127 1164 155 1195 c 128,-1,2
 183 1226 183 1226 236 1226 c 0,3,4
 290 1226 290 1226 318 1195 c 128,-1,5
 346 1164 346 1164 346 1119 c 0,6,7
 346 1076 346 1076 318 1045.5 c 128,-1,8
 290 1015 290 1015 236 1015 c 0,9,10
 183 1015 183 1015 155 1045.5 c 128,-1,11
 127 1076 127 1076 127 1119 c 0,0,1
146 832 m 1,12,-1
 332 832 l 1,13,-1
 332 -379 l 2,14,15
 332 -528 332 -528 261.5 -607.5 c 128,-1,16
 191 -687 191 -687 49 -687 c 0,17,18
 24 -687 24 -687 -9.5 -682 c 128,-1,19
 -43 -677 -43 -677 -66 -670 c 1,20,-1
 -65 -521 l 1,21,22
 -46 -525 -46 -525 -22 -527.5 c 128,-1,23
 2 -530 2 -530 20 -530 c 0,24,25
 81 -530 81 -530 113.5 -495.5 c 128,-1,26
 146 -461 146 -461 146 -379 c 2,27,-1
 146 832 l 1,12,-1
EndSplineSet
Substitution2: "Single Substitution lookup 3 subtable" uni006A.ccmp
Substitution2: "'unic' Unicase lookup 2 subtable" J
Substitution2: "'smcp' Lowercase to Small Capitals lookup 1 subtable" J.smcp
EndChar

StartChar: k
Encoding: 107 107 469
Width: 1038
VWidth: 1798
GlyphClass: 2
Flags: W
AnchorPoint: "Anchor-1" 529 -179 basechar 0
AnchorPoint: "Anchor-0" 549 1361 basechar 0
LayerCount: 2
Fore
SplineSet
819 -250 m 1,0,-1
 444 252 l 1,1,-1
 327 131 l 1,2,-1
 327 -250 l 1,3,-1
 141 -250 l 1,4,-1
 141 1286 l 1,5,-1
 327 1286 l 1,6,-1
 327 358 l 1,7,-1
 426 476 l 1,8,-1
 762 832 l 1,9,-1
 988 832 l 1,10,-1
 566 381 l 1,11,-1
 1037 -250 l 1,12,-1
 819 -250 l 1,0,-1
EndSplineSet
Substitution2: "'unic' Unicase lookup 2 subtable" K
Substitution2: "'smcp' Lowercase to Small Capitals lookup 1 subtable" K.smcp
EndChar

StartChar: kgreenlandic
Encoding: 312 312 471
Width: 1140
VWidth: 1798
GlyphClass: 2
Flags: W
AnchorPoint: "Anchor-1" 590 -240 basechar 0
AnchorPoint: "Anchor-0" 590 1040 basechar 0
LayerCount: 2
Fore
SplineSet
854 -250 m 1,0,-1
 448 212 l 1,1,-1
 340 212 l 1,2,-1
 340 -250 l 1,3,-1
 155 -250 l 1,4,-1
 155 832 l 1,5,-1
 340 832 l 1,6,-1
 340 374 l 1,7,-1
 432 374 l 1,8,-1
 828 832 l 1,9,-1
 1052 832 l 1,10,-1
 600 308 l 1,11,-1
 1088 -250 l 1,12,-1
 854 -250 l 1,0,-1
EndSplineSet
EndChar

StartChar: l
Encoding: 108 108 472
Width: 498
VWidth: 1798
GlyphClass: 2
Flags: W
AnchorPoint: "Anchor-1" 249 -240 basechar 0
AnchorPoint: "Anchor-0" 249 1447 basechar 0
LayerCount: 2
Fore
SplineSet
342 1286 m 1,0,-1
 342 -250 l 1,1,-1
 156 -250 l 1,2,-1
 156 1286 l 1,3,-1
 342 1286 l 1,0,-1
EndSplineSet
Substitution2: "'unic' Unicase lookup 2 subtable" L
Substitution2: "'smcp' Lowercase to Small Capitals lookup 1 subtable" L.smcp
EndChar

StartChar: less
Encoding: 60 60 478
Width: 1041
VWidth: 1798
GlyphClass: 2
Flags: W
LayerCount: 2
Fore
SplineSet
890 652 m 1,0,-1
 266 395 l 1,1,-1
 890 142 l 1,2,-1
 890 -54 l 1,3,-1
 72 325 l 1,4,-1
 72 470 l 1,5,-1
 890 848 l 1,6,-1
 890 652 l 1,0,-1
EndSplineSet
EndChar

StartChar: lessequal
Encoding: 8804 8804 479
Width: 1041
GlyphClass: 2
Flags: W
LayerCount: 2
Fore
SplineSet
890 916 m 1,0,-1
 266 683 l 1,1,-1
 890 453 l 1,2,-1
 890 275 l 1,3,-1
 72 619 l 1,4,-1
 72 751 l 1,5,-1
 890 1094 l 1,6,-1
 890 916 l 1,0,-1
896 153 m 1,7,-1
 896 1 l 1,8,-1
 61 1 l 1,9,-1
 61 153 l 1,10,-1
 896 153 l 1,7,-1
EndSplineSet
EndChar

StartChar: lira
Encoding: 8356 8356 480
Width: 1191
GlyphClass: 2
Flags: W
LayerCount: 2
Fore
SplineSet
790 595 m 1,0,-1
 790 470 l 1,1,-1
 455 470 l 1,2,-1
 457 402 l 2,3,4
 458 332 458 332 442.5 268 c 128,-1,5
 427 204 427 204 396 157 c 1,6,-1
 1128 157 l 1,7,-1
 1128 0 l 1,8,-1
 95 0 l 1,9,-1
 95 157 l 1,10,-1
 172 157 l 1,11,12
 207 166 207 166 227.5 207.5 c 128,-1,13
 248 249 248 249 256.5 303 c 128,-1,14
 265 357 265 357 265 401 c 2,15,-1
 263 470 l 1,16,-1
 91 470 l 1,17,-1
 91 595 l 1,18,-1
 258 595 l 1,19,-1
 254 732 l 1,20,-1
 91 732 l 1,21,-1
 91 857 l 1,22,-1
 249 857 l 1,23,-1
 243 1039 l 1,24,25
 243 1177 243 1177 301 1274.5 c 128,-1,26
 359 1372 359 1372 459.5 1424 c 128,-1,27
 560 1476 560 1476 687 1476 c 0,28,29
 883 1476 883 1476 991.5 1368.5 c 128,-1,30
 1100 1261 1100 1261 1100 1087 c 1,31,-1
 908 1087 l 1,32,33
 908 1171 908 1171 874.5 1222 c 128,-1,34
 841 1273 841 1273 787 1296 c 128,-1,35
 733 1319 733 1319 671 1319 c 0,36,37
 572 1319 572 1319 503.5 1246.5 c 128,-1,38
 435 1174 435 1174 435 1039 c 1,39,-1
 441 857 l 1,40,-1
 790 857 l 1,41,-1
 790 732 l 1,42,-1
 446 732 l 1,43,-1
 450 595 l 1,44,-1
 790 595 l 1,0,-1
EndSplineSet
Substitution2: "'c2sc' Capitals to Small Capitals lookup 0 subtable" lira.smcp
Position2: "'cpsp' Capital Spacing lookup 0 subtable" dx=36 dy=0 dh=72 dv=0
EndChar

StartChar: lira.smcp
Encoding: 65749 -1 481
Width: 1076
GlyphClass: 2
Flags: W
LayerCount: 2
Fore
SplineSet
390 744 m 2,0,-1
 392 681 l 1,1,-1
 797 681 l 1,2,-1
 797 559 l 1,3,-1
 395 559 l 1,4,-1
 398 466 l 2,5,6
 398 458 398 458 398 450 c 1,7,-1
 797 450 l 1,8,-1
 797 329 l 1,9,-1
 394 329 l 1,10,11
 388 279 388 279 377 234 c 128,-1,12
 366 189 366 189 348 152 c 1,13,-1
 1007 152 l 1,14,-1
 1007 0 l 1,15,-1
 114 0 l 1,16,-1
 114 152 l 1,17,-1
 124 152 l 1,18,19
 161 163 161 163 180.5 214 c 128,-1,20
 200 265 200 265 208 329 c 1,21,-1
 49 329 l 1,22,-1
 49 450 l 1,23,-1
 214 450 l 1,24,25
 214 458 214 458 214 466 c 2,26,-1
 211 559 l 1,27,-1
 49 559 l 1,28,-1
 49 681 l 1,29,-1
 207 681 l 1,30,-1
 205 744 l 2,31,32
 198 951 198 951 302.5 1066 c 128,-1,33
 407 1181 407 1181 582 1181 c 0,34,35
 776 1181 776 1181 872 1074 c 128,-1,36
 968 967 968 967 968 794 c 1,37,-1
 783 794 l 1,38,39
 783 922 783 922 723.5 974 c 128,-1,40
 664 1026 664 1026 582 1026 c 0,41,42
 491 1026 491 1026 438.5 954 c 128,-1,43
 386 882 386 882 390 744 c 2,0,-1
EndSplineSet
EndChar

StartChar: logicalnot
Encoding: 172 172 482
Width: 1134
VWidth: 1798
GlyphClass: 2
Flags: W
LayerCount: 2
Fore
SplineSet
958 551 m 1,0,-1
 958 126 l 1,1,-1
 773 126 l 1,2,-1
 773 389 l 1,3,-1
 127 389 l 1,4,-1
 127 551 l 1,5,-1
 958 551 l 1,0,-1
EndSplineSet
EndChar

StartChar: longs
Encoding: 383 383 483
Width: 508
VWidth: 1798
GlyphClass: 2
Flags: W
AnchorPoint: "Anchor-1" 248 -240 basechar 0
AnchorPoint: "Anchor-0" 428 1504 basechar 0
LayerCount: 2
Fore
SplineSet
346 -250 m 1,0,-1
 161 -250 l 1,1,-1
 161 946 l 2,2,3
 161 1121 161 1121 251.5 1214 c 128,-1,4
 342 1307 342 1307 499 1307 c 0,5,6
 536 1307 536 1307 571 1301 c 128,-1,7
 606 1295 606 1295 643 1286 c 1,8,-1
 619 1144 l 1,9,10
 602 1149 602 1149 579.5 1152 c 128,-1,11
 557 1155 557 1155 528 1155 c 0,12,13
 440 1155 440 1155 393 1099.5 c 128,-1,14
 346 1044 346 1044 346 946 c 2,15,-1
 346 -250 l 1,0,-1
EndSplineSet
EndChar

StartChar: longst
Encoding: 65750 -1 484
Width: 1262
GlyphClass: 3
Flags: W
LayerCount: 2
Fore
SplineSet
1174 1082 m 1,0,-1
 1174 940 l 1,1,-1
 972 940 l 1,2,-1
 972 268 l 2,3,4
 972 185 972 185 1008.5 162 c 128,-1,5
 1045 139 1045 139 1091 139 c 0,6,7
 1114 139 1114 139 1139.5 143.5 c 128,-1,8
 1165 148 1165 148 1178 151 c 1,9,-1
 1179 0 l 1,10,11
 1157 -7 1157 -7 1121.5 -13.5 c 128,-1,12
 1086 -20 1086 -20 1037 -20 c 0,13,14
 968 -20 968 -20 911.5 7 c 128,-1,15
 855 34 855 34 821 97.5 c 128,-1,16
 787 161 787 161 787 269 c 2,17,-1
 787 940 l 1,18,-1
 589 940 l 1,19,-1
 589 1082 l 1,20,-1
 787 1082 l 1,21,-1
 787 1369 l 1,22,23
 757 1385 757 1385 700.5 1395 c 128,-1,24
 644 1405 644 1405 599 1405 c 0,25,26
 511 1405 511 1405 464 1349.5 c 128,-1,27
 417 1294 417 1294 417 1196 c 2,28,-1
 417 0 l 1,29,-1
 232 0 l 1,30,-1
 232 940 l 1,31,-1
 61 940 l 1,32,-1
 61 1082 l 1,33,-1
 232 1082 l 1,34,-1
 232 1196 l 2,35,36
 232 1371 232 1371 322.5 1464 c 128,-1,37
 413 1557 413 1557 570 1557 c 0,38,39
 659 1557 659 1557 769.5 1530 c 128,-1,40
 880 1503 880 1503 972 1457 c 1,41,-1
 972 1082 l 1,42,-1
 1174 1082 l 1,0,-1
EndSplineSet
Ligature2: "'dlig' Discretionary Ligatures lookup 12 subtable" longs t
EndChar

StartChar: lozenge
Encoding: 9674 9674 485
Width: 1032
GlyphClass: 2
Flags: W
LayerCount: 2
Fore
SplineSet
44 727 m 1,0,-1
 444 1456 l 1,1,-1
 585 1456 l 1,2,-1
 989 727 l 1,3,-1
 589 0 l 1,4,-1
 448 0 l 1,5,-1
 44 727 l 1,0,-1
234 727 m 1,6,-1
 519 201 l 1,7,-1
 798 727 l 1,8,-1
 513 1254 l 1,9,-1
 234 727 l 1,6,-1
EndSplineSet
EndChar

StartChar: lslash
Encoding: 322 322 486
Width: 554
VWidth: 1798
GlyphClass: 2
Flags: W
AnchorPoint: "Anchor-1" 280 -240 basechar 0
AnchorPoint: "Anchor-0" 280 1447 basechar 0
LayerCount: 2
Fore
SplineSet
523 680 m 1,0,-1
 523 558 l 1,1,-1
 364 497 l 1,2,-1
 364 -250 l 1,3,-1
 179 -250 l 1,4,-1
 179 426 l 1,5,-1
 35 371 l 1,6,-1
 35 493 l 1,7,-1
 179 548 l 1,8,-1
 179 1286 l 1,9,-1
 364 1286 l 1,10,-1
 364 619 l 1,11,-1
 523 680 l 1,0,-1
EndSplineSet
Substitution2: "'smcp' Lowercase to Small Capitals lookup 1 subtable" Lslash.smcp
EndChar

StartChar: m
Encoding: 109 109 487
Width: 1796
VWidth: 1798
GlyphClass: 2
Flags: W
AnchorPoint: "Anchor-1" 897 -240 basechar 0
AnchorPoint: "Anchor-0" 911 1040 basechar 0
LayerCount: 2
Fore
SplineSet
574 696 m 0,0,1
 475 696 475 696 415 654 c 128,-1,2
 355 612 355 612 325 543 c 1,3,-1
 325 -250 l 1,4,-1
 139 -250 l 1,5,-1
 139 832 l 1,6,-1
 315 832 l 1,7,-1
 320 714 l 1,8,9
 375 779 375 779 455 815.5 c 128,-1,10
 535 852 535 852 640 852 c 0,11,12
 744 852 744 852 825.5 810.5 c 128,-1,13
 907 769 907 769 950 678 c 1,14,15
 1004 756 1004 756 1090.5 804 c 128,-1,16
 1177 852 1177 852 1294 852 c 0,17,18
 1468 852 1468 852 1562.5 759 c 128,-1,19
 1657 666 1657 666 1657 461 c 2,20,-1
 1657 -250 l 1,21,-1
 1471 -250 l 1,22,-1
 1471 463 l 2,23,24
 1471 599 1471 599 1408.5 647.5 c 128,-1,25
 1346 696 1346 696 1240 696 c 0,26,27
 1128 696 1128 696 1064 629.5 c 128,-1,28
 1000 563 1000 563 990 468 c 1,29,-1
 990 -250 l 1,30,-1
 805 -250 l 1,31,-1
 805 462 l 2,32,33
 805 589 805 589 742 642.5 c 128,-1,34
 679 696 679 696 574 696 c 0,0,1
EndSplineSet
Substitution2: "'unic' Unicase lookup 2 subtable" M.unic
Substitution2: "'smcp' Lowercase to Small Capitals lookup 1 subtable" M.smcp
EndChar

StartChar: macron
Encoding: 175 175 488
Width: 939
VWidth: 1798
GlyphClass: 2
Flags: W
LayerCount: 2
Fore
SplineSet
814 1195 m 1,0,-1
 814 1053 l 1,1,-1
 143 1053 l 1,2,-1
 143 1195 l 1,3,-1
 814 1195 l 1,0,-1
EndSplineSet
EndChar

StartChar: mu
Encoding: 181 181 491
Width: 1161
VWidth: 1798
GlyphClass: 2
Flags: W
LayerCount: 2
Fore
SplineSet
155 832 m 1,0,-1
 339 832 l 1,1,-1
 339 210 l 2,2,3
 339 73 339 73 369 2 c 128,-1,4
 399 -69 399 -69 449 -94 c 128,-1,5
 499 -119 499 -119 560 -119 c 0,6,7
 669 -119 669 -119 730.5 -78 c 128,-1,8
 792 -37 792 -37 821 34 c 1,9,-1
 821 832 l 1,10,-1
 1006 832 l 1,11,-1
 1006 -250 l 1,12,-1
 839 -250 l 1,13,-1
 831 -135 l 1,14,15
 788 -199 788 -199 722.5 -235 c 128,-1,16
 657 -271 657 -271 568 -271 c 0,17,18
 420 -271 420 -271 339 -197 c 1,19,-1
 339 -666 l 1,20,-1
 155 -666 l 1,21,-1
 155 832 l 1,0,-1
EndSplineSet
EndChar

StartChar: multiply
Encoding: 215 215 492
Width: 1028
VWidth: 1798
GlyphClass: 2
Flags: W
LayerCount: 2
Fore
SplineSet
407 265 m 1,0,-1
 142 536 l 1,1,-1
 247 646 l 1,2,-1
 514 374 l 1,3,-1
 781 646 l 1,4,-1
 886 536 l 1,5,-1
 621 265 l 1,6,-1
 888 -7 l 1,7,-1
 782 -117 l 1,8,-1
 514 156 l 1,9,-1
 246 -117 l 1,10,-1
 140 -7 l 1,11,-1
 407 265 l 1,0,-1
EndSplineSet
EndChar

StartChar: n
Encoding: 110 110 493
Width: 1131
VWidth: 1798
GlyphClass: 2
Flags: W
AnchorPoint: "Anchor-1" 563 -240 basechar 0
AnchorPoint: "Anchor-0" 573 1040 basechar 0
LayerCount: 2
Fore
SplineSet
590 696 m 0,0,1
 501 696 501 696 433 648 c 128,-1,2
 365 600 365 600 326 523 c 1,3,-1
 326 -250 l 1,4,-1
 141 -250 l 1,5,-1
 141 832 l 1,6,-1
 316 832 l 1,7,-1
 322 697 l 1,8,9
 380 770 380 770 462 811 c 128,-1,10
 544 852 544 852 645 852 c 0,11,12
 805 852 805 852 898.5 762 c 128,-1,13
 992 672 992 672 992 459 c 2,14,-1
 992 -250 l 1,15,-1
 806 -250 l 1,16,-1
 806 461 l 2,17,18
 806 588 806 588 750.5 642 c 128,-1,19
 695 696 695 696 590 696 c 0,0,1
EndSplineSet
Substitution2: "'unic' Unicase lookup 2 subtable" N.unic
Substitution2: "'smcp' Lowercase to Small Capitals lookup 1 subtable" N.smcp
EndChar

StartChar: naira
Encoding: 8358 8358 495
Width: 1622
GlyphClass: 2
Flags: W
LayerCount: 2
Fore
SplineSet
1591 641 m 1,0,-1
 1591 489 l 1,1,-1
 1367 489 l 1,2,-1
 1367 0 l 1,3,-1
 1174 0 l 1,4,-1
 855 489 l 1,5,-1
 441 489 l 1,6,-1
 441 0 l 1,7,-1
 248 0 l 1,8,-1
 248 489 l 1,9,-1
 31 489 l 1,10,-1
 31 641 l 1,11,-1
 248 641 l 1,12,-1
 248 789 l 1,13,-1
 31 789 l 1,14,-1
 31 941 l 1,15,-1
 248 941 l 1,16,-1
 248 1456 l 1,17,-1
 441 1456 l 1,18,-1
 778 941 l 1,19,-1
 1177 941 l 1,20,-1
 1177 1456 l 1,21,-1
 1367 1456 l 1,22,-1
 1367 941 l 1,23,-1
 1591 941 l 1,24,-1
 1591 789 l 1,25,-1
 1367 789 l 1,26,-1
 1367 641 l 1,27,-1
 1591 641 l 1,0,-1
441 1123 m 1,28,-1
 441 941 l 1,29,-1
 560 941 l 1,30,-1
 441 1123 l 1,28,-1
441 641 m 1,31,-1
 756 641 l 1,32,-1
 659 789 l 1,33,-1
 441 789 l 1,34,-1
 441 641 l 1,31,-1
974 641 m 1,35,-1
 1177 641 l 1,36,-1
 1177 789 l 1,37,-1
 877 789 l 1,38,-1
 974 641 l 1,35,-1
1177 330 m 1,39,-1
 1177 489 l 1,40,-1
 1073 489 l 1,41,-1
 1177 330 l 1,39,-1
EndSplineSet
EndChar

StartChar: nine
Encoding: 57 57 500
Width: 1151
VWidth: 1798
GlyphClass: 2
Flags: W
LayerCount: 2
Fore
SplineSet
305 -95 m 1,0,-1
 324 -95 l 2,1,2
 475 -95 475 -95 572 -55 c 128,-1,3
 669 -15 669 -15 724.5 54 c 128,-1,4
 780 123 780 123 803.5 210 c 128,-1,5
 827 297 827 297 831 392 c 1,6,7
 773 323 773 323 692 280 c 128,-1,8
 611 237 611 237 516 237 c 0,9,10
 372 237 372 237 280 309 c 128,-1,11
 188 381 188 381 144 492.5 c 128,-1,12
 100 604 100 604 100 723 c 0,13,14
 100 862 100 862 151 976 c 128,-1,15
 202 1090 202 1090 303 1158 c 128,-1,16
 404 1226 404 1226 552 1226 c 0,17,18
 677 1226 677 1226 765 1176 c 128,-1,19
 853 1126 853 1126 908.5 1042 c 128,-1,20
 964 958 964 958 990 853 c 128,-1,21
 1016 748 1016 748 1016 637 c 2,22,-1
 1016 570 l 2,23,24
 1016 457 1016 457 1001.5 340.5 c 128,-1,25
 987 224 987 224 946.5 118 c 128,-1,26
 906 12 906 12 829 -71.5 c 128,-1,27
 752 -155 752 -155 628.5 -203.5 c 128,-1,28
 505 -252 505 -252 324 -252 c 2,29,-1
 305 -252 l 1,30,-1
 305 -95 l 1,0,-1
282 733 m 0,31,32
 282 647 282 647 311 568.5 c 128,-1,33
 340 490 340 490 398.5 440.5 c 128,-1,34
 457 391 457 391 546 391 c 0,35,36
 641 391 641 391 718.5 448 c 128,-1,37
 796 505 796 505 832 589 c 1,38,-1
 832 662 l 2,39,40
 832 795 832 795 793 886.5 c 128,-1,41
 754 978 754 978 690 1025.5 c 128,-1,42
 626 1073 626 1073 552 1073 c 0,43,44
 423 1073 423 1073 352.5 976 c 128,-1,45
 282 879 282 879 282 733 c 0,31,32
EndSplineSet
Substitution2: "'ss01' Style Set 1 lookup 35 subtable" uni06F9
Substitution2: "'numr' Numerators lookup 21 subtable" nine.frac
Substitution2: "'dnom' Denominators lookup 20 subtable" nine.sup
Substitution2: "'frac' Diagonal Fractions lookup 19 subtable" nine.frac
Substitution2: "Single Substitution lookup 18 subtable" nine.sup
Substitution2: "'onum' Oldstyle Figures lookup 14 subtable" nine.tnum
Substitution2: "'c2sc' Capitals to Small Capitals lookup 0 subtable" nine.smcp
Position2: "'cpsp' Capital Spacing lookup 0 subtable" dx=36 dy=0 dh=72 dv=0
EndChar

StartChar: nine.onum
Encoding: 65752 -1 502
Width: 1210
GlyphClass: 1
Flags: W
LayerCount: 2
Fore
SplineSet
480 -192 m 0,0,1
 647 -192 647 -192 760.5 -76 c 128,-1,2
 874 40 874 40 897 270 c 1,3,4
 780 166 780 166 596 166 c 0,5,6
 452 166 452 166 347.5 230.5 c 128,-1,7
 243 295 243 295 186.5 408.5 c 128,-1,8
 130 522 130 522 130 668 c 0,9,10
 130 835 130 835 192 950 c 128,-1,11
 254 1065 254 1065 358.5 1125 c 128,-1,12
 463 1185 463 1185 590 1185 c 0,13,14
 738 1185 738 1185 850 1123.5 c 128,-1,15
 962 1062 962 1062 1025 936.5 c 128,-1,16
 1088 811 1088 811 1088 620 c 2,17,-1
 1088 378 l 2,18,19
 1088 142 1088 142 1010.5 -18.5 c 128,-1,20
 933 -179 933 -179 799.5 -261 c 128,-1,21
 666 -343 666 -343 498 -343 c 0,22,23
 432 -343 432 -343 358 -329 c 128,-1,24
 284 -315 284 -315 220 -284 c 1,25,-1
 258 -142 l 1,26,27
 308 -161 308 -161 362 -176.5 c 128,-1,28
 416 -192 416 -192 480 -192 c 0,0,1
316 668 m 0,29,30
 316 576 316 576 351 495.5 c 128,-1,31
 386 415 386 415 450.5 366 c 128,-1,32
 515 317 515 317 605 317 c 0,33,34
 727 317 727 317 800.5 370 c 128,-1,35
 874 423 874 423 902 491 c 1,36,-1
 902 640 l 2,37,38
 902 836 902 836 821.5 935 c 128,-1,39
 741 1034 741 1034 595 1034 c 0,40,41
 477 1034 477 1034 396.5 942 c 128,-1,42
 316 850 316 850 316 668 c 0,29,30
EndSplineSet
EndChar

StartChar: nine.smcp
Encoding: 65753 -1 503
Width: 1040
GlyphClass: 2
Flags: W
LayerCount: 2
Fore
SplineSet
274 147 m 1,0,-1
 292 147 l 2,1,2
 450 147 450 147 545 192 c 128,-1,3
 640 237 640 237 684.5 315 c 128,-1,4
 729 393 729 393 736 493 c 1,5,6
 693 446 693 446 624.5 414 c 128,-1,7
 556 382 556 382 464 382 c 0,8,9
 336 382 336 382 252 436.5 c 128,-1,10
 168 491 168 491 127 580.5 c 128,-1,11
 86 670 86 670 86 774 c 0,12,13
 86 886 86 886 134 978 c 128,-1,14
 182 1070 182 1070 275 1125.5 c 128,-1,15
 368 1181 368 1181 501 1181 c 0,16,17
 646 1181 646 1181 739.5 1117.5 c 128,-1,18
 833 1054 833 1054 878 946.5 c 128,-1,19
 923 839 923 839 923 707 c 2,20,-1
 923 639 l 2,21,22
 923 509 923 509 893.5 392.5 c 128,-1,23
 864 276 864 276 793.5 186 c 128,-1,24
 723 96 723 96 600.5 44.5 c 128,-1,25
 478 -7 478 -7 292 -7 c 2,26,-1
 273 -7 l 1,27,-1
 274 147 l 1,0,-1
269 777 m 0,28,29
 269 680 269 680 325.5 604.5 c 128,-1,30
 382 529 382 529 497 529 c 0,31,32
 581 529 581 529 645.5 571 c 128,-1,33
 710 613 710 613 738 673 c 1,34,-1
 738 739 l 2,35,36
 738 881 738 881 667 954.5 c 128,-1,37
 596 1028 596 1028 501 1028 c 0,38,39
 391 1028 391 1028 330 953.5 c 128,-1,40
 269 879 269 879 269 777 c 0,28,29
EndSplineSet
EndChar

StartChar: nine.sup
Encoding: 65754 -1 504
Width: 751
GlyphClass: 2
Flags: W
LayerCount: 2
Fore
SplineSet
209 120 m 1,0,-1
 223 120 l 2,1,2
 359 120 359 120 426 169 c 128,-1,3
 493 218 493 218 503 321 c 1,4,5
 472 292 472 292 428.5 273.5 c 128,-1,6
 385 255 385 255 333 255 c 0,7,8
 206 255 206 255 140 328.5 c 128,-1,9
 74 402 74 402 74 519 c 0,10,11
 74 596 74 596 109.5 659.5 c 128,-1,12
 145 723 145 723 210.5 761.5 c 128,-1,13
 276 800 276 800 366 800 c 0,14,15
 506 800 506 800 583.5 715 c 128,-1,16
 661 630 661 630 661 478 c 2,17,-1
 661 427 l 2,18,19
 661 218 661 218 555 105.5 c 128,-1,20
 449 -7 449 -7 224 -7 c 2,21,-1
 209 -7 l 1,22,-1
 209 120 l 1,0,-1
230 519 m 0,23,24
 230 459 230 459 265 418 c 128,-1,25
 300 377 300 377 368 377 c 0,26,27
 418 377 418 377 453.5 398.5 c 128,-1,28
 489 420 489 420 505 449 c 1,29,-1
 505 508 l 2,30,31
 505 591 505 591 465 631 c 128,-1,32
 425 671 425 671 366 671 c 0,33,34
 302 671 302 671 266 626 c 128,-1,35
 230 581 230 581 230 519 c 0,23,24
EndSplineSet
EndChar

StartChar: notequal
Encoding: 8800 8800 506
Width: 1124
GlyphClass: 2
Flags: W
LayerCount: 2
Fore
SplineSet
986 560 m 1,0,-1
 986 399 l 1,1,-1
 456 399 l 1,2,-1
 314 156 l 1,3,-1
 219 215 l 1,4,-1
 326 399 l 1,5,-1
 152 399 l 1,6,-1
 152 560 l 1,7,-1
 421 560 l 1,8,-1
 569 814 l 1,9,-1
 152 814 l 1,10,-1
 152 975 l 1,11,-1
 663 975 l 1,12,-1
 816 1237 l 1,13,-1
 911 1178 l 1,14,-1
 792 975 l 1,15,-1
 986 975 l 1,16,-1
 986 814 l 1,17,-1
 698 814 l 1,18,-1
 550 560 l 1,19,-1
 986 560 l 1,0,-1
EndSplineSet
EndChar

StartChar: nsuperior
Encoding: 8319 8319 507
Width: 865
GlyphClass: 2
Flags: W
LayerCount: 2
Fore
SplineSet
446 1322 m 0,0,1
 388 1322 388 1322 350 1292.5 c 128,-1,2
 312 1263 312 1263 292 1214 c 1,3,-1
 292 651 l 1,4,-1
 122 651 l 1,5,-1
 122 1451 l 1,6,-1
 251 1451 l 1,7,-1
 280 1328 l 1,8,9
 316 1393 316 1393 372 1429.5 c 128,-1,10
 428 1466 428 1466 501 1466 c 0,11,12
 620 1466 620 1466 690.5 1393.5 c 128,-1,13
 761 1321 761 1321 761 1159 c 2,14,-1
 761 651 l 1,15,-1
 591 651 l 1,16,-1
 591 1127 l 2,17,18
 591 1236 591 1236 551 1279 c 128,-1,19
 511 1322 511 1322 446 1322 c 0,0,1
EndSplineSet
EndChar

StartChar: numbersign
Encoding: 35 35 509
Width: 1261
VWidth: 1798
GlyphClass: 2
Flags: W
LayerCount: 2
Fore
SplineSet
279 -250 m 1,0,-1
 359 160 l 1,1,-1
 119 160 l 1,2,-1
 119 298 l 1,3,-1
 386 298 l 1,4,-1
 454 651 l 1,5,-1
 195 651 l 1,6,-1
 195 790 l 1,7,-1
 481 790 l 1,8,-1
 562 1206 l 1,9,-1
 706 1206 l 1,10,-1
 625 790 l 1,11,-1
 889 790 l 1,12,-1
 970 1206 l 1,13,-1
 1113 1206 l 1,14,-1
 1032 790 l 1,15,-1
 1235 790 l 1,16,-1
 1235 651 l 1,17,-1
 1005 651 l 1,18,-1
 936 298 l 1,19,-1
 1160 298 l 1,20,-1
 1160 160 l 1,21,-1
 909 160 l 1,22,-1
 829 -250 l 1,23,-1
 686 -250 l 1,24,-1
 766 160 l 1,25,-1
 502 160 l 1,26,-1
 422 -250 l 1,27,-1
 279 -250 l 1,0,-1
529 298 m 1,28,-1
 793 298 l 1,29,-1
 862 651 l 1,30,-1
 598 651 l 1,31,-1
 529 298 l 1,28,-1
EndSplineSet
EndChar

StartChar: o
Encoding: 111 111 510
Width: 1168
VWidth: 1798
GlyphClass: 2
Flags: W
AnchorPoint: "Anchor-1" 584 -251 basechar 0
AnchorPoint: "Anchor-0" 575 1040 basechar 0
LayerCount: 2
Fore
SplineSet
92 279 m 2,0,-1
 92 302 l 2,1,2
 92 459 92 459 152 583 c 128,-1,3
 212 707 212 707 322 779.5 c 128,-1,4
 432 852 432 852 583 852 c 0,5,6
 736 852 736 852 846.5 779.5 c 128,-1,7
 957 707 957 707 1017 583 c 128,-1,8
 1077 459 1077 459 1077 302 c 2,9,-1
 1077 279 l 2,10,11
 1077 123 1077 123 1017 -1.5 c 128,-1,12
 957 -126 957 -126 847 -198 c 128,-1,13
 737 -270 737 -270 585 -270 c 256,14,15
 433 -270 433 -270 322.5 -198 c 128,-1,16
 212 -126 212 -126 152 -1.5 c 128,-1,17
 92 123 92 123 92 279 c 2,0,-1
277 302 m 2,18,-1
 277 279 l 2,19,20
 277 172 277 172 311 81.5 c 128,-1,21
 345 -9 345 -9 413.5 -63.5 c 128,-1,22
 482 -118 482 -118 585 -118 c 0,23,24
 687 -118 687 -118 755 -63.5 c 128,-1,25
 823 -9 823 -9 857 81.5 c 128,-1,26
 891 172 891 172 891 279 c 2,27,-1
 891 302 l 2,28,29
 891 408 891 408 856.5 498.5 c 128,-1,30
 822 589 822 589 754 644.5 c 128,-1,31
 686 700 686 700 583 700 c 0,32,33
 481 700 481 700 413 644.5 c 128,-1,34
 345 589 345 589 311 498.5 c 128,-1,35
 277 408 277 408 277 302 c 2,18,-1
EndSplineSet
Substitution2: "'unic' Unicase lookup 2 subtable" O
Substitution2: "'smcp' Lowercase to Small Capitals lookup 1 subtable" O.smcp
EndChar

StartChar: oe
Encoding: 339 339 515
Width: 1860
VWidth: 1798
GlyphClass: 2
Flags: W
AnchorPoint: "Anchor-1" 945 -251 basechar 0
AnchorPoint: "Anchor-0" 945 1040 basechar 0
LayerCount: 2
Fore
SplineSet
97 279 m 2,0,-1
 97 302 l 2,1,2
 97 459 97 459 155 583 c 128,-1,3
 213 707 213 707 321 779.5 c 128,-1,4
 429 852 429 852 579 852 c 0,5,6
 715 852 715 852 816 794 c 128,-1,7
 917 736 917 736 978 636 c 1,8,9
 1043 737 1043 737 1141.5 795 c 128,-1,10
 1240 853 1240 853 1351 852 c 0,11,12
 1500 852 1500 852 1598 790.5 c 128,-1,13
 1696 729 1696 729 1744 620 c 128,-1,14
 1792 511 1792 511 1792 370 c 2,15,-1
 1792 248 l 1,16,-1
 1075 248 l 1,17,18
 1079 146 1079 146 1114 62.5 c 128,-1,19
 1149 -21 1149 -21 1215.5 -70 c 128,-1,20
 1282 -119 1282 -119 1379 -119 c 0,21,22
 1489 -119 1489 -119 1563.5 -87.5 c 128,-1,23
 1638 -56 1638 -56 1688 -11 c 1,24,-1
 1761 -137 l 1,25,26
 1712 -185 1712 -185 1619 -228 c 128,-1,27
 1526 -271 1526 -271 1379 -271 c 0,28,29
 1245 -271 1245 -271 1142 -214 c 128,-1,30
 1039 -157 1039 -157 976 -58 c 1,31,32
 915 -156 915 -156 815 -213.5 c 128,-1,33
 715 -271 715 -271 581 -271 c 0,34,35
 430 -271 430 -271 321.5 -198.5 c 128,-1,36
 213 -126 213 -126 155 -1.5 c 128,-1,37
 97 123 97 123 97 279 c 2,0,-1
1351 700 m 0,38,39
 1246 700 1246 700 1173.5 614.5 c 128,-1,40
 1101 529 1101 529 1081 399 c 1,41,-1
 1607 399 l 1,42,-1
 1607 425 l 2,43,44
 1607 498 1607 498 1580 560.5 c 128,-1,45
 1553 623 1553 623 1496.5 661.5 c 128,-1,46
 1440 700 1440 700 1351 700 c 0,38,39
283 302 m 2,47,-1
 283 279 l 2,48,49
 283 172 283 172 315 81 c 128,-1,50
 347 -10 347 -10 412.5 -64.5 c 128,-1,51
 478 -119 478 -119 581 -119 c 0,52,53
 683 -119 683 -119 749 -64.5 c 128,-1,54
 815 -10 815 -10 847 81 c 128,-1,55
 879 172 879 172 879 279 c 2,56,-1
 879 302 l 2,57,58
 879 408 879 408 847 498.5 c 128,-1,59
 815 589 815 589 748.5 644.5 c 128,-1,60
 682 700 682 700 579 700 c 0,61,62
 478 700 478 700 412 644.5 c 128,-1,63
 346 589 346 589 314.5 498.5 c 128,-1,64
 283 408 283 408 283 302 c 2,47,-1
EndSplineSet
Substitution2: "'unic' Unicase lookup 2 subtable" OE
Substitution2: "'smcp' Lowercase to Small Capitals lookup 1 subtable" OE.smcp
EndChar

StartChar: ogonek
Encoding: 731 731 516
Width: 555
VWidth: 1798
GlyphClass: 2
Flags: W
LayerCount: 2
Fore
SplineSet
308 -193 m 1,0,-1
 382 -250 l 1,1,2
 318 -298 318 -298 264.5 -352.5 c 128,-1,3
 211 -407 211 -407 211 -472 c 0,4,5
 211 -505 211 -505 228.5 -525 c 128,-1,6
 246 -545 246 -545 289 -545 c 0,7,8
 322 -545 322 -545 348 -535.5 c 128,-1,9
 374 -526 374 -526 389 -518 c 1,10,-1
 403 -640 l 1,11,12
 378 -655 378 -655 339.5 -669.5 c 128,-1,13
 301 -684 301 -684 242 -684 c 0,14,15
 161 -684 161 -684 105.5 -635.5 c 128,-1,16
 50 -587 50 -587 50 -493 c 0,17,18
 50 -413 50 -413 111 -334.5 c 128,-1,19
 172 -256 172 -256 308 -193 c 1,0,-1
EndSplineSet
EndChar

StartChar: ohorn
Encoding: 417 417 518
Width: 1171
VWidth: 1798
GlyphClass: 2
Flags: W
AnchorPoint: "Anchor-1" 502 -250 basechar 0
AnchorPoint: "Anchor-0" 582 1040 basechar 0
LayerCount: 2
Fore
SplineSet
92 279 m 2,0,-1
 92 302 l 2,1,2
 92 459 92 459 152 583 c 128,-1,3
 212 707 212 707 322 779.5 c 128,-1,4
 432 852 432 852 583 852 c 0,5,6
 690 852 690 852 776.5 815.5 c 128,-1,7
 863 779 863 779 926 714 c 1,8,9
 1013 725 1013 725 1037 789 c 128,-1,10
 1061 853 1061 853 1061 951 c 1,11,-1
 1210 951 l 1,12,13
 1210 815 1210 815 1163.5 726 c 128,-1,14
 1117 637 1117 637 1003 609 c 1,15,16
 1076 476 1076 476 1076 302 c 2,17,-1
 1076 279 l 2,18,19
 1076 123 1076 123 1016.5 -1.5 c 128,-1,20
 957 -126 957 -126 847 -198 c 128,-1,21
 737 -270 737 -270 585 -270 c 256,22,23
 433 -270 433 -270 322.5 -198 c 128,-1,24
 212 -126 212 -126 152 -1.5 c 128,-1,25
 92 123 92 123 92 279 c 2,0,-1
277 302 m 2,26,-1
 277 279 l 2,27,28
 277 172 277 172 311 81.5 c 128,-1,29
 345 -9 345 -9 413.5 -63.5 c 128,-1,30
 482 -118 482 -118 585 -118 c 0,31,32
 687 -118 687 -118 755 -63.5 c 128,-1,33
 823 -9 823 -9 857 81.5 c 128,-1,34
 891 172 891 172 891 279 c 2,35,-1
 891 302 l 2,36,37
 891 408 891 408 856.5 498.5 c 128,-1,38
 822 589 822 589 754 644.5 c 128,-1,39
 686 700 686 700 583 700 c 0,40,41
 481 700 481 700 413 644.5 c 128,-1,42
 345 589 345 589 311 498.5 c 128,-1,43
 277 408 277 408 277 302 c 2,26,-1
EndSplineSet
EndChar

StartChar: one
Encoding: 49 49 521
Width: 1151
VWidth: 1798
GlyphClass: 2
Flags: W
LayerCount: 2
Fore
SplineSet
729 1214 m 1,0,-1
 729 -250 l 1,1,-1
 544 -250 l 1,2,-1
 544 983 l 1,3,-1
 171 847 l 1,4,-1
 171 1014 l 1,5,-1
 700 1214 l 1,6,-1
 729 1214 l 1,0,-1
EndSplineSet
Substitution2: "'ss01' Style Set 1 lookup 35 subtable" uni06F1
Substitution2: "'numr' Numerators lookup 21 subtable" onesuperior
Substitution2: "'dnom' Denominators lookup 20 subtable" one.sup
Substitution2: "'frac' Diagonal Fractions lookup 19 subtable" onesuperior
Substitution2: "Single Substitution lookup 18 subtable" one.sup
Substitution2: "'onum' Oldstyle Figures lookup 14 subtable" one.tnum
Substitution2: "'c2sc' Capitals to Small Capitals lookup 0 subtable" one.smcp
Position2: "'cpsp' Capital Spacing lookup 0 subtable" dx=36 dy=0 dh=72 dv=0
EndChar

StartChar: one.onum
Encoding: 65756 -1 522
Width: 981
GlyphClass: 1
Flags: W
LayerCount: 2
Fore
SplineSet
713 1165 m 1,0,-1
 713 0 l 1,1,-1
 528 0 l 1,2,-1
 528 935 l 1,3,-1
 160 796 l 1,4,-1
 160 963 l 1,5,-1
 682 1165 l 1,6,-1
 713 1165 l 1,0,-1
EndSplineSet
EndChar

StartChar: one.smcp
Encoding: 65757 -1 523
Width: 1040
GlyphClass: 2
Flags: W
LayerCount: 2
Fore
SplineSet
670 1168 m 1,0,-1
 670 0 l 1,1,-1
 484 0 l 1,2,-1
 484 943 l 1,3,-1
 153 845 l 1,4,-1
 153 1003 l 1,5,-1
 644 1168 l 1,6,-1
 670 1168 l 1,0,-1
EndSplineSet
EndChar

StartChar: one.sup
Encoding: 65758 -1 524
Width: 751
GlyphClass: 2
Flags: W
LayerCount: 2
Fore
SplineSet
495 789 m 1,0,-1
 495 0 l 1,1,-1
 339 0 l 1,2,-1
 339 601 l 1,3,-1
 123 544 l 1,4,-1
 123 673 l 1,5,-1
 477 789 l 1,6,-1
 495 789 l 1,0,-1
EndSplineSet
EndChar

StartChar: onesuperior
Encoding: 185 185 529
Width: 751
VWidth: 1798
GlyphClass: 2
Flags: W
LayerCount: 2
Fore
SplineSet
495 1206 m 1,0,-1
 495 417 l 1,1,-1
 339 417 l 1,2,-1
 339 1018 l 1,3,-1
 123 961 l 1,4,-1
 123 1090 l 1,5,-1
 477 1206 l 1,6,-1
 495 1206 l 1,0,-1
EndSplineSet
EndChar

StartChar: ordfeminine
Encoding: 170 170 530
Width: 916
VWidth: 1798
GlyphClass: 2
Flags: W
LayerCount: 2
Fore
SplineSet
619 456 m 1,0,1
 608 491 608 491 602 528 c 1,2,3
 570 494 570 494 519 468 c 128,-1,4
 468 442 468 442 396 442 c 0,5,6
 276 442 276 442 211.5 503.5 c 128,-1,7
 147 565 147 565 147 668 c 0,8,9
 147 778 147 778 231.5 838.5 c 128,-1,10
 316 899 316 899 486 899 c 2,11,-1
 595 899 l 1,12,-1
 595 952 l 2,13,14
 595 1086 595 1086 471 1086 c 0,15,16
 402 1086 402 1086 362.5 1059.5 c 128,-1,17
 323 1033 323 1033 323 981 c 1,18,-1
 162 994 l 1,19,20
 162 1095 162 1095 246.5 1161 c 128,-1,21
 331 1227 331 1227 471 1227 c 0,22,23
 600 1227 600 1227 679 1157.5 c 128,-1,24
 758 1088 758 1088 758 951 c 2,25,-1
 758 637 l 2,26,27
 758 588 758 588 764 544 c 128,-1,28
 770 500 770 500 784 456 c 1,29,-1
 619 456 l 1,0,1
435 579 m 0,30,31
 479 579 479 579 523.5 599.5 c 128,-1,32
 568 620 568 620 595 647 c 1,33,-1
 595 788 l 1,34,-1
 487 788 l 2,35,36
 396 788 396 788 353 753.5 c 128,-1,37
 310 719 310 719 310 672 c 0,38,39
 310 579 310 579 435 579 c 0,30,31
EndSplineSet
EndChar

StartChar: ordmasculine
Encoding: 186 186 531
Width: 932
VWidth: 1798
GlyphClass: 2
Flags: W
LayerCount: 2
Fore
SplineSet
123 793 m 2,0,-1
 123 874 l 2,1,2
 123 1029 123 1029 215.5 1128 c 128,-1,3
 308 1227 308 1227 465 1227 c 0,4,5
 624 1227 624 1227 715.5 1128 c 128,-1,6
 807 1029 807 1029 807 874 c 2,7,-1
 807 793 l 2,8,9
 807 639 807 639 716 540 c 128,-1,10
 625 441 625 441 467 441 c 0,11,12
 308 441 308 441 215.5 540 c 128,-1,13
 123 639 123 639 123 793 c 2,0,-1
286 874 m 2,14,-1
 286 793 l 2,15,16
 286 702 286 702 330.5 641 c 128,-1,17
 375 580 375 580 467 580 c 0,18,19
 556 580 556 580 600.5 641 c 128,-1,20
 645 702 645 702 645 793 c 2,21,-1
 645 874 l 2,22,23
 645 963 645 963 600.5 1024.5 c 128,-1,24
 556 1086 556 1086 465 1086 c 256,25,26
 374 1086 374 1086 330 1024.5 c 128,-1,27
 286 963 286 963 286 874 c 2,14,-1
EndSplineSet
EndChar

StartChar: oslash
Encoding: 248 248 532
Width: 1161
VWidth: 1798
GlyphClass: 2
Flags: W
AnchorPoint: "Anchor-0" 537 1039 basechar 0
LayerCount: 2
Fore
SplineSet
92 279 m 2,0,-1
 92 302 l 2,1,2
 92 459 92 459 152 583 c 128,-1,3
 212 707 212 707 322 779.5 c 128,-1,4
 432 852 432 852 583 852 c 0,5,6
 694 852 694 852 787 811 c 1,7,-1
 860 959 l 1,8,-1
 983 959 l 1,9,-1
 882 754 l 1,10,11
 975 680 975 680 1025.5 562.5 c 128,-1,12
 1076 445 1076 445 1076 302 c 2,13,-1
 1076 279 l 2,14,15
 1076 123 1076 123 1016.5 -1.5 c 128,-1,16
 957 -126 957 -126 847 -198 c 128,-1,17
 737 -270 737 -270 585 -270 c 0,18,19
 482 -270 482 -270 394 -234 c 1,20,-1
 320 -385 l 1,21,-1
 197 -385 l 1,22,-1
 298 -181 l 1,23,24
 200 -108 200 -108 146 11.5 c 128,-1,25
 92 131 92 131 92 279 c 2,0,-1
277 302 m 2,26,-1
 277 279 l 2,27,28
 277 188 277 188 301 108.5 c 128,-1,29
 325 29 325 29 374 -26 c 1,30,-1
 717 668 l 1,31,32
 657 700 657 700 583 700 c 0,33,34
 481 700 481 700 413 644.5 c 128,-1,35
 345 589 345 589 311 498.5 c 128,-1,36
 277 408 277 408 277 302 c 2,26,-1
891 302 m 2,37,38
 891 387 891 387 869 463 c 128,-1,39
 847 539 847 539 803 595 c 1,40,-1
 464 -93 l 1,41,42
 519 -118 519 -118 585 -118 c 0,43,44
 687 -118 687 -118 755 -63.5 c 128,-1,45
 823 -9 823 -9 857 81.5 c 128,-1,46
 891 172 891 172 891 279 c 2,47,-1
 891 302 l 2,37,38
EndSplineSet
Substitution2: "'unic' Unicase lookup 2 subtable" Oslash
Substitution2: "'smcp' Lowercase to Small Capitals lookup 1 subtable" Oslash.smcp
EndChar

